<svg class="mode-button" onclick="removeAnnotations()" viewBox="0 0 24 24" xmlns="http://www.w3.org/2000/svg" fill="currentColor"><path style="fill:#808080;fill-opacity:1;stroke:none;" d="M 12.078125 16.443359 C 8.7643789 16.443359 6.0781237 17.115055 6.078125 17.943359 L 6.078125 18.841797 C 6.078125 19.670214 8.764379 20.341797 12.078125 20.341797 C 15.391871 20.341797 18.078159 19.670214 18.078125 18.841797 L 18.078125 17.943359 C 18.078126 17.115055 15.391871 16.443359 12.078125 16.443359 z " /><path style="color:#000000;fill:#000000;" d="M 12.078125 2.1542969 C 11.792274 2.1542969 11.509395 2.1585466 11.232422 2.1660156 A 0.1889765 0.1889765 0 0 0 11.230469 2.1660156 C 10.660666 2.1814606 10.112086 2.2132735 9.5917969 2.2578125 A 0.1889765 0.1889765 0 0 0 9.5898438 2.2578125 C 8.6455578 2.3387952 7.7926713 2.4639591 7.0859375 2.625 C 6.4424059 2.7716392 5.9185924 2.9459239 5.5390625 3.1503906 C 5.3967388 3.2270657 5.2745568 3.308872 5.1738281 3.3984375 C 5.1402521 3.4282925 5.1087281 3.4583314 5.0800781 3.4902344 C 4.9654796 3.6178461 4.8886719 3.7713575 4.8886719 3.9375 C 4.8886719 3.94154 4.890535 3.9451898 4.890625 3.9492188 A 0.1889765 0.1889765 0 0 0 4.8886719 3.9570312 L 5.8886719 17.943359 L 5.8886719 17.957031 L 5.8886719 18.841797 C 5.8886715 19.151034 6.1235445 19.395044 6.453125 19.589844 C 6.7827055 19.784643 7.2351931 19.947474 7.7890625 20.085938 C 8.8968013 20.362866 10.408488 20.53125 12.078125 20.53125 C 13.747762 20.53125 15.259457 20.362866 16.367188 20.085938 C 16.921053 19.947474 17.373553 19.784645 17.703125 19.589844 C 18.032697 19.395043 18.267604 19.151036 18.267578 18.841797 L 18.267578 17.943359 L 19.265625 3.9570312 A 0.1889765 0.1889765 0 0 0 19.265625 3.9550781 C 19.265825 3.9490881 19.267578 3.943528 19.267578 3.9375 C 19.267578 3.7713574 19.190768 3.6178462 19.076172 3.4902344 C 18.961528 3.3626194 18.806952 3.252624 18.617188 3.1503906 C 18.301008 2.9800528 17.879204 2.831082 17.376953 2.7011719 A 0.1889765 0.1889765 0 0 0 17.361328 2.6972656 C 17.265498 2.672643 17.172254 2.6482288 17.070312 2.625 C 16.775081 2.5577265 16.452888 2.4976979 16.111328 2.4433594 A 0.1889765 0.1889765 0 0 0 16.0625 2.4355469 C 15.599711 2.3632676 15.095791 2.3033377 14.564453 2.2578125 A 0.1889765 0.1889765 0 0 0 14.5625 2.2578125 C 14.041611 2.2132225 13.492383 2.1814426 12.921875 2.1660156 C 12.644902 2.1585456 12.363976 2.1542969 12.078125 2.1542969 z M 12.078125 2.53125 C 12.298505 2.53125 12.515324 2.5344725 12.730469 2.5390625 L 12.707031 5.3359375 C 12.499418 5.3402075 12.290588 5.34375 12.078125 5.34375 C 11.865662 5.34375 11.656832 5.3402075 11.449219 5.3359375 L 11.425781 2.5390625 C 11.640927 2.5344625 11.857745 2.53125 12.078125 2.53125 z M 11.046875 2.5507812 L 11.070312 5.3242188 C 10.651965 5.3102722 10.245859 5.2879089 9.8554688 5.2578125 L 9.7890625 2.6210938 C 10.192624 2.5889297 10.612863 2.565596 11.046875 2.5507812 z M 13.109375 2.5507812 C 13.543387 2.5655952 13.963626 2.5889297 14.367188 2.6210938 L 14.300781 5.2578125 C 13.910391 5.2879085 13.504281 5.3102727 13.085938 5.3242188 L 13.109375 2.5507812 z M 9.4121094 2.6523438 L 9.4765625 5.2265625 C 9.095452 5.1914178 8.7338224 5.1487321 8.390625 5.0996094 L 8.2988281 2.7871094 C 8.6495092 2.7351794 9.0204115 2.6894924 9.4121094 2.6523438 z M 14.744141 2.6523438 C 15.135838 2.6894927 15.506741 2.7351788 15.857422 2.7871094 L 15.765625 5.0996094 C 15.422428 5.1487324 15.060797 5.1914174 14.679688 5.2265625 L 14.744141 2.6523438 z M 7.9199219 2.8496094 L 8.0097656 5.0410156 C 7.7122816 4.9918979 7.4278738 4.939638 7.1699219 4.8808594 C 7.1568439 4.8778794 7.1457805 4.8741037 7.1328125 4.8710938 L 7.0351562 3.0273438 C 7.0810122 3.0162607 7.1226142 3.0049206 7.1699219 2.9941406 C 7.4015972 2.9413496 7.6561303 2.8946616 7.9199219 2.8496094 z M 16.236328 2.8496094 C 16.50012 2.8946614 16.754653 2.9413494 16.986328 2.9941406 C 17.033638 3.0049206 17.075238 3.0162608 17.121094 3.0273438 L 17.023438 4.8710938 C 17.010468 4.8740938 16.999408 4.8778794 16.986328 4.8808594 C 16.728376 4.9396384 16.443968 4.9918979 16.146484 5.0410156 L 16.236328 2.8496094 z M 6.6601562 3.125 L 6.7480469 4.7753906 C 6.5270246 4.714852 6.3326093 4.650357 6.15625 4.5839844 L 6.0761719 3.3203125 C 6.2473674 3.2524628 6.4423986 3.187216 6.6601562 3.125 z M 17.494141 3.125 C 17.712646 3.187374 17.908393 3.2522687 18.080078 3.3203125 L 18 4.5839844 C 17.823176 4.6505314 17.627964 4.7147111 17.40625 4.7753906 L 17.494141 3.125 z M 5.7089844 3.4882812 L 5.7675781 4.4179688 C 5.7514164 4.4096998 5.7341688 4.4008848 5.71875 4.3925781 C 5.6423691 4.3514289 5.5766143 4.3104043 5.5195312 4.2695312 L 5.4746094 3.6386719 C 5.5380694 3.5890069 5.6159492 3.5390339 5.7089844 3.4882812 z M 18.447266 3.4882812 C 18.539706 3.5387072 18.616439 3.5893027 18.679688 3.6386719 L 18.634766 4.2695312 C 18.577956 4.3101152 18.513318 4.3517322 18.4375 4.3925781 C 18.42208 4.4008881 18.404832 4.4096998 18.388672 4.4179688 L 18.447266 3.4882812 z M 5.5507812 4.7304688 C 5.5976532 4.7554608 5.6461092 4.7805965 5.6972656 4.8046875 L 6.4824219 17.179688 C 6.4726969 17.185264 6.4626454 17.191639 6.453125 17.197266 C 6.4408176 17.204539 6.4300047 17.213297 6.4179688 17.220703 L 5.5507812 4.7304688 z M 18.603516 4.7324219 L 17.738281 17.220703 C 17.726245 17.213297 17.715432 17.204539 17.703125 17.197266 C 17.693605 17.191639 17.683553 17.185264 17.673828 17.179688 L 18.458984 4.8046875 C 18.509314 4.7809845 18.557324 4.7569989 18.603516 4.7324219 z M 6.1816406 4.9980469 C 6.3293548 5.0488719 6.4890157 5.0965149 6.6582031 5.1425781 L 7.2871094 16.84375 C 7.1636197 16.883378 7.0446845 16.923552 6.9355469 16.966797 L 6.1816406 4.9980469 z M 17.974609 4.9980469 L 17.220703 16.966797 C 17.111565 16.923552 16.99263 16.883378 16.869141 16.84375 L 17.498047 5.1425781 C 17.667234 5.0965151 17.826895 5.0488721 17.974609 4.9980469 z M 7.1542969 5.2636719 C 7.3931652 5.3167259 7.6493919 5.3652359 7.9179688 5.4101562 L 8.3730469 16.572266 C 8.1691672 16.611809 7.9720132 16.653488 7.7890625 16.699219 C 7.7801228 16.701453 7.7725587 16.704783 7.7636719 16.707031 L 7.1542969 5.2636719 z M 17.001953 5.2636719 L 16.392578 16.707031 C 16.383691 16.704783 16.376127 16.701453 16.367188 16.699219 C 16.184237 16.653488 15.987083 16.611809 15.783203 16.572266 L 16.238281 5.4101562 C 16.506858 5.3652362 16.763085 5.3167252 17.001953 5.2636719 z M 8.40625 5.4863281 C 8.7261482 5.5310471 9.0601138 5.5688191 9.4101562 5.6015625 L 9.6855469 16.376953 C 9.3937822 16.408416 9.1162747 16.448023 8.8496094 16.490234 L 8.40625 5.4863281 z M 15.75 5.4863281 L 15.306641 16.490234 C 15.039975 16.448023 14.762468 16.408416 14.470703 16.376953 L 14.746094 5.6015625 C 15.096136 5.5688194 15.430102 5.5310475 15.75 5.4863281 z M 9.8652344 5.640625 C 10.245752 5.669354 10.641106 5.689526 11.046875 5.703125 L 11.138672 16.273438 C 10.792858 16.286922 10.456979 16.308397 10.132812 16.335938 L 9.8652344 5.640625 z M 14.291016 5.640625 L 14.023438 16.335938 C 13.699271 16.308397 13.363392 16.286922 13.017578 16.273438 L 13.109375 5.703125 C 13.515144 5.689526 13.910498 5.669354 14.291016 5.640625 z M 11.453125 5.7148438 C 11.659234 5.7189737 11.867319 5.7226562 12.078125 5.7226562 C 12.288931 5.7226562 12.497016 5.7189738 12.703125 5.7148438 L 12.615234 16.259766 C 12.438214 16.255881 12.259174 16.253906 12.078125 16.253906 C 11.897076 16.253906 11.718036 16.255881 11.541016 16.259766 L 11.453125 5.7148438 z M 12.078125 16.632812 C 12.266515 16.632812 12.452801 16.636326 12.636719 16.640625 L 12.632812 17.162109 C 12.450138 17.158013 12.265107 17.154297 12.078125 17.154297 C 11.891143 17.154297 11.706112 17.158013 11.523438 17.162109 L 11.517578 16.640625 C 11.702122 16.636297 11.889076 16.632812 12.078125 16.632812 z M 11.142578 16.654297 L 11.146484 17.173828 C 10.78039 17.187841 10.425718 17.208638 10.083984 17.238281 L 10.072266 16.720703 C 10.415535 16.689913 10.772924 16.668973 11.142578 16.654297 z M 13.013672 16.654297 C 13.383326 16.668973 13.740715 16.689913 14.083984 16.720703 L 14.072266 17.238281 C 13.730532 17.208638 13.37586 17.187841 13.009766 17.173828 L 13.013672 16.654297 z M 9.6953125 16.757812 L 9.7089844 17.273438 C 9.3860541 17.307627 9.0793008 17.351119 8.7871094 17.398438 L 8.765625 16.884766 C 9.0571305 16.835844 9.3690405 16.793516 9.6953125 16.757812 z M 14.460938 16.757812 C 14.786519 16.79344 15.097703 16.835974 15.388672 16.884766 L 15.369141 17.398438 C 15.076949 17.351119 14.770196 17.307627 14.447266 17.273438 L 14.460938 16.757812 z M 8.3886719 16.953125 L 8.4101562 17.464844 C 8.1928786 17.506238 7.9829168 17.549194 7.7890625 17.597656 C 7.7597079 17.604995 7.73386 17.613607 7.7050781 17.621094 L 7.6777344 17.121094 C 7.7450149 17.102439 7.8096417 17.084208 7.8808594 17.066406 C 8.0401477 17.026591 8.2112167 16.988303 8.3886719 16.953125 z M 15.767578 16.953125 C 15.945033 16.988303 16.116102 17.026591 16.275391 17.066406 C 16.34597 17.084048 16.409849 17.102613 16.476562 17.121094 L 16.451172 17.621094 C 16.42239 17.613607 16.396542 17.604995 16.367188 17.597656 C 16.173333 17.549194 15.963371 17.506238 15.746094 17.464844 L 15.767578 16.953125 z M 7.3066406 17.236328 L 7.3339844 17.726562 C 7.1806045 17.774507 7.0361894 17.823594 6.9042969 17.876953 L 6.875 17.402344 C 6.9997612 17.344852 7.1482624 17.290173 7.3066406 17.236328 z M 16.849609 17.236328 C 17.007284 17.289933 17.154933 17.34512 17.279297 17.402344 L 17.25 17.876953 C 17.11857 17.823842 16.974999 17.774305 16.822266 17.726562 L 16.849609 17.236328 z M 12.078125 17.53125 C 12.264539 17.53125 12.44882 17.534853 12.630859 17.539062 L 12.615234 19.246094 C 12.438209 19.250072 12.259271 19.253906 12.078125 19.253906 C 11.89698 19.253906 11.718041 19.250072 11.541016 19.246094 L 11.525391 17.539062 C 11.70743 17.534853 11.891711 17.53125 12.078125 17.53125 z M 11.150391 17.550781 L 11.164062 19.234375 C 10.809288 19.220624 10.465554 19.2005 10.134766 19.171875 L 10.09375 17.617188 C 10.432899 17.587139 10.785676 17.565133 11.150391 17.550781 z M 13.005859 17.550781 C 13.370574 17.565133 13.723351 17.587139 14.0625 17.617188 L 14.021484 19.171875 C 13.690696 19.2005 13.346962 19.220624 12.992188 19.234375 L 13.005859 17.550781 z M 6.5097656 17.613281 L 6.5390625 18.048828 C 6.5101021 18.064547 6.4804126 18.079575 6.453125 18.095703 C 6.4434623 18.101414 6.4357254 18.106949 6.4277344 18.113281 L 6.4003906 17.703125 A 0.1889765 0.1889765 0 0 0 6.4042969 17.699219 C 6.4332663 17.671255 6.4700805 17.642735 6.5097656 17.613281 z M 17.646484 17.613281 C 17.688145 17.644201 17.725982 17.673861 17.755859 17.703125 L 17.726562 18.113281 C 17.718906 18.107301 17.712292 18.101121 17.703125 18.095703 C 17.675837 18.079575 17.646148 18.064547 17.617188 18.048828 L 17.646484 17.613281 z M 9.71875 17.654297 L 9.7558594 19.136719 C 9.4388826 19.103102 9.1385711 19.061696 8.8535156 19.015625 L 8.8027344 17.777344 C 9.0908628 17.729747 9.3972281 17.68906 9.71875 17.654297 z M 14.4375 17.654297 C 14.759022 17.68906 15.065387 17.729747 15.353516 17.777344 L 15.302734 19.015625 C 15.017679 19.061696 14.717368 19.103102 14.400391 19.136719 L 14.4375 17.654297 z M 8.4257812 17.845703 L 8.4707031 18.947266 C 8.2636744 18.907658 8.0640423 18.866101 7.8808594 18.820312 C 7.8410748 18.810368 7.8061472 18.7993 7.7675781 18.789062 L 7.7265625 18.007812 C 7.7785186 17.99372 7.8266342 17.9784 7.8808594 17.964844 C 8.0509398 17.922325 8.2350587 17.882913 8.4257812 17.845703 z M 15.730469 17.845703 C 15.921191 17.882913 16.10531 17.922325 16.275391 17.964844 C 16.329616 17.9784 16.377731 17.99372 16.429688 18.007812 L 16.388672 18.789062 C 16.350103 18.7993 16.315175 18.810368 16.275391 18.820312 C 16.092209 18.866101 15.892575 18.907658 15.685547 18.947266 L 15.730469 17.845703 z M 7.3554688 18.119141 L 7.3847656 18.677734 C 7.2227129 18.624816 7.074958 18.568494 6.9453125 18.511719 L 6.9316406 18.279297 C 7.0563922 18.224086 7.2000065 18.170808 7.3554688 18.119141 z M 16.800781 18.119141 C 16.956244 18.170808 17.099858 18.224086 17.224609 18.279297 L 17.210938 18.511719 C 17.081292 18.568494 16.933538 18.624816 16.771484 18.677734 L 16.800781 18.119141 z " /></svg>
