<?xml version="1.0" encoding="UTF-8" standalone="no"?>
<svg height="50" viewBox="0 0 180 50" fill="none" version="1.1" id="svg8" width="180" xmlns="http://www.w3.org/2000/svg" xmlns:svg="http://www.w3.org/2000/svg">
  <rect style="fill:#d0d0d0;stroke:#ddbb00;stroke-width:2;stroke-linecap:round" id="edge" width="178" height="48" x="1" y="1" rx="10" ry="10" />
  <path id="coffee" style="stroke:none;fill:#ddbb00" d="m 29.727705,24.784695 c -1.900285,0 -1.9269,-0.265633 -1.9269,-0.265633 l 1.068006,10.96545 c 0.197481,2.027474 1.109113,1.865251 3.964272,1.865251 2.85516,0 3.80356,-0.163712 3.96424,-1.86579 L 37.94212,23.357747 c 0,0 -9.86e-4,-0.293008 -1.622037,-0.293008 -1.621118,0 -4.692093,1.719956 -6.592378,1.719956 z" />
  <path id="cup" style="fill:none;stroke:#a0a0a0;stroke-width:1.6;stroke-linecap:round" d="M 39.912328,20.27232 38.39189,35.483694 c -0.277787,2.779278 -1.22057,3.433367 -5.5431,3.433367 -4.322531,0 -5.251052,-0.593934 -5.5431,-3.433367 l -1.305773,-12.69555 m 10.638534,-9.298788 c -2.997503,0.534595 -10.961535,0.339838 -10.961535,-1.125003 0,-1.464838 13.189224,-1.995976 13.627526,0.161113 l 0.742673,3.654851 c -4.255039,0.816693 -8.812082,1.063475 -14.952422,0 -0.198204,-0.03433 -1.108949,-0.232821 -1.49632,1.706711 -0.191599,0.959228 -0.242005,2.099011 1.825958,2.385292 4.798325,0.664262 9.559092,0.684116 14.487997,0 2.45103,-0.340199 2.376211,-1.183452 2.178828,-2.385292 -0.331084,-2.015866 -2.044041,-1.706711 -2.044041,-1.706711" />
  <path id="buymeacoffee" style="fill:none;stroke:#a0a0a0;stroke-width:1.60;stroke-linecap:round" d="m 140.44056,18.801361 v 0 m -5.13904,-0.05062 v 0 m -12.11352,3.981881 -0.32409,2.158489 c 0,0 0.49633,-2.586579 -1.15209,-2.586579 -1.90958,0 -3.32947,7.557168 -0.0576,7.557168 2.3003,0 4.48718,-2.475641 4.49201,-3.941878 0,0 0.67196,-3.947271 3.87703,-3.088479 -4.33764,-1.162269 -5.40286,7.051252 -1.70053,7.051252 4.6358,0 4.44361,-8.636728 1.70691,-7.056687 -1.57528,0.909483 -0.26593,6.98773 4.4744,4.250892 0.36352,-0.209866 0.53169,-5.550704 0.79751,-8.326059 -0.7799,8.328655 -2.54339,17.119916 0.30664,17.119916 2.60185,0 2.55565,-7.389473 -1.43868,-6.319192 2.12651,-0.268515 4.35249,-1.265885 5.55111,-2.464525 0.21927,-0.21927 0.47997,-5.52372 0.71997,-8.28558 -0.71819,8.286359 -2.39852,17.069297 0.35553,17.069297 2.52674,0 2.74479,-7.37399 -1.51219,-6.323484 1.74595,-0.09389 4.68983,-0.962757 5.68334,-2.696205 3.27842,0.878452 4.3781,-4.436287 2.26735,-4.436287 -2.41045,0 -3.74816,8.063781 -0.50944,8.05759 2.78675,-0.0053 4.11171,-3.63624 4.11171,-3.63624 3.26754,0.875527 4.39475,-4.460435 2.22927,-4.460435 -2.43253,0 -3.75789,8.015244 -0.60684,8.015244 2.9474,0 3.98001,-3.070922 4.03459,-3.414411 m -33.62997,-2.085318 v 0 m -10.99902,-0.999967 c 0,0 -0.98784,-1.232043 -2.35348,-1.232043 -2.48053,0 -3.84972,6.835318 -1.36127,6.835318 3.15145,0 4.07304,-6.461278 4.07304,-6.461278 0,0 -2.63714,6.947235 0.58777,6.955703 1.69341,0.0044 2.75126,-3.016269 2.75126,-3.487982 m -3.33903,-3.467721 v 0 m -28.785876,0.03123 c 0.568193,2.746653 -0.09138,7.207969 -0.09138,7.207969 0,0 0.866156,-7.635704 3.403702,-7.635704 3.117668,0 1.777755,6.773616 1.777755,6.773616 0,0 0.803067,-6.791691 3.331808,-6.791691 3.438105,0 -0.926123,7.568563 2.197524,7.568563 2.050253,0 2.869979,-3.231342 2.869979,-3.231342 3.956648,0 3.910218,-4.583655 2.258313,-4.583655 -2.807579,0 -3.588927,8.206111 -0.36161,8.206111 2.938255,0 3.807375,-3.772097 3.807375,-3.772097 m -14.103389,2.604111 v 0 m -5.181457,0.862088 v 0 m -7.161063,-7.080838 v 0 m -5.688368,-0.385213 v 0 m -3.457361,-0.08571 v 0 m -4.230789,0.150811 c 0,0 -2.211588,7.143474 0.398642,7.143474 2.61023,0 3.832147,-7.294285 3.832147,-7.294285 0,0 -1.883954,6.880922 0.347974,6.880922 2.231993,0 3.109387,-6.795214 3.109387,-6.795214 0,0 -2.455696,6.509488 0.754074,6.509488 3.20977,0 4.934294,-6.124275 4.934294,-6.124275 0,0 -0.865991,4.792492 -0.589748,6.791974 0.276243,1.999479 -0.385006,6.520846 -2.355378,6.520846 -1.970405,0 -1.068664,-4.731443 2.357941,-6.489075 3.426605,-1.757629 3.561983,-2.755121 3.561983,-2.755121 M 53.987915,20.126293 c 1.150581,-0.856765 5.310986,-2.125052 5.310986,1.377703 0,2.649582 -3.809967,3.047807 -5.72586,2.813882 l -0.05964,0.602304 c 4.943527,-1.572 6.625301,-0.559811 6.625301,2.036918 0,1.35715 -3.653855,4.514514 -7.01793,1.929874 m 0.998313,-10.085869 -1.084107,10.95237" />
</svg>
