<?xml version="1.0" encoding="UTF-8" standalone="no"?>
<svg
   height="30px"
   viewBox="0 0 4169 913"
   fill="none"
   version="1.1"
   id="svg8"
   sodipodi:docname="BMC2.svg"
   inkscape:version="1.1.2 (0a00cf5339, 2022-02-04)"
   xmlns:inkscape="http://www.inkscape.org/namespaces/inkscape"
   xmlns:sodipodi="http://sodipodi.sourceforge.net/DTD/sodipodi-0.dtd"
   xmlns="http://www.w3.org/2000/svg"
   xmlns:svg="http://www.w3.org/2000/svg">
  <defs
     id="defs12" />
  <sodipodi:namedview
     id="namedview10"
     pagecolor="#ffffff"
     bordercolor="#666666"
     borderopacity="1.0"
     inkscape:pageshadow="2"
     inkscape:pageopacity="0.0"
     inkscape:pagecheckerboard="0"
     showgrid="false"
     inkscape:snap-smooth-nodes="true"
     showguides="true"
     inkscape:guide-bbox="true"
     inkscape:object-paths="true"
     inkscape:snap-global="true"
     inkscape:zoom="3.2317989"
     inkscape:cx="2072.8393"
     inkscape:cy="22.897464"
     inkscape:window-width="1920"
     inkscape:window-height="1080"
     inkscape:window-x="0"
     inkscape:window-y="0"
     inkscape:window-maximized="1"
     inkscape:current-layer="svg8" />
  <path
     d="m 219.131,451.719 c -58.86867,0 -59.693,-8.229 -59.693,-8.229 l 33.08571,339.69508 c 6.11743,62.80846 34.3584,57.78292 122.80738,57.78292 88.44898,0 117.82947,-5.07152 122.80739,-57.79962 L 473.603,407.514 c 0,0 -0.0292,-9.077 -50.249,-9.077 -50.2198,0 -145.35433,53.282 -204.223,53.282 z"
     fill="#ffdd00"
     id="path4"
     sodipodi:nodetypes="zcszsczz"
     style="display:inline" />
  <path
     id="path13041"
     style="font-variation-settings:normal;opacity:1;fill:none;fill-opacity:1;stroke:#000000;stroke-width:50.9758;stroke-linecap:round;stroke-linejoin:bevel;stroke-miterlimit:4;stroke-dasharray:none;stroke-dashoffset:0;stroke-opacity:1;stop-color:#000000;stop-opacity:1"
     d="m 534.63675,311.9316 -47.10063,471.22806 c -8.60579,86.09839 -37.81214,106.36117 -171.71812,106.36117 -133.90597,0 -162.67098,-18.39934 -171.71811,-106.36117 L 103.64877,389.86849 M 433.2165,101.80447 C 340.35802,118.36544 93.642633,112.33211 93.642633,66.953333 c 0,-45.378774 408.584597,-61.8326618 422.163017,4.991067 l 23.00653,113.22244 c -131.81528,25.30005 -272.98632,32.94496 -463.205635,0 -6.140048,-1.06342 -34.354145,-7.21251 -46.354284,52.87157 -5.934884,29.71565 -7.496436,65.02458 56.56618,73.89319 148.645619,20.57798 296.127949,21.19293 448.818309,0 75.93029,-10.53888 73.61168,-36.66173 67.49702,-73.89319 -10.25619,-62.44877 -63.32159,-52.87157 -63.32159,-52.87157" />
  <path
     id="path29293-6-2"
     style="font-variation-settings:normal;fill:none;fill-opacity:1;stroke:#000000;stroke-width:50.9758;stroke-linecap:round;stroke-linejoin:miter;stroke-miterlimit:4;stroke-dasharray:none;stroke-dashoffset:0;stroke-opacity:1;stop-color:#000000"
     d="m 3648.8673,266.36326 v 0 m -159.1998,-1.56811 v 0 m -375.2613,123.35334 -10.0399,66.86712 c 0,0 15.3759,-80.12878 -35.6899,-80.12878 -59.1568,0 -103.1429,234.11104 -1.7857,234.11104 71.2602,0 139.0065,-76.69206 139.1564,-122.11415 0,0 20.817,-122.28118 120.1051,-95.67701 -134.3742,-36.00546 -167.3732,218.43841 -52.6801,218.43841 143.6112,0 137.6574,-267.55429 52.8777,-218.60673 -48.7997,28.17455 -8.238,216.47048 138.6113,131.68697 11.2607,-6.50138 16.4709,-171.95347 24.7064,-257.93021 -24.1609,258.01062 -78.7919,530.35212 9.4984,530.35212 80.6019,0 79.1709,-228.91601 -44.5685,-195.76013 65.877,-8.31819 134.8346,-39.21543 171.9668,-76.34766 6.7927,-6.7927 14.8687,-171.11748 22.3031,-256.67622 -22.2489,256.70034 -74.303,528.78401 11.0142,528.78401 78.2752,0 85.0297,-228.43629 -46.8453,-195.89309 54.0868,-2.90872 145.2844,-29.82487 176.0618,-83.52483 101.5612,27.21323 135.628,-137.43024 70.2401,-137.43024 -74.6726,0 -116.114,249.80512 -15.7827,249.61344 86.3301,-0.16493 127.3757,-112.64597 127.3757,-112.64597 101.2234,27.12273 136.1438,-138.17826 69.0593,-138.17826 -75.3559,0 -116.4142,248.30155 -18.7987,248.30155 91.3061,0 123.2956,-95.13309 124.9866,-105.77388 m -1041.812,-64.60038 v 0 m -340.7347,-30.9776 c 0,0 -30.602,-38.1671 -72.9075,-38.1671 -76.8442,0 -119.2596,211.74906 -42.1705,211.74906 97.6271,0 126.1771,-200.16183 126.1771,-200.16183 0,0 -81.695,215.21608 18.2082,215.47844 52.46,0.13777 85.2309,-93.44003 85.2309,-108.053 M 2774.7307,397.45814 v 0 m -891.7484,0.9676 c 17.6026,85.08764 -2.8303,223.29323 -2.8303,223.29323 0,0 26.8324,-236.54393 105.4423,-236.54393 96.5813,0 55.0722,209.83761 55.0722,209.83761 0,0 24.8781,-210.39753 103.2147,-210.39753 106.5078,0 -28.6903,234.464 68.0763,234.464 63.5144,0 88.9079,-100.10272 88.9079,-100.10272 122.5726,0 121.1338,-141.99548 69.9602,-141.99548 -86.9757,0 -111.1808,254.21435 -11.2025,254.21435 91.023,0 117.9474,-116.8545 117.9474,-116.8545 m -436.904,80.67188 v 0 m -160.5145,26.70632 v 0 M 1658.3112,402.364 v 0 m -176.2181,-11.93337 v 0 m -107.104,-2.65513 v 0 m -131.0642,4.67195 c 0,0 -68.5115,221.29534 12.3498,221.29534 80.8614,0 118.7144,-225.96729 118.7144,-225.96729 0,0 -58.362,213.16179 10.7795,213.16179 69.1445,0 96.3245,-210.50666 96.3245,-210.50666 0,0 -76.0742,201.65525 23.3606,201.65525 99.4349,0 152.8575,-189.72188 152.8575,-189.72188 0,0 -26.8269,148.46508 -18.2691,210.40632 8.5579,61.94124 -11.9268,202.00721 -72.9669,202.00721 -61.0402,0 -33.1054,-146.5739 73.046,-201.02296 106.1515,-54.44904 110.3452,-85.34998 110.3452,-85.34998 M 970.68029,307.40788 c 35.64281,-26.54138 164.52701,-65.83121 164.52701,42.67937 0,82.08059 -118.0281,94.41696 -177.38012,87.17038 l -1.8469,18.65849 c 153.14412,-48.69846 205.24242,-17.34211 205.24242,63.10099 0,42.04278 -113.1913,139.8536 -217.40623,59.785 m 30.92739,-312.44682 -33.58443,339.28978" />
</svg>
