<?xml version="1.0" encoding="UTF-8" standalone="no"?>
<svg
   height="310.93729"
   viewBox="0 0 1121.1812 9462.8581"
   fill="none"
   version="1.1"
   id="svg8"
   sodipodi:docname="BMC3.svg"
   inkscape:version="1.1.2 (0a00cf5339, 2022-02-04)"
   width="1121.1812"
   xmlns:inkscape="http://www.inkscape.org/namespaces/inkscape"
   xmlns:sodipodi="http://sodipodi.sourceforge.net/DTD/sodipodi-0.dtd"
   xmlns="http://www.w3.org/2000/svg"
   xmlns:svg="http://www.w3.org/2000/svg">
  <defs
     id="defs12">
    <clipPath
       clipPathUnits="userSpaceOnUse"
       id="clipPath2122">
      <rect
         style="fill:#ffdd00;fill-opacity:1;stroke-width:60.0001;stroke-linecap:round;stroke-linejoin:round;stroke-opacity:0"
         id="rect2124"
         width="251.31606"
         height="53.610348"
         x="-118.47802"
         y="70.771202"
         rx="0"
         ry="0" />
    </clipPath>
  </defs>
  <sodipodi:namedview
     id="namedview10"
     pagecolor="#ffffff"
     bordercolor="#666666"
     borderopacity="1.0"
     inkscape:pageshadow="2"
     inkscape:pageopacity="0.0"
     inkscape:pagecheckerboard="0"
     showgrid="false"
     inkscape:snap-smooth-nodes="true"
     showguides="true"
     inkscape:guide-bbox="true"
     inkscape:object-paths="true"
     inkscape:snap-global="true"
     inkscape:zoom="0.22587819"
     inkscape:cx="535.68696"
     inkscape:cy="243.49407"
     inkscape:window-width="1920"
     inkscape:window-height="1080"
     inkscape:window-x="0"
     inkscape:window-y="0"
     inkscape:window-maximized="1"
     inkscape:current-layer="svg8" />
  <rect
     style="display:inline;fill:#ffffff;fill-opacity:1;stroke:#ffdd00;stroke-width:304.333;stroke-linecap:round;stroke-linejoin:round;stroke-miterlimit:4;stroke-dasharray:none;stroke-opacity:1"
     id="rect858"
     width="33816.945"
     height="9158.5254"
     x="-16347.883"
     y="152.1665"
     rx="1725.3542"
     ry="1725.3542" />
  <path
     d="m -10846.344,4690.6691 c -359.644,0 -364.68,-50.2731 -364.68,-50.2731 l 202.129,2075.2851 c 37.373,383.7131 209.904,353.0108 750.262,353.0108 540.3584,0 719.8514,-30.9832 750.2624,-353.1128 l 216.662,-2294.9698 c 0,0 -0.178,-55.4537 -306.984,-55.4537 -306.806,0 -888.0074,325.5135 -1247.6514,325.5135 z"
     fill="#ffdd00"
     id="path4"
     sodipodi:nodetypes="zcszsczz"
     style="display:inline;stroke-width:6.10926" />
  <path
     id="path13041"
     style="font-variation-settings:normal;fill:none;fill-opacity:1;stroke:#000000;stroke-width:304.333;stroke-linecap:round;stroke-linejoin:bevel;stroke-miterlimit:4;stroke-dasharray:none;stroke-dashoffset:0;stroke-opacity:1;stop-color:#000000"
     d="m -8918.8376,3836.6717 -287.75,2878.8541 c -52.575,525.9973 -231.004,649.7879 -1049.0704,649.7879 -818.066,0 -993.799,-112.4063 -1049.07,-649.7879 l -247.127,-2402.7175 m 2013.4154,-1759.8576 c -567.2974,101.1753 -2074.5454,64.3161 -2074.5454,-212.9146 0,-277.2306 2496.1494,-377.7517 2579.1034,30.4917 l 140.553,691.7052 c -805.294,154.5645 -1667.7444,201.2693 -2829.8434,0 -37.511,-6.4967 -209.878,-44.0631 -283.19,323.0061 -36.258,181.5406 -45.798,397.252 345.577,451.4326 908.115,125.7162 1809.1224,129.4731 2741.9474,0 463.878,-64.3847 449.713,-223.976 412.357,-451.4326 -62.658,-381.5157 -386.848,-323.0061 -386.848,-323.0061" />
  <path
     id="path29293-6-2"
     style="font-variation-settings:normal;fill:none;fill-opacity:1;stroke:#000000;stroke-width:304.333;stroke-linecap:round;stroke-linejoin:miter;stroke-miterlimit:4;stroke-dasharray:none;stroke-dashoffset:0;stroke-opacity:1;stop-color:#000000"
     d="m 10106.802,3558.2829 v 0 m -972.5926,-9.58 v 0 m -2292.568,753.5975 -61.337,408.5085 c 0,0 93.936,-489.5274 -218.038,-489.5274 -361.405,0 -630.127,1430.2449 -10.91,1430.2449 435.347,0 849.227,-468.5316 850.143,-746.027 0,0 127.176,-747.0473 733.753,-584.5156 -820.927,-219.9666 -1022.526,1334.4968 -321.836,1334.4968 877.358,0 840.984,-1634.5584 323.043,-1335.5251 -298.13,172.1256 -50.328,1322.4742 846.812,804.5098 68.795,-39.7186 100.625,-1050.5082 150.938,-1575.7624 -147.605,1576.2537 -481.36,3240.0583 58.028,3240.0583 492.418,0 483.676,-1398.5071 -272.28,-1195.9493 402.46,-50.8179 823.739,-239.5772 1050.59,-466.4275 41.4976,-41.4984 90.8356,-1045.401 136.2546,-1568.1015 -135.9236,1568.2488 -453.9356,3230.4783 67.289,3230.4783 478.203,0 519.468,-1395.5764 -286.1906,-1196.7615 330.4306,-17.7702 887.5796,-182.2079 1075.6076,-510.2748 620.463,166.2526 828.586,-839.5969 429.114,-839.5969 -456.194,0 -709.37,1526.1241 -96.42,1524.953 527.413,-1.0076 778.171,-688.1833 778.171,-688.1833 618.4,165.6998 831.738,-844.1668 421.901,-844.1668 -460.369,0 -711.204,1516.9384 -114.846,1516.9384 557.813,0 753.245,-581.1926 763.575,-646.1999 M 6780.3044,4710.8089 v 0 m -2081.636,-189.2502 c 0,0 -186.955,-233.1726 -445.411,-233.1726 -469.461,0 -728.587,1293.6297 -257.63,1293.6297 596.429,0 770.848,-1222.8404 770.848,-1222.8404 0,0 -499.096,1314.8107 111.239,1316.4136 320.492,0.8416 520.698,-570.8493 520.698,-660.1238 m -631.937,-656.2898 v 0 m -5447.92101,5.9114 c 107.539,519.8224 -17.291,1364.1561 -17.291,1364.1561 0,0 163.926,-1445.1081 644.174001,-1445.1081 590.039999,0 336.449999,1281.9522 336.449999,1281.9522 0,0 151.987,-1285.3729 630.566,-1285.3729 650.68301,0 -175.277,1432.4012 415.89501,1432.4012 388.026,0 543.162,-611.5533 543.162,-611.5533 748.827,0 740.037,-867.4872 427.405,-867.4872 -531.357,0 -679.233,1553.0612 -68.439,1553.0612 556.083,0 720.571,-713.8943 720.571,-713.8943 M 281.88739,5566.087 v 0 m -980.624,163.1559 v 0 M -2054.0196,4389.1466 v 0 m -1076.562,-72.904 v 0 m -654.326,-16.2209 v 0 m -800.705,28.5421 c 0,0 -418.555,1351.9505 75.448,1351.9505 494.003,0 725.257,-1380.4926 725.257,-1380.4926 0,0 -356.549,1302.2605 65.855,1302.2605 422.421,0 588.471,-1286.0396 588.471,-1286.0396 0,0 -464.757,1231.9641 142.716,1231.9641 607.473,0 933.846,-1159.0601 933.846,-1159.0601 0,0 -163.893,907.0116 -111.611,1285.4266 52.283,378.4151 -72.864,1234.1143 -445.773,1234.1143 -372.911,0 -202.25,-895.4578 446.257,-1228.1012 648.506,-332.6433 674.127,-521.4251 674.127,-521.4251 m -4763.915,-1350.1261 c 217.751,-162.1481 1005.138,-402.1799 1005.138,260.7393 0,501.4516 -721.064,576.8177 -1083.661,532.5464 l -11.283,113.9896 c 935.597,-297.5115 1253.879,-105.9475 1253.879,385.5003 0,256.8502 -691.515,854.4018 -1328.191,365.242 m 188.943,-1908.8185 -205.176,2072.8091" />
</svg>
