<?xml version="1.0" encoding="UTF-8" standalone="no"?>
<svg xmlns="http://www.w3.org/2000/svg" xmlns:svg="http://www.w3.org/2000/svg" width="100%" height="100%" viewBox="0 0 100 100" version="1.1" id="svg16370">
  <circle style="fill:#f7ef27;stroke:none;" cx="50" cy="50" r="50"/>
  <circle style="fill:#003982;stroke:none;" cx="50" cy="50" r="37.5"/>
  <path style="fill:#003982" d="m 50,9.305677 -4.27726,-6.422344 h 8.55659 z"/>
  <path style="fill:#003982" d="m 90.577658,50 6.42235,-4.27726 v 8.55659 z"/>
  <path style="fill:#003982" d="m 9.305668,50 -6.42235,4.27726 v -8.55659 z"/>
  <path style="fill:#003982" d="m 50,90.694327 4.27726,6.42234 h -8.55659 z"/>
  <path style="fill:#ffffff;stroke:none;" d="m 47.356818,27.086855 c -0.0149,-3.8e-4 -0.13778,0.18581 -0.26737,0.41758 v 0.007 c -0.13443,0.22715 -0.26066,0.45482 -0.28487,0.50033 -0.0335,0.0592 -0.002,0.12847 0.12326,0.29269 l 0.16943,0.21151 -0.12139,1.41438 -0.1173,1.41054 -0.88519,0.44838 c -0.48484,0.24614 -0.89546,0.48037 -0.91021,0.52148 -0.0298,0.0775 -2.66672,1.94032 -2.74027,1.93396 -0.0223,-5.6e-4 -1.23101,-0.72983 -2.67864,-1.61643 l -2.63057,-1.61453 -0.0149,-0.30014 -0.0149,-0.30014 -0.17502,-0.004 -0.18097,-0.004 -0.0112,0.57536 c -0.007,0.31764 -0.0112,1.36217 -0.0112,2.32458 0.007,1.13751 -0.007,1.75462 -0.0387,1.77231 -0.0261,0.0186 -0.48544,0.62724 -1.01411,1.36053 l -0.96986,1.33163 -0.25396,-0.0186 c -0.23907,-0.0186 -0.25583,-0.0186 -0.27706,0.0905 -0.0223,0.11469 -0.0223,0.11395 0.77165,0.26178 0.43557,0.0834 0.81563,0.16385 0.84288,0.18284 0.0335,0.0186 -0.0298,0.33998 -0.1847,0.91598 -0.20853,0.81462 -0.21858,0.89174 -0.15007,0.94868 0.0406,0.0335 0.07,0.11804 0.073,0.18284 -0.002,0.11953 0.004,0.12363 0.20406,0.11916 0.18471,-0.007 0.20035,-0.007 0.13853,0.0518 -0.20704,0.18842 -6.11102,4.9982 -6.13861,4.99749 -0.0149,-3.4e-4 -0.0637,-0.0335 -0.1039,-0.0711 -0.0722,-0.0663 -0.0815,-0.0499 -0.1173,0.27705 -0.0186,0.19289 -0.0395,0.49251 -0.0499,0.6581 -0.0223,0.57053 -0.0529,0.56371 -0.30795,-0.0384 -0.13108,-0.30237 -0.26439,-0.61733 -0.30387,-0.69661 l -0.0752,-0.1538 -0.30386,0.40601 c -0.34706,0.46596 -0.78185,0.87074 -1.0045,0.93907 -0.083,0.0223 -0.61733,0.0763 -1.18927,0.11357 -1.51286,0.1065 -1.9398,0.2037 -2.36688,0.5388 -0.16906,0.13406 -0.44913,0.48581 -0.41759,0.52342 0.0149,0.0112 0.11581,-0.0223 0.22715,-0.0693 0.49776,-0.20928 0.98007,-0.30796 1.50483,-0.30014 0.58918,0.0112 0.78982,0.0659 1.56832,0.4349 0.48267,0.2279 0.53354,0.24354 0.77358,0.21747 0.2953,-0.0298 0.97027,-0.18507 1.37397,-0.31354 0.15305,-0.0469 0.28301,-0.0752 0.29641,-0.0615 0.0335,0.0335 -0.32024,1.07011 -0.59461,1.75887 -0.50454,1.26799 -1.01224,2.10748 -2.01287,3.31753 -0.27072,0.3344 -0.56479,0.69896 -0.6504,0.81205 -0.1523,0.20816 -0.15789,0.21338 -1.16037,0.54844 -0.55254,0.18954 -1.06679,0.3385 -1.14499,0.33663 -0.10539,-0.004 -0.14263,0.0186 -0.1538,0.0983 -0.007,0.0596 -0.0112,0.10539 -0.004,0.10986 0.007,2.2e-4 0.97288,0.14224 2.14752,0.31764 l 2.13217,0.31354 0.0186,0.41565 c 0.0112,0.22604 0.0186,0.57991 0.0186,0.78706 l -0.007,0.38296 -0.2521,-0.004 c -0.23013,-0.007 -0.25769,-0.0186 -0.3195,-0.14635 -0.0395,-0.0793 -0.0979,-0.13927 -0.13481,-0.14039 -0.0372,-10e-4 -0.16906,-0.0261 -0.302,-0.0577 l -0.23869,-0.0558 0.0424,-0.36382 c 0.0335,-0.33514 0.007,-0.45106 -0.0789,-0.3195 -0.057,0.086 -0.11693,0.0428 -0.11358,-0.0905 9.7e-4,-0.11544 -0.0112,-0.1281 -0.11171,-0.10762 -0.0827,0.0112 -0.1173,0.0473 -0.11917,0.1214 -8.5e-4,0.06 -0.0372,0.11804 -0.0771,0.1307 -0.0559,0.0224 -0.0708,0.0734 -0.0596,0.18843 0.0149,0.17539 0.007,0.18284 -0.16757,0.10985 l -0.11916,-0.0499 -0.007,0.27147 c -0.007,0.26662 -0.0112,0.27221 -0.15007,0.29641 -0.0782,0.0112 -0.17576,0.0223 -0.20779,0.0223 -0.092,-0.002 -0.0726,-0.18693 0.0443,-0.36381 0.0529,-0.0815 0.0875,-0.17688 0.0752,-0.20965 -0.0224,-0.0789 -0.47658,-0.7248 -0.50417,-0.72547 -0.0149,-4.1e-4 -0.083,0.0387 -0.15789,0.0924 l -0.13666,0.0905 0.004,-0.15789 c 0.002,-0.0968 -0.0298,-0.1888 -0.0868,-0.24056 -0.0901,-0.0853 -0.089,-0.0801 -0.0924,0.054 -0.004,0.11023 -0.0473,0.17316 -0.17688,0.27147 l -0.16944,0.13294 0.29456,0.37715 c 0.29492,0.37547 0.30013,0.37871 0.3329,0.75243 0.0186,0.20779 0.0406,0.38891 0.0499,0.39833 0.007,0.007 0.21003,0.0551 0.44835,0.10203 0.23832,0.0484 0.45065,0.0968 0.46376,0.1173 0.0186,0.0186 0.31131,0.77564 0.65815,1.68186 l 0.63308,1.65106 0.77165,0.45032 c 0.42689,0.24987 0.77585,0.46525 0.77551,0.47914 -5.2e-4,0.0149 -0.25098,0.10427 -0.56188,0.19811 -0.3061,0.0942 -0.58389,0.18432 -0.61197,0.2022 -0.0335,0.0186 9.3e-4,0.15714 0.10948,0.41759 0.27444,0.66965 0.44864,1.26303 0.54461,1.86853 0.007,0.0395 0.0112,0.086 0.0186,0.13293 0.2238,-0.15677 0.45497,-0.30907 0.71009,-0.44454 0.49593,-0.25471 1.21999,-0.28674 1.21999,-0.28674 -0.71255,1.13174 0.17018,2.21932 1.17579,2.52474 0.22343,9.7e-4 0.3694,0.003 0.60422,0.004 0.19141,9.6e-4 0.2279,8.5e-4 0.41372,0.002 1.12347,-0.37871 1.54869,-1.68278 2.59977,-2.24374 0.49597,-0.25471 1.22003,-0.28673 1.22003,-0.28673 -0.74223,1.17713 0.2454,2.31755 1.30854,2.56127 0.24764,0.002 0.53012,0.004 0.76781,0.007 0.0261,-0.007 0.0555,-0.0149 0.0827,-0.0223 1.15099,-0.36083 1.57223,-1.69038 2.63441,-2.25725 0.49597,-0.25471 1.22003,-0.2886 1.22003,-0.2886 -0.79317,1.25801 0.38891,2.47748 1.52791,2.60171 0.10129,5.2e-4 0.23311,9.7e-4 0.34073,0.002 0.099,-0.0112 0.19699,-0.0298 0.29045,-0.0577 1.15099,-0.36083 1.57223,-1.69038 2.63441,-2.25725 0.49597,-0.25471 1.22003,-0.2886 1.22003,-0.2886 -0.9438,1.49686 0.90793,2.93752 2.15716,2.54589 1.15099,-0.36083 1.57222,-1.69038 2.6344,-2.25725 0.49597,-0.25471 1.22197,-0.2886 1.22197,-0.2886 -0.9438,1.49686 0.9079,2.93752 2.15716,2.54589 1.15099,-0.36084 1.57222,-1.69038 2.6344,-2.25726 0.49597,-0.25471 1.22197,-0.28859 1.22197,-0.28859 -0.9438,1.49685 0.9079,2.93752 2.15716,2.54589 1.15099,-0.36084 1.57222,-1.69035 2.6344,-2.25722 0.49598,-0.25471 1.22003,-0.2886 1.22003,-0.2886 -0.66954,1.06188 0.0693,2.09393 1.00066,2.46505 0.0417,-0.12587 0.0935,-0.28003 0.14821,-0.45799 0.22901,-0.71285 0.67174,-1.94085 0.74856,-2.07252 0.0261,-0.0406 0.31242,-0.18768 0.64273,-0.32732 1.53491,-0.64009 2.32715,-1.03444 3.13663,-1.57216 1.42707,-0.94197 2.78186,-2.31426 3.95065,-4.00837 0.15305,-0.22641 0.30014,-0.41241 0.32323,-0.41182 0.0223,5.6e-4 0.0261,0.0149 0.0149,0.0335 -0.0562,0.0491 0.0603,0.15342 0.17501,0.15602 0.0968,0.002 0.1065,-0.0186 0.12699,-0.28673 l 0.0223,-0.28487 2.44777,-2.26299 c 1.34678,-1.24319 2.44869,-2.29476 2.44962,-2.33616 0.003,-0.12885 0.0704,-0.18098 0.43878,-0.36568 0.3586,-0.17539 0.36791,-0.18954 0.0518,-0.0868 l -0.16757,0.0559 -7.06807,-6.49651 c -3.88821,-3.57447 -7.94373,-7.30159 -9.01161,-8.28039 l -1.94166,-1.78579 -0.26365,-0.72931 c -0.14671,-0.39952 -0.25768,-0.73958 -0.24837,-0.74855 0.007,-0.007 0.1415,0.0223 0.29269,0.0637 0.35227,0.10055 0.33775,0.10539 0.32322,-0.0655 l -0.0112,-0.15379 -1.18729,-0.46953 c -1.02178,-0.40675 -1.18499,-0.48845 -1.21043,-0.58118 -0.0186,-0.0603 -0.0726,-0.80341 -0.12139,-1.64722 l -0.0924,-1.53175 -0.15193,-0.004 -0.15193,-0.002 -0.007,0.26179 c 0.002,0.14746 0.0149,0.85662 0.0261,1.57989 0.0186,0.72343 0.0298,1.31678 0.0224,1.32583 -0.007,0.004 -0.47222,-0.1065 -1.03529,-0.24428 -1.062,-0.26477 -1.09324,-0.26588 -1.10262,-0.0637 4.1e-4,0.0506 0.0425,0.0931 0.12512,0.11357 0.91542,0.22902 0.85223,0.16348 0.7986,0.86214 -0.0261,0.31727 -0.0577,0.73467 -0.0808,0.92749 l -0.0335,0.34817 -0.64272,0.27519 -0.6408,0.26923 -3.73706,-2.21681 c -4.78523,-2.84082 -4.4,-2.60562 -4.2566,-2.63441 0.10166,-0.0223 0.11656,-0.0514 0.1348,-0.24428 0.0261,-0.26625 0.20183,-0.30498 -1.51253,0.33105 l -1.32009,0.48878 0.0674,-1.27391 0.0637,-1.27391 0.16347,-0.25397 c 0.0912,-0.14038 0.16273,-0.27221 0.16348,-0.29045 2.2e-4,-0.0555 -0.49307,-0.9556 -0.52532,-0.95639 z m 2.51893,4.10459 c 0.0335,0.007 0.0957,0.0406 0.19811,0.0983 0.12698,0.0816 1.84756,1.0999 3.81786,2.2707 l 3.57735,2.12447 -0.12885,0.0674 c -0.28449,0.14039 -1.58194,0.67054 -1.65106,0.67352 -0.041,-0.002 -1.10619,-0.52848 -2.37079,-1.17575 -2.27889,-1.16905 -2.30179,-1.18287 -2.33036,-1.33551 -0.0186,-0.13852 -0.0387,-0.15267 -0.12698,-0.12698 -0.0555,0.0186 -0.17092,0.0335 -0.25396,0.0335 -0.0875,0.002 -0.17167,0.0335 -0.19997,0.073 -0.0402,0.0726 -0.30721,0.20034 -0.33887,0.16757 -0.0186,-0.0186 -0.24018,-2.68534 -0.23683,-2.83262 7.5e-4,-0.0335 0.0112,-0.0473 0.0443,-0.0384 z m -12.8295,0.50417 c 0.0223,0.0149 1.09409,0.66764 2.3785,1.44904 1.28438,0.7814 2.35076,1.43668 2.36882,1.45094 0.0261,0.0335 -3.26123,2.34946 -3.33485,2.34767 -0.0782,-0.003 -1.39296,-1.96829 -1.42591,-2.13023 -0.0451,-0.24056 -0.0298,-3.15071 0.0149,-3.11742 z m 8.57096,0.97563 c 0.0186,4.9e-4 0.0223,0.0871 0.004,0.19253 -0.13481,0.85796 -0.33515,2.26693 -0.32137,2.27647 0.003,0.007 0.34743,-0.10278 0.75627,-0.25397 0.41327,-0.14634 0.75109,-0.25768 0.7601,-0.24837 0.003,0.007 2.2e-4,0.16682 -0.0112,0.34631 l -0.0261,0.32509 -0.90056,0.26364 c -0.50078,0.14449 -0.93013,0.25843 -0.9622,0.24838 -0.11394,-0.0298 -2.02552,-1.21314 -2.01092,-1.24502 0.0186,-0.041 2.66981,-1.90148 2.71137,-1.90509 z m 2.97119,1.41054 c 0.12884,-0.002 0.36716,0.0503 0.54073,0.10986 0.16869,0.0592 0.30647,0.11916 0.3061,0.13294 -3.8e-4,0.0149 -0.42318,0.1873 -0.93907,0.38679 -0.64135,0.24688 -0.94391,0.34519 -0.96603,0.30796 -0.0399,-0.0652 -0.0827,-0.74402 -0.0499,-0.77552 0.0432,-0.0402 0.87818,-0.16236 1.10843,-0.16162 z m 2.07635,0.44455 c 0.0223,2.2e-4 0.0518,0.0149 0.0905,0.0372 0.0685,0.0335 1.02788,0.52573 2.13791,1.09111 1.10526,0.56993 2.01126,1.04847 2.01093,1.06225 -0.001,0.0372 -1.07008,0.40556 -1.92819,0.66582 -0.69121,0.21374 -2.21041,0.62504 -2.22836,0.60616 -0.003,-0.007 -0.06,-0.25508 -0.1173,-0.54651 -0.14746,-0.75872 -0.18768,-1.56485 -0.11171,-2.23994 0.0614,-0.54069 0.0774,-0.6762 0.14634,-0.67542 z m -8.2881,0.42142 c 0.0186,0.0112 0.47218,0.28301 1.0122,0.61384 l 0.002,0.004 0.98141,0.59272 -0.007,0.17129 -0.004,0.16943 0.21151,-0.0406 c 0.1389,-0.0298 0.22678,-0.0261 0.25806,0.007 0.0261,0.0298 -0.12474,0.83562 -0.45802,2.3746 -0.27482,1.28277 -0.52219,2.44612 -0.54841,2.58823 l -0.0577,0.2521 -0.42336,0.12698 c -0.35301,0.10687 -0.4314,0.14672 -0.44261,0.22901 -0.0186,0.10092 -0.0372,0.10092 -0.70238,0.0845 -1.21493,-0.0298 -2.18468,-0.24242 -2.88457,-0.62731 -0.34073,-0.18768 -0.66314,-0.44347 -1.40667,-1.11997 -0.22082,-0.19848 -0.51053,-0.41334 -0.70622,-0.50994 l -0.33104,-0.16943 0.0149,-0.58501 c 0.0112,-0.5016 0.0223,-0.57458 0.0771,-0.52725 0.0495,0.0443 0.0909,0.0506 0.16533,0.007 0.13518,-0.0655 1.88689,0.20556 1.93973,0.30424 0.0223,0.0465 0.0547,0.0521 0.11544,0.0149 0.0562,-0.0372 0.17092,-0.0335 0.37715,0.004 0.16496,0.0261 0.30311,0.0499 0.30795,0.0443 0.004,8e-5 0.0186,-0.0596 0.0402,-0.13294 0.0335,-0.11432 0.0261,-0.12437 -0.0942,-0.12698 -0.0737,-0.003 -0.15491,-0.0223 -0.18656,-0.0406 -0.10427,-0.0667 -0.85659,-1.20398 -0.8236,-1.23541 0.10353,-0.0987 3.55069,-2.48448 3.57348,-2.47469 z m 17.93859,0.24242 c 0.12996,-0.004 0.25322,0.0149 0.40605,0.0577 l 0.2022,0.0559 -0.0149,0.66771 c -0.0112,0.51545 -0.0298,0.66217 -0.0711,0.64273 -0.0335,-0.007 -0.36531,-0.11506 -0.74472,-0.23497 -0.64463,-0.19475 -1.31551,-0.50577 -1.30855,-0.60229 5.6e-4,-0.0223 0.2953,-0.1631 0.6485,-0.31578 0.43033,-0.18246 0.66645,-0.26327 0.88325,-0.27146 z m 1.14306,0.16534 0.17912,0.004 c 0.10128,0.002 0.3303,0.0484 0.51764,0.1039 l 0.004,-0.002 c 0.43419,0.13481 0.64798,0.25099 0.85439,0.47725 0.0946,0.10352 3.20098,2.9679 6.90448,6.36759 3.70351,3.39968 7.66526,7.03623 8.79611,8.0764 l 2.05904,1.89162 -0.12326,0.12512 c -0.0801,0.0808 -0.28078,0.17353 -0.61,0.27146 l -0.48301,0.15007 -1.02375,-0.83901 c -0.55984,-0.46469 -2.08712,-1.70784 -3.39257,-2.76142 -4.14228,-3.34572 -5.77681,-4.71728 -7.98599,-6.68125 -0.80248,-0.71459 -0.82419,-0.73816 -0.6812,-0.74859 0.13853,-0.0112 0.14858,-0.0223 0.12326,-0.1348 -0.0186,-0.0693 -0.0335,-0.12996 -0.0387,-0.1348 -0.003,-0.004 -0.16012,-0.0372 -0.34817,-0.0674 -0.18768,-0.0335 -0.38966,-0.0693 -0.44451,-0.0808 -0.0547,-0.0149 -0.35041,-0.33477 -0.67736,-0.72931 l -0.5773,-0.70428 -0.46764,-1.09882 c -0.25247,-0.60467 -0.45691,-1.10586 -0.45222,-1.11033 0.007,-0.0112 0.21226,0.0298 0.45032,0.0808 0.58174,0.12884 0.55876,0.13294 0.54457,-0.0425 l -0.0149,-0.14821 -1.48751,-0.40794 c -0.81879,-0.22678 -1.50948,-0.41833 -1.5414,-0.43301 -0.0335,-0.007 -0.0585,-0.26252 -0.0655,-0.72353 z m -24.40818,0.40601 c 0.0223,0.0223 0.18656,0.27295 0.36382,0.55808 0.17725,0.2804 0.3907,0.61141 0.4753,0.73314 l 0.14821,0.21561 -0.49262,0.34259 c -0.27147,0.19141 -0.50096,0.3385 -0.50998,0.32919 -0.007,-0.007 -0.0112,-0.51672 -0.0149,-1.11994 -0.004,-0.60791 0.0112,-1.08642 0.0298,-1.05838 z m 21.0098,0.29827 c 0.0186,-0.004 0.36754,0.19327 0.77165,0.43301 0.40865,0.24018 0.7537,0.4505 0.77165,0.46949 0.0335,0.0261 -0.20444,1.32553 -0.24056,1.3663 -0.0223,0.0186 -2.98925,-1.50344 -2.98846,-1.53562 4.8e-4,-0.0223 1.61657,-0.73024 1.68572,-0.73318 z m -21.95274,0.59656 c 0.003,0.004 -0.0562,0.29418 -0.14448,0.63695 h 0.002 c -0.0819,0.34371 -0.15342,0.63081 -0.15379,0.64467 -9.7e-4,0.0335 -0.31317,0.0112 -0.47337,-0.0298 l -0.12885,-0.0298 0.44258,-0.61581 c 0.24316,-0.33924 0.44723,-0.61558 0.45609,-0.60616 z m 19.50501,0.40604 c 0.004,1.1e-4 0.82427,0.4193 1.82042,0.93136 v -0.007 l 1.81465,0.93136 -0.0186,0.15975 c -0.0112,0.0875 -0.0372,0.17986 -0.0518,0.21151 -0.0186,0.0261 -0.33999,0.30424 -0.71587,0.61775 l -0.68123,0.56382 -0.57536,-0.0261 -0.57343,-0.0261 -0.004,0.16162 -0.004,0.16161 0.37126,0.0335 0.37332,0.0335 -1.09495,0.90444 -1.09495,0.89866 -1.89929,-1.0815 c -1.04493,-0.59145 -1.90375,-1.08553 -1.9128,-1.09495 -0.007,-0.007 0.004,-0.1106 0.0223,-0.22529 0.0395,-0.20183 0.0458,-0.21486 0.30796,-0.32323 l 0.26364,-0.10985 -0.0298,-0.21151 c -0.0223,-0.12028 -0.0458,-0.22194 -0.0499,-0.23088 -0.007,-0.007 -0.13853,0.0261 -0.28674,0.0711 -0.38954,0.124 -0.31838,0.18507 -0.56382,-0.52532 l -0.11544,-0.35227 0.70049,-0.18098 c 0.87114,-0.22752 2.80458,-0.83182 3.48302,-1.08723 0.28338,-0.108 0.51563,-0.19327 0.51571,-0.19811 z m -19.01429,0.0905 c 0.007,1.8e-4 0.0112,0.22007 0.004,0.48685 h -0.002 c -0.0112,0.48327 -0.0112,0.48297 -0.11171,0.44834 -0.0596,-0.0149 -0.10911,-0.0335 -0.11358,-0.0383 -0.0149,-0.0112 0.20444,-0.89721 0.22306,-0.89673 z m 1.75306,0.63118 c 0.0186,0.0186 0.12921,0.18805 0.25768,0.37908 0.12401,0.19104 0.22194,0.3493 0.21747,0.35414 -0.0186,0.0112 -1.1785,-0.17949 -1.24695,-0.20407 -0.0223,-0.0112 0.13667,-0.13517 0.35227,-0.28673 0.21561,-0.15156 0.4059,-0.25657 0.41949,-0.24242 z m -1.96665,0.60616 c 0.10538,0.004 0.10501,0.007 0.0905,0.61771 l -0.0149,0.6177 -0.23684,0.073 c -0.12996,0.0383 -0.24502,0.0618 -0.25396,0.048 -0.0149,-0.0149 0.0488,-0.32471 0.14039,-0.69084 0.15752,-0.62247 0.17688,-0.66812 0.27333,-0.66581 z m 12.38112,0.52342 c 0.10352,-0.004 0.38526,0.0425 0.60809,0.10762 v -0.002 c 0.50756,0.1456 1.57804,0.58144 1.49906,0.61194 -0.0395,0.0149 -0.1888,0.0629 -0.33291,0.10575 l -0.26551,0.0868 -0.76204,-0.43684 c -0.41788,-0.24019 -0.77235,-0.44272 -0.78129,-0.45222 -0.0149,-0.0149 1.9e-4,-0.0186 0.0335,-0.0223 z m -0.90828,0.18656 c 0.0112,-0.007 0.0711,0.0223 0.1847,0.0886 0.10427,0.0667 0.46823,0.27519 0.80438,0.4676 0.33626,0.19252 0.63245,0.36009 0.6504,0.37908 0.0186,0.0186 -0.0521,0.0588 -0.15379,0.0886 l -0.19066,0.0499 -0.6504,-0.51382 c -0.44741,-0.35264 -0.66853,-0.54419 -0.64466,-0.55998 z m 14.27658,0.0596 c 0.0659,-0.0112 0.34817,0.0428 0.69661,0.12326 v -0.002 c 0.17874,0.0398 0.38012,0.10277 0.44834,0.13666 0.0957,0.0436 1.57886,1.77249 1.5414,1.79923 -0.038,0.0298 -1.68823,-0.28375 -1.7242,-0.32136 -0.0536,-0.0562 -0.97642,-1.69582 -0.97564,-1.72803 1.2e-4,-0.004 0.004,-0.007 0.0149,-0.007 z m -1.33934,0.0577 c 0.12325,0.002 0.11916,0.0559 0.13852,0.20593 l 0.002,-0.002 c 0.0149,0.12028 0.0149,0.41923 0.0112,0.66776 l -0.0112,0.45411 -1.13728,-0.0261 -1.14112,-0.0261 0.1173,-0.10762 c 0.0655,-0.0581 0.38634,-0.32546 0.7197,-0.59845 0.59189,-0.48771 0.6009,-0.49325 0.9102,-0.52725 0.19737,-0.0261 0.31653,-0.0417 0.39063,-0.0406 z m 0.77935,0.15193 c 0.007,0.002 0.0186,0.0224 0.0424,0.0633 0.0261,0.0514 0.20667,0.37245 0.39644,0.71776 0.19475,0.34073 0.3411,0.63387 0.32732,0.64273 -0.0186,0.0149 -0.68038,-0.086 -0.69855,-0.10762 -0.007,-0.0112 -0.0815,-1.17154 -0.0789,-1.26814 0.003,-0.0335 0.004,-0.0506 0.0112,-0.048 z m -14.02641,0.26365 c 0.0224,0.004 0.2454,0.17651 0.4984,0.37126 0.25284,0.19476 0.45754,0.36531 0.46182,0.37908 -4.8e-4,0.0149 -0.23348,0.0957 -0.51187,0.18098 l -0.50994,0.15975 0.0149,-0.55227 c 0.007,-0.30834 0.0298,-0.54826 0.048,-0.5388 z m -1.08146,0.22715 c 0.0186,-1.9e-4 0.0335,0.004 0.0406,0.0112 0.0186,0.0186 0.0186,0.24875 0.0112,0.51571 h 0.002 l -0.0261,0.47337 -1.10839,0.33291 c -0.61223,0.18321 -1.11748,0.32695 -1.12191,0.31764 -0.0372,-0.0387 1.10355,-1.08716 1.37974,-1.27391 0.28636,-0.19439 0.69017,-0.37592 0.82557,-0.37715 z m -9.19061,0.72931 c -0.002,-0.0112 0.0298,0.0112 0.0868,0.0558 0.0678,0.0525 0.34296,0.29865 0.6177,0.54457 0.71199,0.64791 1.14727,0.8993 1.98397,1.145 0.8094,0.23609 2.10819,0.42395 3.08856,0.45028 0.30796,0.007 0.56222,0.0261 0.56192,0.0406 -9.7e-4,0.0335 -1.54724,7.64694 -1.59915,7.88977 -0.0186,0.0827 -0.0495,0.13703 -0.0674,0.11357 -0.10762,-0.12214 -1.71481,-3.52089 -1.68186,-3.55232 0.0224,-0.0223 0.30573,-0.1132 0.62542,-0.2022 0.4171,-0.10985 0.58046,-0.17576 0.56769,-0.21747 -0.0149,-0.0335 0.007,-0.0588 0.0518,-0.0577 0.0458,0.003 0.0752,-0.0395 0.0771,-0.11358 0.003,-0.0734 -0.0223,-0.11655 -0.0711,-0.11729 -0.0372,-10e-4 -0.0607,-0.0186 -0.0462,-0.0372 0.0186,-0.0261 -1.18826,-1.73217 -4.09305,-5.79416 -0.067,-0.0912 -0.0998,-0.13667 -0.10203,-0.14821 z m 14.00332,0.45992 c 0.0149,3.8e-4 0.79146,0.43684 1.7319,0.966 l 0.002,0.002 c 1.61713,0.92291 1.69898,0.974 1.61453,1.04106 -0.11767,0.10762 -0.72328,0.60028 -0.8217,0.67159 -0.0704,0.0488 -0.22938,-0.0614 -1.32779,-0.92946 l -1.24312,-0.98331 0.0112,-0.38102 c 0.003,-0.21188 0.0223,-0.38709 0.0335,-0.38679 z m 6.53311,0.11917 -0.0186,1.43169 c -0.0149,0.78248 -0.0298,1.43232 -0.0387,1.44133 h -0.002 c -0.0223,0.0261 -2.03129,-1.10925 -2.0167,-1.14112 0.004,-0.0186 0.47457,-0.41152 1.043,-0.88135 z m -21.73914,0.20592 0.0261,0.68697 0.0261,0.69084 -0.30014,1.43556 c -0.16645,0.78799 -0.31689,1.44629 -0.33104,1.46439 -0.0224,0.0223 -2.51033,-0.31727 -2.62863,-0.36382 -0.0186,-0.004 0.69802,-0.89014 1.5895,-1.96475 z m 29.86366,0.34818 c 0.17018,0.004 0.17465,0.0149 0.58691,0.66775 0.23088,0.3694 0.71504,1.0897 1.07569,1.60488 1.94145,2.75874 2.34153,3.39108 2.848,4.54524 0.51072,1.16804 0.7321,2.0336 0.9622,3.76592 l 0.0186,0.16161 -0.13071,-0.14039 c -0.0763,-0.0804 -1.23086,-1.45775 -2.56897,-3.0693 l -2.43429,-2.92304 -0.35786,-1.95511 c -0.19997,-1.07312 -0.38362,-2.06272 -0.40794,-2.20143 -0.0402,-0.24503 -0.0402,-0.24503 0.0961,-0.35228 0.0938,-0.0715 0.20109,-0.1065 0.31169,-0.10389 z m -29.01311,0.13294 c 0.003,-7.1e-4 0.007,0.002 0.0112,0.007 0.0149,0.0112 0.44775,0.89807 0.96987,1.97433 0.52215,1.07625 0.99991,2.04619 1.0526,2.15332 0.0927,0.17726 0.0965,0.1996 0.0298,0.19811 -0.041,-0.002 -0.55038,-0.0685 -1.13346,-0.14635 -0.78471,-0.11097 -1.0729,-0.16906 -1.13147,-0.22529 -0.0678,-0.0663 -0.0782,-0.2454 -0.0771,-1.43362 0.004,-1.28453 0.0112,-1.38649 0.11917,-1.88581 0.1091,-0.50912 0.14038,-0.63599 0.16161,-0.64083 z m -2.14562,0.17129 c 0.004,4e-5 -0.55466,0.68689 -1.24698,1.52214 v 0.007 c -0.69706,0.83976 -1.2947,1.55733 -1.32776,1.59334 -0.0562,0.0536 -0.0857,0.0525 -0.20779,-0.0261 -0.10911,-0.067 -0.14858,-0.0767 -0.17688,-0.0335 -0.0224,0.0372 -0.0797,0.0451 -0.15789,0.0223 -0.10054,-0.0261 -0.12922,-0.0149 -0.17316,0.0924 -0.0395,0.0957 -0.0372,0.1281 0.0223,0.16162 0.0372,0.0223 0.0585,0.0607 0.0443,0.0789 -0.0335,0.0547 0.96379,0.72231 1.42785,0.95445 0.21375,0.1065 0.50908,0.22827 0.66005,0.27333 0.31577,0.0901 1.02091,0.11767 1.35859,0.0518 0.12921,-0.0261 0.24428,-0.038 0.25769,-0.0223 0.007,0.007 -0.0916,0.54513 -0.22716,1.19117 -0.23906,1.12701 -0.25359,1.1781 -0.35003,1.17576 -0.13332,-0.004 -0.13369,-0.004 0.0149,0.28077 0.12289,0.25173 0.23125,0.32323 0.47531,0.32919 0.11543,9.6e-4 0.1806,0.0436 0.29641,0.19065 0.12512,0.15976 0.14039,0.21598 0.1348,0.45993 -0.003,0.1564 -0.0112,0.28115 -0.0261,0.28115 -0.041,-0.002 -5.50501,-4.69672 -5.49976,-4.72424 0.004,-0.0298 4.6781,-3.86076 4.70115,-3.86021 z m 3.07892,0.38102 c 5.9e-4,-0.002 0.002,-0.003 0.007,0 0.0223,0.0298 0.68909,0.94499 1.47213,2.03979 0.78334,1.09055 1.41917,1.9903 1.41437,1.99934 -0.0149,0.007 -1.00438,-0.14448 -1.01797,-0.15788 -0.003,-0.007 -0.35079,-0.7168 -0.76782,-1.57409 -0.41687,-0.85726 -0.84723,-1.73812 -0.95254,-1.95705 -0.0965,-0.19177 -0.15827,-0.33365 -0.1538,-0.35041 z m 13.40487,0.15007 0.17688,0.1348 c 0.0949,0.076 0.43144,0.34222 0.74278,0.58881 h 0.002 c 0.49139,0.38404 0.57223,0.46507 0.56963,0.5754 -0.007,0.35898 -0.31504,2.68617 -0.356,2.72676 -0.0186,0.0149 -0.30721,-0.74871 -0.54844,-1.44517 -0.19811,-0.57112 -0.44224,-1.55022 -0.50417,-2.03979 -0.0223,-0.18023 -0.0514,-0.37268 -0.0633,-0.43297 z m 3.99299,0.7505 c 0.0223,5.2e-4 0.58676,0.31056 1.24889,0.68503 l 1.20271,0.687 -0.0112,0.35413 c -0.007,0.35898 -0.10724,1.40563 -0.15975,1.67609 l -0.0261,0.1482 -0.687,-0.53689 c -0.37972,-0.29493 -1.1374,-0.88966 -1.6934,-1.32199 l -1.00837,-0.78706 0.54461,-0.45222 c 0.29641,-0.25061 0.56389,-0.45282 0.58691,-0.45222 z m -22.41073,2.33802 c 0.0815,-0.0149 0.40284,0.0372 1.03335,0.14635 0.64199,0.11208 1.25556,0.21933 1.37014,0.24055 l 0.20779,0.0372 -0.25583,0.0771 c -0.64451,0.18693 -1.29182,0.11208 -1.95127,-0.23088 -0.32732,-0.16906 -0.48566,-0.25359 -0.40411,-0.2696 z m 4.31436,0.58885 c 0.0506,-4.5e-4 0.52814,0.0588 1.06992,0.12698 l 0.97754,0.12512 0.0923,0.19997 c 0.048,0.10724 0.0782,0.20927 0.0693,0.22305 -0.0149,0.007 -0.18507,0.0413 -0.37908,0.0693 -0.61432,0.0775 -1.1857,-0.10724 -1.69534,-0.55227 -0.15305,-0.13704 -0.19475,-0.19401 -0.1348,-0.19252 z m -0.92753,0.0868 0.007,0.32137 c 0.002,0.17315 -3e-4,0.31726 -0.007,0.32918 -0.007,0.003 -0.10613,0.0186 -0.21747,0.0335 l -0.1981,0.0186 0.0335,-0.22305 c 0.0473,-0.31206 0.0618,-0.33999 0.2346,-0.41372 z m 0.43103,0.2521 0.15007,0.14039 c 0.0763,0.0801 0.22082,0.20406 0.31541,0.27519 0.27109,0.2089 0.72178,0.41278 1.10649,0.50033 0.302,0.0685 0.42205,0.0752 0.77742,0.0383 0.2264,-0.0223 0.46633,-0.0547 0.53112,-0.0674 0.11134,-0.0223 0.15454,0.0652 1.07186,1.9474 0.97877,2.00356 0.9918,2.03901 0.7524,2.03789 -0.041,-0.002 -0.34594,0.18507 -0.67349,0.40794 -0.3277,0.22678 -0.60843,0.41007 -0.63118,0.40027 -0.0224,-0.004 -0.77266,-0.58117 -1.67225,-1.27968 -1.60019,-1.24483 -1.63226,-1.27309 -1.49328,-1.30661 0.11618,-0.0335 0.14932,-0.0704 0.17501,-0.20779 0.0644,-0.32546 0.051,-0.37163 -0.0961,-0.37524 -0.16124,-0.004 -0.18619,-0.0771 -0.17502,-0.55612 0.004,-0.18879 -5.6e-4,-0.61264 -0.0112,-0.93523 -0.0112,-0.46536 -0.0298,-0.5849 -0.0789,-0.56769 -0.0462,0.0149 -0.0581,-0.0335 -0.054,-0.21375 z m 3.28101,0.0112 c 0.0223,3e-4 0.0491,0.004 0.0845,0.0149 0.0782,0.0149 0.17986,0.0335 0.22119,0.0384 0.041,0.002 -0.007,0.0335 -0.10762,0.0674 -0.14858,0.0469 -0.19065,0.0514 -0.22119,0.004 -0.0499,-0.0842 -0.0428,-0.124 0.0223,-0.12326 z m 22.21058,0.5677 0.82359,0.007 c 0.45118,0.007 1.03149,0.007 1.28933,0.007 l 0.46566,0.002 0.0424,0.15193 c 0.23795,0.82534 0.72626,2.59251 0.72547,2.62479 -4.4e-4,0.0223 -0.73876,0.0298 -1.79733,0.007 l -1.79923,-0.0335 0.0261,-0.39834 0.0261,-0.40023 0.32732,0.0149 0.32695,0.0149 0.0335,-0.14635 c 0.0186,-0.0774 0.0335,-0.25731 0.0372,-0.39062 l 0.004,-0.24838 -0.23088,-0.007 c -0.26216,-0.007 -0.25247,0.0223 -0.28487,-0.75243 z m -26.47877,0.39256 c 0.003,-0.004 0.007,-0.007 0.0149,0 0.007,0.007 0.0186,0.36642 0.0298,0.78896 l 0.007,0.77165 -0.18284,-0.004 c -0.16981,-0.004 -0.1847,-0.0149 -0.15975,-0.10947 0.0473,-0.17837 0.28747,-1.37416 0.28859,-1.42015 2.2e-4,-0.0149 5.2e-4,-0.0223 0.004,-0.0261 z m 24.40625,0.30796 c 0.0186,-0.004 0.0223,0.0506 0.0149,0.11916 l -0.004,-0.002 c -0.0432,0.22938 -0.13666,0.95068 -0.12326,0.96022 0.003,0.007 0.25322,0.0223 0.55232,0.0372 l 0.53879,0.0186 -0.0112,0.47721 -0.0112,0.47918 -1.80117,-0.0425 c -1.43586,-0.0335 -1.79289,-0.057 -1.75499,-0.10204 0.48901,-0.6145 0.90787,-1.02866 1.33357,-1.30854 0.19662,-0.12884 1.19426,-0.62951 1.26814,-0.63696 z m -5.00327,0.0637 c 0.52152,-0.0149 2.36652,0.0398 2.442,0.073 0.007,0.004 -0.24949,1.62257 -0.28301,1.75499 -0.0261,0.10055 -0.0473,0.10539 -0.42913,0.0961 -0.22082,-0.004 -0.53936,9.7e-4 -0.71009,0.0149 l -0.31355,0.0186 -0.004,0.21561 -0.004,0.21561 0.27891,0.0402 c 0.15565,0.0186 0.57939,0.0413 0.94294,0.0499 l 0.66388,0.0149 0.10576,0.21933 c 0.16198,0.34482 0.35748,1.00781 0.46763,1.59528 0.18433,0.95299 0.22343,1.61832 0.20965,3.33098 -0.007,0.87941 -8.2e-4,1.59244 0.0186,1.58373 0.25657,-0.12736 0.74446,-0.31392 1.04106,-0.39446 0.59797,-0.16534 1.77305,-0.39044 1.80888,-0.34818 0.007,0.007 0.0261,0.30498 0.0335,0.6504 l 0.0186,0.63506 h -0.11544 c -0.22566,-0.004 -0.26364,0.0335 -0.2696,0.27519 l -0.007,0.22529 -0.16161,-0.004 c -0.15193,-0.002 -0.15901,-0.0149 -0.15603,-0.16533 0.003,-0.1564 -10e-4,-0.16125 -0.18098,-0.16534 l -0.1847,-0.002 0.0112,-0.36941 c 0.007,-0.35897 0.004,-0.36716 -0.10204,-0.3694 -0.06,-8.9e-4 -0.14746,-0.0186 -0.19252,-0.0383 -0.0681,-0.0298 -0.0745,0.004 -0.0633,0.34445 0.0112,0.29492 -0.002,0.37666 -0.0518,0.39833 -0.15305,0.0514 -0.19848,0.0186 -0.19439,-0.15602 0.004,-0.24875 -0.0387,-0.30163 -0.21933,-0.25992 -0.15714,0.038 -0.16198,0.0387 -0.55421,1.02374 -0.0689,0.178 -0.10613,0.21785 -0.19811,0.21561 -0.10128,-0.003 -0.10985,-0.0186 -0.10389,-0.24614 0.003,-0.12885 -0.007,-0.3169 -0.0186,-0.41375 -0.0223,-0.15715 -0.0406,-0.17167 -0.16943,-0.17502 -0.12438,-0.002 -0.1672,0.0335 -0.32919,0.26737 l -0.18097,0.27332 -0.68701,-0.0149 -0.68507,-0.0149 0.004,-0.13852 c 0.001,-0.11544 0.0223,-0.13704 0.11916,-0.1348 0.10129,0.003 0.11395,-0.0149 0.1173,-0.15789 0.004,-0.13816 -0.0112,-0.16124 -0.10203,-0.16348 -0.092,-0.002 -0.10427,-0.0223 -0.0827,-0.16347 0.0223,-0.15156 0.0186,-0.15975 -0.1214,-0.16348 l -0.14225,-0.004 -0.0112,0.433 -0.0112,0.43297 -0.38869,0.0223 c -0.21226,0.0149 -0.40958,0.007 -0.43684,-0.007 -0.0261,-0.0186 -0.0458,-0.15602 -0.0424,-0.30795 0.007,-0.2346 -0.003,-0.27296 -0.0827,-0.27519 -0.17464,-0.004 -0.22976,0.0454 -0.20965,0.17502 0.0223,0.12027 0.0149,0.12437 -0.13666,0.10203 -0.13331,-0.0186 -0.16459,-0.004 -0.19438,0.0827 l -0.0372,0.10203 -1.28352,-0.0596 -1.28352,-0.0577 -0.40027,-0.38296 c -0.61655,-0.59499 -0.6545,-0.61007 -0.69852,-0.31168 -0.0223,0.15603 -0.007,0.17539 0.22716,0.356 l 0.2521,0.19065 -0.4349,-0.0425 c -0.23907,-0.0223 -0.47498,-0.0521 -0.51575,-0.0693 -0.0685,-0.0186 -0.0815,0.007 -0.0845,0.14225 -0.003,0.12884 0.0298,0.18805 0.1847,0.32509 0.10352,0.0946 0.20369,0.17092 0.22715,0.17129 0.0186,4.9e-4 0.0372,0.0261 0.0335,0.0655 -0.003,0.0458 -0.0652,0.0726 -0.19439,0.0789 -0.16124,0.004 -0.19848,0.0261 -0.20034,0.10017 -0.003,0.0782 -0.0398,0.0912 -0.24242,0.10017 l -0.24428,0.007 -0.007,0.37719 -0.0112,0.37718 -1.0815,-0.0387 -1.08147,-0.0402 0.0112,-0.36382 c 0.007,-0.36344 0.007,-0.36642 -0.10761,-0.3694 -0.11023,-0.004 -0.1147,-0.0112 -0.10762,-0.302 l 0.007,-0.30014 -0.18284,-0.002 c -0.16571,-0.004 -0.18508,-0.0186 -0.18284,-0.11544 0.002,-0.0644 -0.0149,-0.12996 -0.0424,-0.14448 -0.0261,-0.0186 -0.0395,-0.28115 -0.0298,-0.64467 l 0.0149,-0.61193 0.33849,-0.0655 c 0.56465,-0.11991 1.87155,-0.29716 2.48047,-0.34259 0.79793,-0.0544 1.69805,0.007 2.25148,0.16534 0.24205,0.0715 0.71344,0.24242 1.05067,0.38873 0.71549,0.31205 1.08892,0.45099 1.12187,0.41948 0.0224,-0.0223 -0.65572,-7.0296 -0.70815,-7.33939 l -0.0224,-0.12512 0.33105,0.007 c 0.32211,0.007 0.33254,0.004 0.31168,-0.0983 -0.0149,-0.0559 -0.0462,-0.22343 -0.0752,-0.37126 -0.0298,-0.15268 -0.0707,-0.25881 -0.0979,-0.25024 -0.10241,0.0391 -1.00521,0.2022 -1.01411,0.18842 -0.0261,-0.0514 -0.28561,-0.9057 -0.28487,-0.93329 0.002,-0.0968 1.19337,-0.27594 2.05517,-0.3061 z m -5.85571,0.89289 c 0.47073,0.002 1.11792,0.0443 1.4067,0.10017 0.37089,0.0745 1.67448,0.42291 1.65106,0.44067 -0.0223,0.0223 -4.48677,0.86482 -4.50487,0.85056 -0.0335,-0.0261 -0.10538,-1.15386 -0.0771,-1.1854 0.0395,-0.0402 0.71624,-0.15863 1.13151,-0.19438 0.0979,-0.007 0.23572,-0.0112 0.39257,-0.0112 z m -3.24056,0.54263 c 0.004,1.1e-4 0.002,0.2212 -0.007,0.49266 h 0.002 l -0.0112,0.49646 -1.75116,0.42719 c -0.95869,0.23013 -1.74985,0.41934 -1.75882,0.40988 -0.0112,-0.0149 0.89952,-0.66109 1.297,-0.91404 0.40217,-0.25732 1.14164,-0.57879 1.72613,-0.75821 0.26886,-0.0808 0.49296,-0.14932 0.50223,-0.15379 z m -9.58701,0.78323 0.44261,0.34631 c 0.24391,0.18545 0.96588,0.74536 1.60295,1.23925 h 0.002 l 1.16037,0.90253 -0.4349,0.29828 c -0.23423,0.16459 -0.97955,0.68216 -1.64916,1.145 l -1.21616,0.84478 -0.0112,-0.60233 c -0.0112,-0.33663 -0.0149,-1.18391 -0.0149,-1.88391 l 0.004,-1.27968 0.14038,-0.0674 c 0.13034,-0.0614 0.14076,-0.0875 0.14635,-0.31764 0.007,-0.23944 -0.004,-0.25359 -0.10576,-0.25583 -0.14225,-0.004 -0.16049,-0.038 -0.10575,-0.21933 z m 5.29961,1.69146 c 0.0261,-0.003 0.0451,0.007 0.0443,0.0298 h 0.002 c -5.2e-4,0.0186 -0.15528,0.2912 -0.34259,0.61387 l -0.34073,0.58114 -0.24428,-0.19439 c -0.13592,-0.10463 -0.24428,-0.20108 -0.24428,-0.20592 4.9e-4,-0.0112 0.23088,-0.17763 0.51188,-0.37331 0.28114,-0.19587 0.52822,-0.37875 0.54263,-0.40605 0.0149,-0.0261 0.0465,-0.041 0.0711,-0.0443 z m 0.47337,0.9314 c 0.004,7e-5 0.003,0.25098 -0.007,0.55418 h 0.004 c -0.007,0.30348 -0.0298,0.55086 -0.048,0.55037 -0.0223,-0.004 -0.0942,-0.0521 -0.16161,-0.11357 l -0.12698,-0.10986 0.16161,-0.43873 c 0.0886,-0.24168 0.16757,-0.4428 0.17688,-0.44261 z m 35.46537,0.12884 c 0.63387,0.003 1.57119,0.0335 1.53946,0.0596 -0.0261,0.0223 -0.71504,0.2778 -1.52791,0.5715 -0.96603,0.34519 -1.4899,0.51172 -1.50289,0.47917 -0.007,-0.0298 -0.0372,-0.0555 -0.0633,-0.0559 -0.0223,-5.6e-4 -0.64071,0.21486 -1.37013,0.48301 -1.06371,0.38426 -1.33216,0.46503 -1.35856,0.41372 -0.0223,-0.0372 -0.1698,-0.25769 -0.32509,-0.48685 l -0.28859,-0.42143 0.24056,-0.10017 c 0.41405,-0.17874 1.83862,-0.59521 2.39384,-0.70625 0.48104,-0.0898 1.29388,-0.19923 1.77808,-0.22902 0.0968,-0.007 0.2737,-0.007 0.48495,-0.007 z m -10.35287,0.0149 0.40604,0.0112 c 0.22529,0.004 0.65989,0.048 0.97176,0.0965 h 0.002 c 1.10958,0.17017 2.23402,0.55473 3.16936,1.08336 0.56773,0.32658 1.3561,0.86579 1.30471,0.89673 -0.07,0.0372 -2.57061,0.93806 -2.60748,0.93717 -0.0186,-4.5e-4 -0.74372,-0.4279 -1.61066,-0.95061 -1.1168,-0.66682 -1.58492,-0.97247 -1.59717,-1.03723 -0.0149,-0.051 -0.0261,-0.30535 -0.0261,-0.56766 z m -27.22539,0.0808 c 0.0149,3.4e-4 0.18135,0.12401 0.37126,0.27147 v 0.007 l 0.34259,0.27519 -1.28162,2.18024 -1.28158,2.17452 -0.17912,-0.007 c -0.17464,-0.007 -0.18395,-0.0149 -0.19438,-0.15603 -0.0112,-0.14709 -0.0186,-0.15193 -0.20406,-0.14225 -0.16162,0.0112 -0.19885,0.0261 -0.20965,0.11358 -0.0391,0.22455 -0.23795,0.1605 -0.23684,-0.0789 9.3e-4,-0.0875 -0.0223,-0.10092 -0.20592,-0.10576 -0.20221,-0.007 -0.20593,-0.007 -0.20965,0.15007 -0.004,0.13815 -0.0223,0.15752 -0.13853,0.17316 -0.16161,0.0186 -0.18693,-0.041 -0.17688,-0.45993 l 0.007,-0.29046 0.13852,0.0298 0.13667,0.0298 0.007,-0.25396 0.007,-0.25769 -0.16757,0.0223 -0.16534,0.0223 0.0372,-0.21747 c 0.0376,-0.18805 0.0261,-0.21002 -0.0499,-0.21189 -0.0782,-0.003 -0.0942,-0.0439 -0.11543,-0.31168 -0.0149,-0.16608 -0.007,-0.32285 0.0149,-0.34073 0.0614,-0.0585 3.7324,-2.61314 3.76011,-2.61708 z m 39.93558,0.004 c 0.0387,-0.003 0.007,0.0391 -0.0827,0.12139 h -0.002 c -0.0801,0.0715 -0.92343,0.85432 -1.88395,1.73381 l -1.74151,1.60488 -0.002,-1.03146 c -0.004,-0.56646 -0.002,-1.03071 0.002,-1.03525 0,-0.004 0.69684,-0.25396 1.53756,-0.55615 0.84526,-0.302 1.66804,-0.61502 1.8358,-0.69851 0.18879,-0.0897 0.29827,-0.13592 0.33663,-0.13853 z m -38.36149,1.23541 c 0.0186,4.4e-4 0.14411,0.0864 0.27519,0.19066 h 0.004 c 0.13108,0.10426 0.25881,0.18991 0.27705,0.19065 0.0186,4.9e-4 0.0432,0.0976 0.054,0.21747 0.18135,1.84626 0.25433,2.5291 0.26737,2.54783 0.0149,0.0112 0.14262,-0.0335 0.28673,-0.0942 0.39997,-0.16534 0.99716,-0.31094 2.00515,-0.48495 0.4949,-0.0897 0.97557,-0.17093 1.06799,-0.18284 l 0.16757,-0.0223 -0.0387,0.67547 c -0.0566,0.961 -0.12288,1.06541 -0.6889,1.05644 -0.11022,-0.004 -0.1281,-0.0224 -0.12512,-0.14225 0.003,-0.0782 -0.051,-0.22231 -0.11357,-0.32509 -0.0935,-0.14486 -0.14709,-0.18619 -0.24838,-0.18842 -0.16124,-0.004 -0.16646,0.0298 -0.0223,0.32508 0.0614,0.13034 0.10575,0.24168 0.0961,0.24615 -0.007,0.003 -0.31839,-0.007 -0.69084,-0.0261 -0.61167,-0.0335 -0.67632,-0.0439 -0.69274,-0.12326 -0.0112,-0.0462 -0.0618,-0.089 -0.10762,-0.0905 -0.0693,-0.002 -0.0827,-0.0335 -0.0752,-0.16347 l 0.0112,-0.15975 -0.31354,-0.007 -0.31764,-0.007 -0.0186,0.14225 c -0.0112,0.10576 -0.0637,0.17316 -0.20406,0.26179 l -0.18843,0.12139 -1.05648,-0.0674 c -0.57931,-0.0372 -1.06273,-0.076 -1.07182,-0.0808 -0.007,-0.007 0.27221,-0.75779 0.62537,-1.67031 0.34893,-0.91255 0.67316,-1.77066 0.7178,-1.90316 0.048,-0.1281 0.0991,-0.2372 0.1173,-0.23683 z m -15.44466,0.21374 c 0.0778,0.0112 0.42091,0.0555 0.77359,0.10017 h 0.002 c 0.34818,0.0454 0.64537,0.0905 0.65427,0.1039 0.0447,0.0439 0.0592,0.62828 0.0186,0.62735 -0.11953,0.002 -2.95625,-0.42195 -2.95577,-0.44068 -4.4e-4,-0.0506 1.37829,-0.41215 1.50677,-0.39066 z m 14.69994,0.0615 c 0.003,0.007 -0.0298,0.12809 -0.0845,0.25992 v 0.002 c -0.0529,0.13704 -0.33403,0.86165 -0.62348,1.61449 -0.28524,0.75292 -0.54502,1.4229 -0.56959,1.49138 -0.0425,0.11433 -0.0734,0.12773 -0.27147,0.12326 -0.11991,-0.002 -0.27891,-0.0186 -0.35227,-0.0387 l -0.13853,-0.0298 1.01411,-1.71648 c 0.55689,-0.94905 1.01656,-1.71176 1.02568,-1.70692 z m -12.67363,0.17129 0.15603,0.0298 c 0.0871,0.0149 0.33477,0.0495 0.55034,0.073 l 0.002,0.002 0.40027,0.0372 0.0223,0.20779 c 0.0149,0.11543 0.0186,0.28189 0.0186,0.3694 -0.002,0.15193 -0.007,0.15714 -0.15007,0.1307 -0.0827,-0.0149 -0.32695,-0.0603 -0.54267,-0.0905 -0.21561,-0.0335 -0.39309,-0.0682 -0.40217,-0.0771 -0.007,-0.004 -0.0224,-0.16012 -0.0335,-0.34445 z m 39.13507,0.0335 c 0.0223,6e-4 0.58732,0.33105 1.25466,0.72935 0.66727,0.40258 1.21661,0.74744 1.21616,0.76587 -4.5e-4,0.0224 -0.0335,0.0372 -0.0693,0.0372 -0.0875,-9.7e-4 -0.16534,0.13815 -0.16944,0.30386 -0.002,0.12438 -0.0298,0.13778 -1.07569,0.51378 -0.58516,0.20704 -1.07249,0.37517 -1.08147,0.36567 -0.007,-0.007 -0.0223,-0.55 -0.0402,-1.195 -0.0112,-0.64493 -0.0335,-1.25198 -0.0462,-1.34895 -0.0149,-0.0924 -0.003,-0.17129 0.0112,-0.17129 z m 8.51898,0.11544 c 0.038,-0.002 0.0581,0.30089 0.0752,0.95061 h -0.002 l 0.0186,0.95832 -0.21747,0.22529 c -0.12289,0.12177 -0.36493,0.43774 -0.54651,0.70045 -0.96897,1.42726 -2.13612,2.68807 -3.2848,3.54461 -0.7502,0.55757 -2.04195,1.24956 -3.30216,1.7627 l -0.33886,0.14039 0.12326,-0.21375 c 0.26885,-0.46324 1.06984,-1.36477 1.81848,-2.05136 0.31987,-0.29158 0.49504,-0.4857 0.58694,-0.66772 0.11619,-0.22305 0.20034,-0.30386 0.73892,-0.687 0.96517,-0.69058 1.38946,-1.12377 1.79349,-1.84157 0.29791,-0.53165 0.49679,-1.11904 0.63502,-1.88007 l 0.0402,-0.22902 0.90637,-0.35599 c 0.49743,-0.19513 0.92879,-0.35674 0.95639,-0.356 z m -45.77781,0.0942 c 0.12028,10e-4 0.32583,0.0335 0.67349,0.0827 v 0.002 c 1.72143,0.23273 2.6649,0.41863 4.06035,0.79283 0.302,0.0808 0.32993,0.10017 0.32733,0.20593 l -0.002,0.11916 -0.39062,-0.0261 c -0.37257,-0.0223 -0.39007,-0.0261 -0.39257,0.073 -0.002,0.0924 -0.0186,0.0965 -0.24242,0.0633 -0.13294,-0.0186 -1.12738,-0.16571 -2.21491,-0.32508 l -1.97436,-0.28674 -0.007,-0.35413 c -0.003,-0.26178 -0.0387,-0.35004 0.16161,-0.34818 z m -1.7954,0.69468 c 0.0186,4.8e-4 0.24801,0.038 0.51378,0.0827 l -0.004,-0.002 c 0.26588,0.0447 0.49449,0.0793 0.51765,0.079 0.0186,4.8e-4 0.0298,0.20444 0.0223,0.44838 l -0.0149,0.45028 -0.14449,-0.17911 -0.14225,-0.17316 -0.20778,0.19811 c -0.18396,0.17949 -0.20258,0.21002 -0.18843,0.3945 l 0.0112,0.20406 -0.17129,0.0112 -0.16534,0.0112 -0.0186,-0.2927 c -0.0372,-0.57648 -0.0395,-1.23421 -0.007,-1.2335 z m 45.04274,0.22901 c 0.0186,-0.002 0.0261,-9.6e-4 0.0261,0.004 0.007,0.0384 -0.0335,0.24055 -0.0923,0.45028 -0.22194,0.80419 -0.54051,1.38566 -1.0449,1.89355 -0.3493,0.35078 -0.75869,0.69118 -0.79477,0.65811 -0.007,-0.0112 0.057,-0.32509 0.15975,-0.69084 0.248,-0.93344 0.23869,-1.13244 -0.0424,-1.13918 -0.0875,-9.4e-4 -0.22827,0.092 -0.49646,0.32508 -0.3061,0.26886 -0.44891,0.35786 -0.82553,0.50994 -0.25136,0.0998 -0.48045,0.18172 -0.50804,0.18098 -0.06,-8.6e-4 -4.1e-4,-0.83778 0.0596,-0.86404 0.0223,-0.004 0.83551,-0.32136 1.80698,-0.69851 1.0777,-0.41736 1.62566,-0.61431 1.75111,-0.62925 z m -43.33586,0.0406 c 0.0507,-4.4e-4 1.02308,0.14076 2.161,0.3061 1.13334,0.16571 2.09229,0.30312 2.12447,0.30386 0.041,0.002 0.0659,0.13964 0.0752,0.51765 0.0112,0.28599 0.0223,0.59558 0.0261,0.68313 0.007,0.14783 -0.002,0.15975 -0.10761,0.13852 -0.0644,-0.007 -0.18806,-0.0558 -0.27892,-0.10761 l -0.16943,-0.0868 -0.007,-0.43874 c -4.4e-4,-0.23906 -0.0149,-0.4514 -0.0335,-0.4657 -0.0678,-0.0708 -0.17576,0.0384 -0.17912,0.18098 -0.003,0.12885 -0.0261,0.15938 -0.14225,0.19811 -0.12512,0.0384 -0.14038,0.0614 -0.14448,0.22715 l -0.004,0.18842 -0.64467,-0.0149 c -0.3545,-0.007 -0.65688,-0.0112 -0.67542,-0.007 -0.0223,0.007 -0.0399,-0.0853 -0.0462,-0.20965 l -0.0112,-0.21561 -0.30982,0.0186 c -0.17055,0.0112 -0.33626,0.0298 -0.37331,0.0384 -0.0462,0.0112 -0.0547,-0.0261 -0.0387,-0.14449 0.0186,-0.13778 0.007,-0.16608 -0.10017,-0.20592 -0.15044,-0.0547 -0.17837,-0.0335 -0.18284,0.13852 -0.002,0.0968 -0.0261,0.12847 -0.0905,0.12698 -0.0458,-0.003 -0.18024,0.007 -0.30014,0.0223 l -0.21151,0.0261 0.004,-0.19438 c 0.003,-0.10129 -0.003,-0.18805 -0.0149,-0.18842 -0.092,-0.002 -0.16868,0.0685 -0.17129,0.15602 -0.003,0.0737 -0.0376,0.11097 -0.11358,0.12326 -0.10612,0.0186 -0.10538,0.007 -0.12884,-0.35413 -0.0335,-0.66392 -0.0223,-0.76472 0.0886,-0.76204 z m 33.1523,0.39067 c 0.36643,0.004 0.73881,0.0261 1.04878,0.0637 v -0.002 c 0.61975,0.0752 0.88168,0.13815 1.43939,0.31578 0.4568,0.15379 1.04878,0.45818 1.39706,0.7197 0.18061,0.13815 0.17986,0.14225 0.073,0.18097 -1.14734,0.41454 -1.82109,0.65215 -1.83003,0.6427 -3e-5,-0.007 0.0112,-0.19699 0.0298,-0.41755 0.0224,-0.22492 0.0298,-0.41491 0.0298,-0.41953 -0.007,-0.004 -0.10166,-0.003 -0.20779,0.007 l -0.19811,0.0223 0.007,0.41953 0.007,0.42332 -0.30796,0.15416 -0.30796,0.1538 0.007,-0.34073 0.0112,-0.34073 -0.38679,-0.007 c -0.34073,-0.007 -0.38694,-3.3e-4 -0.41182,0.0771 -0.0149,0.0596 0.0223,0.13815 0.12698,0.24242 0.11656,0.11767 0.15119,0.19363 0.14821,0.31764 -0.004,0.21635 -0.0488,0.26923 -0.22306,0.302 -0.13889,0.0261 -0.13889,0.0186 -0.29045,-0.38869 l -0.15603,-0.40988 -0.2346,-0.0186 c -0.20704,-0.0186 -0.23497,-0.0112 -0.23683,0.0674 -9.7e-4,0.0644 -0.0663,0.10911 -0.2521,0.17316 l -0.25024,0.0868 -0.0261,-0.36568 c -0.0186,-0.35972 -0.0261,-0.36754 -0.1348,-0.34259 l -0.11172,0.0261 0.0149,-0.63889 0.0149,-0.64467 0.1981,-0.0186 c 0.28636,-0.0335 0.64757,-0.0447 1.0141,-0.0406 z m 6.1213,1.11032 c 0.0417,-0.004 0.0525,0.10055 0.0462,0.36568 l -0.007,0.36158 -0.1713,0.0425 c -0.22715,0.0544 -0.58389,0.12363 -0.62541,0.12698 -0.0223,-5.5e-4 -0.0335,-0.0693 -0.0335,-0.15193 0.002,-0.14746 -0.003,-0.1482 -0.18656,-0.13852 l -0.18843,0.0149 0.0372,-0.15193 c 0.0186,-0.0871 0.0406,-0.15938 0.0443,-0.15975 0.0149,-0.0186 1.03001,-0.30647 1.0853,-0.30982 z m -42.89712,1.0449 c 0.0112,1.1e-4 0.0261,0.003 0.0425,0.007 0.0458,0.0149 0.50073,0.0544 1.01603,0.0789 h 0.002 c 0.51504,0.0298 1.03771,0.0708 1.16614,0.0924 l 0.22902,0.0335 -0.28115,0.18656 -0.28077,0.18656 -0.65621,-0.0577 c -0.36307,-0.0335 -0.75783,-0.0644 -0.87748,-0.0674 -0.23013,-0.007 -0.28375,-0.0618 -0.37331,-0.36754 -0.0186,-0.0696 -0.0186,-0.0946 0.0149,-0.0942 z m 3.58886,0.19252 c 0.0223,-0.004 0.0506,-0.002 0.0886,0 0.11469,0.0112 0.13629,0.0406 0.21747,0.30796 v 0.002 c 0.051,0.16683 0.0856,0.31504 0.0711,0.33291 -0.007,0.0223 -0.13965,0.0335 -0.28674,0.0298 l -0.26737,-0.007 0.048,-0.29046 c 0.0488,-0.28897 0.0622,-0.36084 0.12885,-0.37525 z m -0.29642,0.0577 c 0.0112,-4.5e-4 0.0186,0.002 0.0186,0.007 0.007,0.0223 -0.0223,0.15305 -0.0674,0.29455 v 0.004 l -0.079,0.25024 -0.40027,-0.0112 -0.40027,-0.0112 0.302,-0.18284 c 0.16794,-0.0972 0.37853,-0.22491 0.46764,-0.28301 0.0666,-0.0395 0.12772,-0.0681 0.15789,-0.0693 z m 23.11118,0.0149 0.1713,0.002 -0.0112,0.38679 -0.0112,0.39256 -0.5061,-0.0112 -0.5061,-0.0112 0.007,-0.34073 0.007,-0.34445 0.19997,-0.0186 c 0.36494,-0.0421 0.46961,-0.0491 0.64467,-0.054 z m 0.44645,0.004 0.55227,0.0149 0.55232,0.0149 -0.004,0.22529 c -0.002,0.12438 0.007,0.2886 0.0149,0.36754 l 0.0298,0.14448 -0.58501,-0.0149 -0.57924,-0.0149 0.0112,-0.36754 z m -22.85331,0.007 c 0.0149,4.1e-4 0.20034,0.10277 0.41371,0.22715 0.21785,0.12475 0.45863,0.26365 0.53113,0.31168 l 0.13666,0.0868 -0.44257,-0.0112 -0.43684,-0.0112 -0.11171,-0.302 c -0.0603,-0.1672 -0.0994,-0.30237 -0.0905,-0.302 z m 24.2831,0.0298 0.38485,0.007 c 0.21114,0.003 0.44824,0.0261 0.52729,0.0406 h 0.002 l 0.14038,0.0298 -0.007,0.31764 -0.007,0.31764 -0.52919,-0.0112 -0.52919,-0.0112 0.007,-0.34445 z m 1.28352,0.0149 0.41949,0.0335 c 0.22491,0.0186 0.42201,0.0451 0.43106,0.0577 h 0.002 c 0.007,0.007 0.0298,0.13443 0.0443,0.27705 l 0.0186,0.2521 -0.42336,0.0223 c -0.2305,0.0112 -0.42857,0.0186 -0.43297,0.007 -0.007,-0.007 -0.0223,-0.15714 -0.0335,-0.33291 z m -24.43704,0.14039 c 0.0112,-0.002 0.0335,0.002 0.0655,0.0112 0.0413,0.0112 0.66775,0.0637 1.38938,0.12103 l 0.002,-0.002 c 0.72163,0.054 1.41981,0.11767 1.5529,0.1348 l 0.23869,0.0298 -0.007,0.16944 -0.004,0.16943 -1.36049,-0.11544 -1.35665,-0.10985 -0.27147,-0.19066 c -0.21412,-0.15342 -0.28338,-0.21151 -0.25024,-0.21747 z m -2.68252,0.60616 0.33105,0.007 0.33105,0.007 0.0261,0.14448 c 0.0112,0.0782 0.0186,0.25731 0.0149,0.39066 l -0.004,0.24838 -0.32136,-0.007 c -0.27593,-0.007 -0.32211,-0.0223 -0.32509,-0.0923 0.002,-0.0413 -0.0112,-0.21523 -0.0298,-0.39066 z m 1.96476,0 0.30013,0.007 0.29828,0.007 -0.0149,0.43684 -0.0112,0.43684 -0.27146,-0.007 c -0.26663,-0.007 -0.27184,-0.0112 -0.29642,-0.15007 -0.0112,-0.0782 -0.0186,-0.2778 -0.0149,-0.43878 z m -0.67159,0.0335 0.25396,0.004 -0.0112,0.38679 c -0.0112,0.4234 -0.0223,0.44179 -0.30386,0.4349 l -0.15193,-0.002 -0.0261,-0.28301 c -0.0417,-0.56281 -0.0514,-0.5477 0.2387,-0.54073 z m 34.96311,1.94743 c 0.0466,-0.004 0.0536,0.10203 0.0372,0.44258 l -0.0261,0.45032 -0.80825,0.10389 c -1.14086,0.14746 -1.02341,0.18731 -0.99679,-0.34631 l 0.0261,-0.44451 0.85439,-0.1039 c 0.47095,-0.0529 0.88176,-0.0983 0.91408,-0.10203 z m -26.98487,0.36158 0.34446,0.007 0.34631,0.007 -0.007,0.39063 -0.0112,0.39256 -0.37331,-0.007 c -0.32211,-0.007 -0.3668,-0.0186 -0.34259,-0.0827 0.0186,-0.041 0.0335,-0.21561 0.0372,-0.39062 z m 23.78661,0.0406 0.0298,0.23088 c 0.0149,0.12475 0.0186,0.31243 0.0112,0.41371 l -0.0186,0.1847 -0.97754,0.0693 -0.98334,0.0674 0.0112,-0.37715 c 0.003,-0.21188 0.0112,-0.3824 0.0223,-0.38679 0.004,1.1e-4 0.43483,-0.048 0.95639,-0.10017 z m -22.15863,0.0443 0.31354,0.007 0.31764,0.007 -0.007,0.17912 c -0.002,0.0968 0.007,0.27072 0.0186,0.39062 l 0.0298,0.21375 -0.37715,-0.007 c -0.42343,-0.0112 -0.40109,0.0261 -0.3329,-0.50994 z m 1.31625,0.12139 0.34445,0.007 0.34631,0.007 -0.0112,0.36567 -0.007,0.35972 -0.21374,0.0261 c -0.11991,0.0112 -0.27556,0.0223 -0.34445,0.0186 l -0.13481,-0.004 0.0112,-0.39063 z m 1.92241,0.0261 c 0.0622,0.002 0.10576,0.004 0.1173,0.0112 0.0186,0.0112 0.0298,0.17539 0.0261,0.37331 l -0.002,0.007 -0.0112,0.35786 -0.21151,0.0261 c -0.11991,0.0112 -0.27742,0.0223 -0.34631,0.0186 l -0.13294,-0.002 0.0112,-0.39256 0.0112,-0.3868 0.31168,-0.007 c 0.0853,-0.004 0.16683,-0.007 0.22902,-0.004 z m 3.96987,0.0693 0.66198,0.0149 0.65811,0.0149 0.0223,0.40024 c 0.0112,0.22119 0.0149,0.40541 0.0112,0.40991 -0.007,0.0112 -0.31764,0.0149 -0.6908,0.0149 l -0.68123,0.002 0.0112,-0.42913 z m 11.0957,0 0.52532,0.004 -0.0406,0.23869 c -0.0186,0.13331 -0.0335,0.30684 -0.0372,0.38486 -0.004,0.13815 -0.004,0.14373 -0.26551,0.14225 -0.14783,0.002 -0.50558,0.0112 -0.8005,0.0186 l -0.53496,0.0149 -0.0223,-0.21747 c -0.0186,-0.12028 -0.0261,-0.29939 -0.0223,-0.3964 l 0.004,-0.17316 0.33663,-0.0112 c 0.17986,-9.7e-4 0.56628,-0.004 0.85632,-0.004 z m -2.71331,0.0186 -0.0112,0.38679 c -0.004,0.21635 -0.0261,0.40076 -0.0425,0.40988 -0.0261,0.0112 -0.38631,0.0261 -0.81015,0.0372 l -0.77548,0.0149 0.0261,-0.40604 0.0224,-0.40798 0.64462,-0.007 c 0.35488,-0.004 0.71568,-0.0149 0.79861,-0.0186 z m -4.88202,0.0223 0.71393,0.0186 0.71199,0.0186 -0.0112,0.38869 c -0.004,0.21635 -0.0149,0.39651 -0.0186,0.39644 -0.007,0.003 -0.33291,0.0149 -0.7197,0.0186 l -0.69851,0.0112 0.0112,-0.4272 z"/>
</svg>
