<?xml version="1.0" encoding="UTF-8" standalone="no"?>
<svg xmlns="http://www.w3.org/2000/svg" xmlns:svg="http://www.w3.org/2000/svg" width="100%" height="100%" viewBox="0 0 246.09802 246.09758" version="1.1" id="svg16558">
  <path d="m 123.0446,23.048795 c -55.22326,0 -99.99559,44.770748 -99.99559,99.993825 0,55.22837 44.77233,100.00617 99.99559,100.00617 55.23208,0 100.00441,-44.77075 100.00441,-100.00617 0,-55.223077 -44.77233,-99.993825 -100.00441,-99.993825" style="display:inline;fill:#f7ef27;fill-opacity:1;fill-rule:evenodd;stroke:none;stroke-width:1.76384" id="path1716"/>
  <path id="rect1415-1" style="display:inline;fill:#e22e12;fill-opacity:1;stroke-width:0.251522;stroke-linecap:round;stroke-linejoin:round" d="M 7.01705,74.711475 A 125.76086,125.76086 0 0 0 0,97.337085 L 148.76093,246.09758 a 125.76086,125.76086 0 0 0 22.62518,-7.01662 z"/>
  <path id="rect994-3-8" style="display:inline;fill:#00a794;fill-opacity:1;stroke-width:0.251522;stroke-linecap:round;stroke-linejoin:round" d="m 28.08597,40.730604 a 125.76086,125.76086 0 0 0 -12.5073,17.13536 L 188.23249,230.51935 a 125.76086,125.76086 0 0 0 17.13449,-12.5073 z"/>
  <path id="rect994-6-7" style="display:inline;fill:#23a950;fill-opacity:1;stroke-width:0.251522;stroke-linecap:round;stroke-linejoin:round" d="M 57.94439,15.53967 A 125.76086,125.76086 0 0 0 40.79603,28.033537 L 218.06448,205.30156 a 125.76086,125.76086 0 0 0 12.49387,-17.14793 z"/>
  <path id="rect994-7-9" style="display:inline;fill:#003982;fill-opacity:1;stroke-width:0.251522;stroke-linecap:round;stroke-linejoin:round" d="M 97.4545,0 A 125.76086,125.76086 0 0 0 74.80463,6.99235 l 164.30103,164.30147 a 125.76086,125.76086 0 0 0 6.99236,-22.6503 z"/>
</svg>
