<?xml version="1.0" encoding="UTF-8" standalone="no"?>
<svg height="50" viewBox="0 0 280 50" fill="none" version="1.1" id="jg123" width="280" xmlns="http://www.w3.org/2000/svg" xmlns:svg="http://www.w3.org/2000/svg">
  <rect style="fill:#c080f4;stroke:none" id="rect" width="280" height="50" x="0" y="0" rx="10" ry="10" />
  <path id="donateto123rd" style="fill:#808080;stroke:none" d="m 50.478516,10.068359 v 10.658203 h 4.050781 c 1.179212,0 2.181356,-0.207865 3.007812,-0.621093 0.826456,-0.413228 1.457239,-1.01628 1.890625,-1.8125 0.433386,-0.79622 0.650391,-1.7654 0.650391,-2.904297 0,-1.138897 -0.217005,-2.100578 -0.650391,-2.886719 -0.433386,-0.79622 -1.064169,-1.401225 -1.890625,-1.814453 -0.826456,-0.413228 -1.8286,-0.619141 -3.007812,-0.619141 z m 36.460937,1.027344 v 2.162109 h -1.496094 v 1.527344 h 1.435547 v 3.113282 c 0,0.967558 0.246377,1.70864 0.740235,2.222656 0.503936,0.503936 1.265251,0.755859 2.283203,0.755859 0.292283,0 0.579123,-0.02937 0.861328,-0.08984 0.292283,-0.06047 0.544206,-0.146946 0.755859,-0.257812 L 91.232422,19.0625 c -0.171339,0.0504 -0.342334,0.09641 -0.513672,0.136719 -0.16126,0.03023 -0.326708,0.04492 -0.498047,0.04492 -0.4737,0 -0.821236,-0.115846 -1.042969,-0.347657 -0.221732,-0.241889 -0.333984,-0.604111 -0.333984,-1.08789 v -3.023438 h 2.404297 V 13.257812 H 88.84375 v -2.162109 z m 16.994137,0 v 2.162109 h -1.49609 v 1.527344 h 1.43555 v 3.113282 c 0,0.967558 0.24637,1.70864 0.74023,2.222656 0.50393,0.503936 1.26525,0.755859 2.2832,0.755859 0.29229,0 0.57913,-0.02937 0.86133,-0.08984 0.29229,-0.06047 0.54421,-0.146946 0.75586,-0.257812 L 108.22656,19.0625 c -0.17134,0.0504 -0.34233,0.09641 -0.51367,0.136719 -0.16126,0.03023 -0.32671,0.04492 -0.49805,0.04492 -0.4737,0 -0.82124,-0.115846 -1.04296,-0.347657 -0.22173,-0.241889 -0.33399,-0.604111 -0.33399,-1.08789 v -3.023438 h 2.4043 V 13.25781 h -2.4043 v -2.162109 z m -51.460934,0.634766 h 1.935547 c 1.189291,0 2.086682,0.303479 2.691406,0.908203 0.604724,0.604724 0.90625,1.520395 0.90625,2.75 0,1.229605 -0.301526,2.152775 -0.90625,2.767578 -0.604724,0.604724 -1.502115,0.90625 -2.691406,0.90625 h -1.935547 z m 12.347656,1.376953 c -0.786141,0 -1.472073,0.159902 -2.05664,0.482422 -0.574487,0.31244 -1.023184,0.761136 -1.345703,1.345703 -0.312442,0.574487 -0.46875,1.26042 -0.46875,2.056641 0,0.786141 0.156308,1.472073 0.46875,2.05664 0.322519,0.584567 0.771216,1.036856 1.345703,1.359375 0.584567,0.312441 1.2705,0.46875 2.05664,0.46875 0.796221,0 1.482153,-0.156309 2.056641,-0.46875 0.574487,-0.322519 1.017637,-0.774808 1.330078,-1.359375 0.32252,-0.584567 0.484375,-1.270499 0.484375,-2.05664 0,-0.786142 -0.161855,-1.472074 -0.484375,-2.056641 -0.312441,-0.584567 -0.755591,-1.033263 -1.330078,-1.345703 -0.574488,-0.32252 -1.260421,-0.482422 -2.056641,-0.482422 z m 9.353516,0 c -0.594645,0 -1.127862,0.145217 -1.601562,0.4375 -0.425847,0.253696 -0.754015,0.611031 -0.984375,1.068359 v -1.355469 h -1.859375 v 7.46875 h 1.966796 v -4.126953 c 10e-7,-0.372913 0.07538,-0.705762 0.226563,-0.998047 0.16126,-0.292282 0.381857,-0.518428 0.664063,-0.679687 0.282203,-0.16126 0.605914,-0.242188 0.96875,-0.242187 0.322518,-1e-6 0.583581,0.06069 0.785156,0.18164 0.201574,0.120945 0.348744,0.301079 0.439453,0.542969 0.100787,0.241889 0.150391,0.548962 0.150391,0.921875 v 4.40039 h 1.964843 v -4.490234 c 0,-0.705511 -0.101159,-1.290285 -0.302734,-1.753906 -0.201575,-0.463622 -0.503101,-0.805612 -0.90625,-1.027344 -0.403149,-0.231811 -0.906995,-0.347656 -1.511719,-0.347656 z m 7.509766,0 c -0.382992,0 -0.782085,0.04046 -1.195313,0.121094 -0.403149,0.07055 -0.791149,0.169758 -1.164062,0.300781 -0.372914,0.131024 -0.705764,0.292879 -0.998047,0.484375 l 0.544922,1.345703 c 0.463622,-0.272126 0.912318,-0.468899 1.345703,-0.589844 0.443464,-0.120945 0.871928,-0.18164 1.285156,-0.18164 0.564409,0 0.972641,0.106705 1.224609,0.318359 0.262047,0.211653 0.392579,0.568329 0.392579,1.072266 v 0.273437 H 82.46875 c -1.058267,0 -1.915195,0.07538 -2.570312,0.226563 -0.655119,0.15118 -1.133185,0.39201 -1.435547,0.724609 -0.302362,0.322519 -0.453125,0.762076 -0.453125,1.316406 0,0.443464 0.121391,0.84615 0.363281,1.208985 0.251968,0.352755 0.588412,0.634049 1.011719,0.845703 0.433386,0.201574 0.922545,0.302734 1.466796,0.302734 0.423307,0 0.796621,-0.06984 1.119141,-0.210937 0.332598,-0.151182 0.608346,-0.353501 0.830078,-0.605469 0.200454,-0.226601 0.352598,-0.478457 0.455078,-0.757813 v 1.423828 h 1.738282 v -4.505859 c 0,-0.725669 -0.126938,-1.314035 -0.378907,-1.767578 -0.251968,-0.453543 -0.623329,-0.79194 -1.117187,-1.013672 -0.493858,-0.221732 -1.098863,-0.332031 -1.814453,-0.332031 z m 13.642578,0 c -0.765984,0 -1.437232,0.170995 -2.011719,0.513672 -0.574488,0.332598 -1.023184,0.790433 -1.345703,1.375 C 91.656309,15.570582 91.5,16.236282 91.5,16.992188 c 0,0.796219 0.167402,1.485745 0.5,2.070312 0.332598,0.584567 0.810666,1.033262 1.435547,1.345703 0.634961,0.312441 1.396274,0.46875 2.283203,0.46875 0.524094,0 1.053718,-0.07538 1.587891,-0.226562 0.544252,-0.16126 1.002087,-0.387405 1.375,-0.679688 l -0.544922,-1.330078 c -0.342678,0.262047 -0.725131,0.447728 -1.148438,0.558594 -0.413228,0.110866 -0.82146,0.166015 -1.224609,0.166015 -0.524094,0 -0.967244,-0.08452 -1.330078,-0.255859 -0.362835,-0.171338 -0.63499,-0.434353 -0.816406,-0.787109 -0.116241,-0.232479 -0.194567,-0.505311 -0.236329,-0.816407 h 5.451172 v -0.589843 c 0,-0.786142 -0.145216,-1.460982 -0.4375,-2.025391 -0.282204,-0.574487 -0.684889,-1.012091 -1.208984,-1.314453 -0.524094,-0.312441 -1.143785,-0.46875 -1.859375,-0.46875 z m 17.039058,0 c -0.78614,0 -1.47207,0.159902 -2.05664,0.482422 -0.57448,0.31244 -1.02318,0.761136 -1.3457,1.345703 -0.31244,0.574487 -0.46875,1.26042 -0.46875,2.056641 0,0.786141 0.15631,1.472073 0.46875,2.05664 0.32252,0.584567 0.77122,1.036856 1.3457,1.359375 0.58457,0.312441 1.2705,0.46875 2.05664,0.46875 0.79622,0 1.48215,-0.156309 2.05665,-0.46875 0.57447,-0.322519 1.01763,-0.774808 1.33007,-1.359375 0.32252,-0.584567 0.48242,-1.270499 0.48243,-2.05664 0,-0.786142 -0.15991,-1.472074 -0.48243,-2.056641 -0.31244,-0.584567 -0.7556,-1.033263 -1.33007,-1.345703 -0.57449,-0.32252 -1.26043,-0.482422 -2.05665,-0.482422 z M 23.869141,14 a 12,12 0 0 0 -7.78125,2.978516 12,12 0 0 0 -2.208985,15.46875 12,12 0 0 0 14.953125,4.537109 12,12 0 0 0 6.953125,-13.240234 H 27.167969 L 22.322266,28 h 7.310546 A 6,6 0 0 1 24,32 a 6,6 0 0 1 -6,-6 6,6 0 0 1 6,-6 6,6 0 0 1 3.451172,1.121094 l 4.261719,-4.314453 A 12,12 0 0 0 23.869141,14 Z m 71.501953,0.466797 c 0.584566,0 1.033262,0.182088 1.345703,0.544922 0.283766,0.310369 0.442466,0.754434 0.476562,1.330078 h -3.822265 c 0.03525,-0.301444 0.105623,-0.568688 0.214844,-0.800781 0.171338,-0.342678 0.408575,-0.605693 0.710937,-0.78711 0.302362,-0.191496 0.660991,-0.287109 1.074219,-0.287109 z m -30.550782,0.181641 c 0.594646,0 1.063575,0.202319 1.40625,0.605468 0.342679,0.393071 0.513672,0.966753 0.513672,1.722656 0,0.755906 -0.170993,1.340679 -0.513672,1.753907 -0.342675,0.403149 -0.811604,0.605469 -1.40625,0.605469 -0.584565,0 -1.053494,-0.20232 -1.40625,-0.605469 -0.342677,-0.413228 -0.513671,-0.998 -0.513671,-1.753907 0,-0.755904 0.170994,-1.329585 0.513671,-1.722656 0.352756,-0.403149 0.821685,-0.605469 1.40625,-0.605468 z m 47.544918,0 c 0.59464,0 1.06357,0.202319 1.40625,0.605468 0.34268,0.393071 0.51368,0.966753 0.51368,1.722656 0,0.755906 -0.171,1.340679 -0.51368,1.753907 -0.34268,0.403149 -0.81161,0.605469 -1.40625,0.605469 -0.58456,0 -1.05349,-0.20232 -1.40625,-0.605469 -0.34267,-0.413228 -0.51367,-0.998 -0.51367,-1.753907 0,-0.755904 0.171,-1.329585 0.51367,-1.722656 0.35276,-0.403149 0.82169,-0.605469 1.40625,-0.605468 z m -29.835933,2.751953 h 0.589844 v 0.271484 c 0,0.342677 -0.08647,0.655295 -0.257813,0.9375 -0.161259,0.272126 -0.376311,0.489131 -0.648437,0.650391 -0.272126,0.16126 -0.581152,0.242187 -0.923829,0.242187 -0.423305,0 -0.754203,-0.09561 -0.996093,-0.287109 -0.24189,-0.191496 -0.363282,-0.458104 -0.363281,-0.800782 0,-0.191494 0.04406,-0.353352 0.134765,-0.484374 0.100787,-0.131026 0.253504,-0.232184 0.455078,-0.302735 0.211654,-0.08063 0.478263,-0.135782 0.800781,-0.166015 0.3326,-0.04031 0.735285,-0.06055 1.208985,-0.06055 z M 55.587891,29.884766 c -1.03811,0 -1.929956,0.220598 -2.675782,0.664062 -0.745826,0.443465 -1.32146,1.074248 -1.724609,1.890625 -0.403149,0.806299 -0.603516,1.773526 -0.603516,2.902344 0,1.128818 0.200367,2.101591 0.603516,2.917969 0.403149,0.816377 0.978783,1.44716 1.724609,1.890625 0.745826,0.443464 1.637672,0.664062 2.675782,0.664062 0.735747,0 1.410588,-0.115845 2.02539,-0.347656 0.624882,-0.231811 1.154505,-0.564661 1.587891,-0.998047 l -0.5,-1.042969 c -0.463621,0.423308 -0.947235,0.730379 -1.451172,0.921875 -0.493858,0.191496 -1.04176,0.28711 -1.646484,0.28711 -1.159055,0 -2.061993,-0.371362 -2.707032,-1.117188 -0.63496,-0.745826 -0.953125,-1.805073 -0.953125,-3.175781 0,-1.380787 0.318165,-2.438081 0.953125,-3.173828 0.645039,-0.735748 1.547977,-1.103516 2.707032,-1.103516 0.604724,0 1.152626,0.09561 1.646484,0.287109 0.503937,0.191497 0.987551,0.498568 1.451172,0.921876 l 0.5,-1.042969 c -0.433386,-0.443465 -0.963009,-0.776315 -1.587891,-0.998047 -0.614802,-0.231811 -1.289643,-0.347656 -2.02539,-0.347656 z m 62.535159,0 c -0.77607,0 -1.46755,0.130531 -2.07227,0.392578 -0.60473,0.251968 -1.07725,0.61419 -1.41992,1.08789 -0.3326,0.463622 -0.5,1.007932 -0.5,1.632813 0,0.755905 0.22255,1.372002 0.66602,1.845703 0.45353,0.463621 1.16329,0.796472 2.13085,0.998047 l 1.64844,0.332031 c 0.49386,0.09071 0.891,0.206554 1.19336,0.347656 0.31244,0.141102 0.54054,0.317644 0.68164,0.529297 0.1411,0.201575 0.21094,0.453498 0.21094,0.75586 0,0.564409 -0.22255,1.018651 -0.66602,1.361328 -0.44346,0.332598 -1.1036,0.498047 -1.98047,0.498047 -0.49385,0 -0.95168,-0.04046 -1.375,-0.121094 -0.42329,-0.08063 -0.82239,-0.205615 -1.19531,-0.376953 -0.37291,-0.171338 -0.73513,-0.388344 -1.08789,-0.650391 l -0.46875,1.058594 c 0.3326,0.272126 0.71146,0.49827 1.13477,0.679687 0.4233,0.181417 0.88669,0.323041 1.39062,0.423829 0.50394,0.09071 1.03717,0.134765 1.60156,0.134765 0.8063,0 1.50692,-0.130531 2.10157,-0.392578 0.59464,-0.262047 1.04889,-0.624269 1.36133,-1.087891 0.32252,-0.463621 0.48437,-0.993245 0.48437,-1.58789 0,-0.735748 -0.24833,-1.320521 -0.74219,-1.753906 -0.48378,-0.443464 -1.23953,-0.765223 -2.26758,-0.966797 l -1.63281,-0.333985 c -0.68535,-0.141102 -1.17451,-0.341469 -1.46679,-0.603515 -0.2822,-0.272126 -0.42188,-0.639894 -0.42188,-1.103516 0,-0.403149 0.11031,-0.750685 0.33203,-1.042969 0.23182,-0.292282 0.54998,-0.514834 0.95313,-0.666015 0.40315,-0.16126 0.86653,-0.242188 1.39062,-0.242188 0.62488,0 1.18942,0.09561 1.69336,0.287109 0.51401,0.181419 0.99208,0.479351 1.43555,0.892579 l 0.46875,-1.042969 c -0.28221,-0.272125 -0.60951,-0.503817 -0.98242,-0.695313 -0.37292,-0.201574 -0.7756,-0.348744 -1.20899,-0.439453 -0.43338,-0.100787 -0.89677,-0.15039 -1.39062,-0.15039 z m 43.6289,0 c -1.05826,0 -1.97033,0.220598 -2.73633,0.664062 -0.75589,0.433386 -1.34067,1.058623 -1.7539,1.875 -0.40315,0.816377 -0.60547,1.794697 -0.60547,2.933594 0,1.138897 0.20232,2.117216 0.60547,2.933594 0.41323,0.816377 1.01269,1.439661 1.79883,1.873046 0.78614,0.433386 1.74423,0.650391 2.87304,0.650391 0.43339,0 0.87654,-0.03492 1.33008,-0.105469 0.46362,-0.06047 0.90123,-0.146946 1.31445,-0.257812 0.41323,-0.120945 0.76272,-0.251476 1.04493,-0.392578 v -4.988282 h -3.8418 v 1.072266 h 2.69141 v 3.111328 c -0.31534,0.108478 -0.65174,0.200395 -1.01172,0.275391 -0.4737,0.09071 -0.97396,0.136719 -1.49805,0.136719 -1.30016,0 -2.28207,-0.362222 -2.94727,-1.087891 -0.66519,-0.725669 -0.99804,-1.799602 -0.99804,-3.220703 0,-1.390865 0.32175,-2.453706 0.9668,-3.189453 0.64502,-0.735748 1.5682,-1.103516 2.76757,-1.103516 0.65512,0 1.24544,0.09007 1.76953,0.271485 0.53418,0.181416 1.03802,0.482943 1.51172,0.90625 l 0.49805,-1.027344 c -0.29228,-0.292284 -0.63427,-0.533114 -1.02734,-0.72461 -0.39308,-0.201574 -0.82154,-0.35429 -1.28516,-0.455078 -0.46362,-0.100787 -0.95278,-0.15039 -1.4668,-0.15039 z M 60.912109,30.021484 v 10.658204 h 1.285157 v -4.189454 c 0,-0.443464 0.09561,-0.835057 0.287109,-1.177734 0.191496,-0.342677 0.458104,-0.611238 0.800781,-0.802734 0.342677,-0.201575 0.74177,-0.300782 1.195313,-0.300782 0.403149,0 0.730453,0.07538 0.982422,0.226563 0.251968,0.141102 0.432102,0.358106 0.542968,0.650391 0.120945,0.292282 0.181641,0.648958 0.181641,1.072265 v 4.521485 h 1.285156 v -4.597657 c 0,-0.655118 -0.101159,-1.197474 -0.302734,-1.630859 -0.201575,-0.443464 -0.503101,-0.772722 -0.90625,-0.984375 -0.393071,-0.221733 -0.89137,-0.332031 -1.496094,-0.332031 -0.614803,0 -1.164658,0.150763 -1.648437,0.453125 -0.404221,0.258013 -0.716754,0.609292 -0.9375,1.050781 v -4.617188 z m 22.775391,0 v 8.298828 c 0,0.79622 0.191227,1.410365 0.574219,1.84375 0.39307,0.433386 0.957612,0.650391 1.693359,0.650391 0.181417,0 0.352413,-0.01469 0.513672,-0.04492 0.16126,-0.02016 0.321163,-0.04953 0.482422,-0.08984 l 0.01563,-1.044922 c -0.131024,0.04031 -0.261555,0.06609 -0.392578,0.07617 -0.120945,0.01008 -0.247882,0.01563 -0.378907,0.01562 -0.262045,1e-6 -0.482645,-0.05515 -0.664062,-0.166015 -0.181417,-0.110866 -0.323041,-0.281861 -0.423828,-0.513672 -0.09071,-0.231811 -0.136719,-0.509512 -0.136719,-0.832031 v -8.19336 z m 4.658203,1.011719 v 2.238281 h -1.511719 v 1.027344 h 1.480469 v 3.810547 c 0,0.866771 0.222551,1.536065 0.666016,2.009766 0.443464,0.463621 1.109166,0.695312 1.996093,0.695312 0.262047,0 0.523109,-0.02937 0.785157,-0.08984 0.272126,-0.06047 0.494677,-0.135853 0.666015,-0.226562 L 92.201172,39.5 c -0.151181,0.06047 -0.318583,0.110077 -0.5,0.150391 -0.181417,0.04031 -0.361552,0.06055 -0.542969,0.06055 -0.544251,-10e-7 -0.943344,-0.141624 -1.195312,-0.423829 -0.24189,-0.292283 -0.363282,-0.72434 -0.363282,-1.298828 v -3.689453 h 2.509766 v -1.027344 h -2.509766 v -2.238281 z m 59.689457,0 v 2.238281 h -1.51172 v 1.027344 h 1.48242 v 3.810547 c 0,0.866771 0.2206,1.536065 0.66406,2.009766 0.44346,0.463621 1.10917,0.695312 1.9961,0.695312 0.26205,0 0.52311,-0.02937 0.78515,-0.08984 0.27212,-0.06047 0.49468,-0.135853 0.66602,-0.226562 L 151.89062,39.5 c -0.15117,0.06047 -0.31856,0.110077 -0.5,0.150391 -0.1814,0.04031 -0.36154,0.06055 -0.54296,0.06055 -0.54426,-10e-7 -0.94335,-0.141624 -1.19532,-0.423829 -0.24188,-0.292283 -0.36328,-0.72434 -0.36328,-1.298828 v -3.689453 h 2.50977 v -1.027344 h -2.50977 v -2.238281 z m -65.621098,2.056641 -0.558593,0.04492 c -0.675276,0.05039 -1.234271,0.232481 -1.677735,0.544922 -0.386799,0.26986 -0.669595,0.648138 -0.847656,1.134765 v -1.542969 h -1.208984 v 7.408204 h 1.300781 v -4.158204 c 0,-0.624881 0.18568,-1.128726 0.558594,-1.511718 0.382991,-0.39307 0.921755,-0.619215 1.617187,-0.679688 l 0.9375,-0.0918 z m 89.771488,0 -0.5586,0.04492 c -0.67528,0.05039 -1.23427,0.232481 -1.67773,0.544922 -0.3868,0.26986 -0.6696,0.648138 -0.84766,1.134765 v -1.542969 h -1.20898 v 7.408204 h 1.29883 v -4.158204 c 0,-0.624881 0.18763,-1.128726 0.56054,-1.511718 0.383,-0.39307 0.92176,-0.619215 1.61719,-0.679688 l 0.9375,-0.0918 z m -99.4043,0.04492 c -0.735748,0 -1.375671,0.161855 -1.919922,0.484375 -0.534173,0.31244 -0.947951,0.75559 -1.240234,1.330078 -0.292284,0.564409 -0.4375,1.233703 -0.4375,2.009765 0,0.786142 0.145216,1.466529 0.4375,2.041016 0.292283,0.574488 0.706061,1.023184 1.240234,1.345703 0.544251,0.312441 1.184174,0.46875 1.919922,0.46875 0.735747,0 1.372077,-0.156309 1.90625,-0.46875 0.544252,-0.322519 0.961623,-0.771215 1.253906,-1.345703 0.292284,-0.574487 0.4375,-1.254874 0.4375,-2.041016 0,-0.776062 -0.145216,-1.445356 -0.4375,-2.009765 -0.292283,-0.574488 -0.709654,-1.017638 -1.253906,-1.330078 -0.534173,-0.32252 -1.170503,-0.484375 -1.90625,-0.484375 z m 23.730469,0 c -0.735748,0 -1.37567,0.161855 -1.919922,0.484375 -0.534173,0.31244 -0.947951,0.75559 -1.240235,1.330078 -0.292282,0.564409 -0.4375,1.233703 -0.4375,2.009765 0,0.786142 0.145218,1.466529 0.4375,2.041016 0.292284,0.574488 0.706062,1.023184 1.240235,1.345703 0.544252,0.312441 1.184174,0.46875 1.919922,0.46875 0.735747,0 1.370123,-0.156309 1.904297,-0.46875 0.544251,-0.322519 0.963576,-0.771215 1.255859,-1.345703 0.292286,-0.574487 0.437495,-1.254874 0.437505,-2.041016 -2e-5,-0.776062 -0.145219,-1.445356 -0.437505,-2.009765 -0.292283,-0.574488 -0.711608,-1.017638 -1.255859,-1.330078 -0.534174,-0.32252 -1.16855,-0.484375 -1.904297,-0.484375 z m 9.193361,0 c -0.61481,0 -1.16271,0.150763 -1.64649,0.453125 -0.43288,0.270552 -0.7613,0.652191 -0.98437,1.140625 v -1.457032 h -1.22461 v 7.408204 h 1.28516 v -4.189454 c 0,-0.443464 0.0956,-0.835057 0.28711,-1.177734 0.19149,-0.342677 0.46005,-0.611238 0.80273,-0.802734 0.34267,-0.201575 0.73981,-0.300782 1.19336,-0.300782 0.40315,0 0.73045,0.07538 0.98242,0.226563 0.25197,0.141102 0.43406,0.358107 0.54492,0.650391 0.12095,0.292282 0.18164,0.648958 0.18164,1.072265 v 4.521485 h 1.28516 v -4.597657 c 0,-0.665196 -0.10116,-1.213099 -0.30273,-1.646484 -0.20159,-0.443464 -0.50311,-0.770768 -0.90626,-0.982422 -0.39306,-0.211653 -0.89332,-0.318359 -1.49804,-0.318359 z m 21.14258,0 c -0.74583,0 -1.39684,0.156309 -1.95118,0.46875 -0.55432,0.302362 -0.98084,0.739965 -1.2832,1.314453 -0.29229,0.564409 -0.43945,1.241202 -0.43945,2.027343 0,0.776063 0.14716,1.456449 0.43945,2.041016 0.30236,0.574488 0.72528,1.023184 1.26953,1.345703 0.55433,0.32252 1.20894,0.482422 1.96485,0.482422 0.4737,0 0.93708,-0.08093 1.39062,-0.242187 0.45355,-0.171339 0.82686,-0.40303 1.11914,-0.695313 l -0.43945,-0.9375 c -0.29229,0.262047 -0.61404,0.464366 -0.9668,0.605469 -0.35275,0.131023 -0.69115,0.197266 -1.01367,0.197266 -0.77607,0 -1.37912,-0.24833 -1.8125,-0.742188 -0.43339,-0.493858 -0.65039,-1.174245 -0.65039,-2.041016 0,-0.886928 0.217,-1.567315 0.65039,-2.041015 0.43338,-0.473701 1.03643,-0.708985 1.8125,-0.708985 0.33259,0 0.67654,0.06983 1.0293,0.210938 0.35275,0.131023 0.67451,0.333343 0.96679,0.605469 l 0.43946,-0.953125 c -0.29228,-0.292284 -0.6656,-0.518428 -1.11914,-0.679688 -0.45354,-0.171339 -0.92247,-0.257812 -1.40625,-0.257812 z m 6.80468,0 c -0.73574,0 -1.37566,0.161855 -1.91992,0.484375 -0.53417,0.31244 -0.946,0.75559 -1.23828,1.330078 -0.29229,0.564409 -0.43945,1.233703 -0.43945,2.009765 0,0.786142 0.14716,1.466529 0.43945,2.041016 0.29228,0.574488 0.70411,1.023184 1.23828,1.345703 0.54426,0.312441 1.18418,0.46875 1.91992,0.46875 0.73575,0 1.37208,-0.156309 1.90625,-0.46875 0.54426,-0.322519 0.96163,-0.771215 1.25391,-1.345703 0.29229,-0.574487 0.43945,-1.254874 0.43945,-2.041016 0,-0.776062 -0.14716,-1.445356 -0.43945,-2.009765 -0.29228,-0.574488 -0.70965,-1.017638 -1.25391,-1.330078 -0.53417,-0.32252 -1.1705,-0.484375 -1.90625,-0.484375 z m 42.875,0 c -0.73574,0 -1.37566,0.161855 -1.91992,0.484375 -0.53417,0.31244 -0.94795,0.75559 -1.24023,1.330078 -0.29229,0.564409 -0.4375,1.233703 -0.4375,2.009765 0,0.786142 0.14521,1.466529 0.4375,2.041016 0.29228,0.574488 0.70606,1.023184 1.24023,1.345703 0.54426,0.312441 1.18418,0.46875 1.91992,0.46875 0.73575,0 1.37013,-0.156309 1.9043,-0.46875 0.54425,-0.322519 0.96357,-0.771215 1.25586,-1.345703 0.29228,-0.574487 0.4375,-1.254874 0.4375,-2.041016 0,-0.776062 -0.14522,-1.445356 -0.4375,-2.009765 -0.29229,-0.574488 -0.71161,-1.017638 -1.25586,-1.330078 -0.53417,-0.32252 -1.16855,-0.484375 -1.9043,-0.484375 z m 17.8125,0 c -0.65511,0 -1.22325,0.161855 -1.70703,0.484375 -0.41614,0.283328 -0.72352,0.658902 -0.92187,1.128906 v -1.476563 h -1.22461 v 10.128907 h 1.28515 v -4.13086 c 0.19746,0.431533 0.49352,0.786249 0.89063,1.0625 0.4737,0.32252 1.03269,0.482422 1.67773,0.482422 0.68536,0 1.27566,-0.156309 1.76954,-0.46875 0.50394,-0.322519 0.89194,-0.771215 1.16406,-1.345703 0.27212,-0.584567 0.4082,-1.259407 0.4082,-2.025391 0,-0.786141 -0.14163,-1.460981 -0.42383,-2.02539 -0.27212,-0.574488 -0.66012,-1.017638 -1.16406,-1.330078 -0.49385,-0.32252 -1.07863,-0.484375 -1.75391,-0.484375 z m -55.37695,0.136718 v 4.595704 c 0,0.645037 0.0992,1.189347 0.30078,1.632812 0.20158,0.433385 0.50505,0.76069 0.90821,0.982422 0.41321,0.221732 0.92261,0.332031 1.52734,0.332031 0.6148,0 1.14247,-0.156309 1.58594,-0.46875 0.3946,-0.271842 0.70274,-0.643069 0.92187,-1.113281 v 1.447266 h 1.21094 v -7.408204 h -1.28516 v 4.1875 c 0,0.433386 -0.0956,0.821386 -0.28711,1.164063 -0.18142,0.342677 -0.43888,0.614831 -0.77148,0.816406 -0.32252,0.201575 -0.69584,0.302735 -1.11914,0.302735 -0.40315,0 -0.73046,-0.07179 -0.98242,-0.212891 -0.25197,-0.151181 -0.43765,-0.368186 -0.5586,-0.650391 -0.11086,-0.292282 -0.16797,-0.643412 -0.16797,-1.05664 v -4.550782 z m 42.87305,0 v 4.595704 c 0,0.645037 0.10116,1.189347 0.30273,1.632812 0.20158,0.433385 0.50311,0.76069 0.90625,0.982422 0.41323,0.221732 0.92262,0.332031 1.52735,0.332031 0.6148,0 1.14442,-0.156309 1.58789,-0.46875 0.39572,-0.272614 0.70262,-0.645075 0.92187,-1.117187 v 1.451172 h 1.20899 v -7.408204 h -1.28516 v 4.1875 c 0,0.433386 -0.0956,0.821386 -0.28711,1.164063 -0.18142,0.342677 -0.43888,0.614831 -0.77148,0.816406 -0.32252,0.201575 -0.69389,0.302735 -1.11719,0.302735 -0.40316,0 -0.73241,-0.07179 -0.98438,-0.212891 -0.25196,-0.151181 -0.43764,-0.368186 -0.55859,-0.650391 -0.11087,-0.292282 -0.16602,-0.643412 -0.16602,-1.05664 v -4.550782 z m 12.23242,0.90625 c 0.71559,0 1.28013,0.242784 1.69336,0.726563 0.41323,0.483779 0.61914,1.167759 0.61914,2.054687 0,0.886929 -0.20591,1.578409 -0.61914,2.072266 -0.41323,0.493858 -0.97777,0.740234 -1.69336,0.740234 -0.70551,0 -1.27005,-0.246376 -1.69336,-0.740234 -0.41323,-0.493857 -0.61914,-1.185337 -0.61914,-2.072266 0,-0.886928 0.20591,-1.570908 0.61914,-2.054687 0.42331,-0.483779 0.98785,-0.726563 1.69336,-0.726563 z m -121.28711,0.01563 c 0.71559,0 1.280131,0.24083 1.693359,0.72461 0.413228,0.483779 0.621094,1.164165 0.621094,2.041015 0,0.87685 -0.207866,1.562783 -0.621094,2.056641 -0.413228,0.493858 -0.977769,0.740234 -1.693359,0.740234 -0.705511,0 -1.270053,-0.246376 -1.693359,-0.740234 -0.413229,-0.493858 -0.619141,-1.179791 -0.619141,-2.056641 0,-0.87685 0.205912,-1.557236 0.619141,-2.041015 0.413228,-0.48378 0.977769,-0.72461 1.693359,-0.72461 z m 23.730469,0 c 0.71559,0 1.280131,0.24083 1.693359,0.72461 0.413228,0.483779 0.619141,1.164165 0.619141,2.041015 0,0.87685 -0.205913,1.562783 -0.619141,2.056641 -0.413228,0.493858 -0.977769,0.740234 -1.693359,0.740234 -0.705512,0 -1.270053,-0.246376 -1.69336,-0.740234 -0.413228,-0.493858 -0.61914,-1.179791 -0.61914,-2.056641 0,-0.87685 0.205912,-1.557236 0.61914,-2.041015 0.413228,-0.48378 0.97777,-0.72461 1.69336,-0.72461 z m 37.140621,0 c 0.7156,0 1.28014,0.24083 1.69336,0.72461 0.41323,0.483779 0.6211,1.164165 0.6211,2.041015 0,0.87685 -0.20787,1.562783 -0.6211,2.056641 -0.41322,0.493858 -0.97776,0.740234 -1.69336,0.740234 -0.70551,0 -1.27005,-0.246376 -1.69336,-0.740234 -0.41322,-0.493858 -0.61914,-1.179791 -0.61914,-2.056641 0,-0.87685 0.20592,-1.557236 0.61914,-2.041015 0.41324,-0.48378 0.97778,-0.72461 1.69336,-0.72461 z m 42.875,0 c 0.7156,0 1.28014,0.24083 1.69336,0.72461 0.41323,0.483779 0.61914,1.164165 0.61914,2.041015 0,0.87685 -0.20591,1.562783 -0.61914,2.056641 -0.41322,0.493858 -0.97776,0.740234 -1.69336,0.740234 -0.7055,0 -1.27004,-0.246376 -1.69336,-0.740234 -0.41322,-0.493858 -0.61914,-1.179791 -0.61914,-2.056641 0,-0.87685 0.20592,-1.557236 0.61914,-2.041015 0.41324,-0.48378 0.97778,-0.72461 1.69336,-0.72461 z" />
</svg>
