<?xml version="1.0" encoding="UTF-8" standalone="no"?>
<svg height="50" viewBox="0 0 280 50" fill="none" version="1.1" id="jg23" width="280" xmlns="http://www.w3.org/2000/svg" xmlns:svg="http://www.w3.org/2000/svg">
  <rect style="fill:#7a04dd;stroke:none" id="rect" width="280" height="50" x="0" y="0" rx="10" ry="10" />
  <path id="donateto23rd" style="fill:#ffffff;stroke:none" d="m 50.478516,10.068359 v 10.658203 h 4.050781 c 1.179212,0 2.181356,-0.207865 3.007812,-0.621093 0.826456,-0.413228 1.457239,-1.01628 1.890625,-1.8125 0.433386,-0.79622 0.650391,-1.7654 0.650391,-2.904297 0,-1.138897 -0.217005,-2.100578 -0.650391,-2.886719 -0.433386,-0.79622 -1.064169,-1.401225 -1.890625,-1.814453 -0.826456,-0.413228 -1.8286,-0.619141 -3.007812,-0.619141 z m 36.460937,1.027344 v 2.162109 h -1.496094 v 1.527344 h 1.435547 v 3.113282 c 0,0.967558 0.246377,1.70864 0.740235,2.222656 0.503936,0.503936 1.265251,0.755859 2.283203,0.755859 0.292283,0 0.579123,-0.02937 0.861328,-0.08984 0.292283,-0.06047 0.544206,-0.146946 0.755859,-0.257812 L 91.232422,19.0625 c -0.171339,0.0504 -0.342334,0.09641 -0.513672,0.136719 -0.16126,0.03023 -0.326708,0.04492 -0.498047,0.04492 -0.4737,0 -0.821236,-0.115846 -1.042969,-0.347657 -0.221732,-0.241889 -0.333984,-0.604111 -0.333984,-1.08789 v -3.023438 h 2.404297 V 13.257812 H 88.84375 v -2.162109 z m 16.994137,0 v 2.162109 h -1.49609 v 1.527344 h 1.43555 v 3.113282 c 0,0.967558 0.24637,1.70864 0.74023,2.222656 0.50393,0.503936 1.26525,0.755859 2.2832,0.755859 0.29229,0 0.57913,-0.02937 0.86133,-0.08984 0.29229,-0.06047 0.54421,-0.146946 0.75586,-0.257812 L 108.22656,19.0625 c -0.17134,0.0504 -0.34233,0.09641 -0.51367,0.136719 -0.16126,0.03023 -0.32671,0.04492 -0.49805,0.04492 -0.4737,0 -0.82124,-0.115846 -1.04296,-0.347657 -0.22173,-0.241889 -0.33399,-0.604111 -0.33399,-1.08789 v -3.023438 h 2.4043 V 13.25781 h -2.4043 v -2.162109 z m -51.460934,0.634766 h 1.935547 c 1.189291,0 2.086682,0.303479 2.691406,0.908203 0.604724,0.604724 0.90625,1.520395 0.90625,2.75 0,1.229605 -0.301526,2.152775 -0.90625,2.767578 -0.604724,0.604724 -1.502115,0.90625 -2.691406,0.90625 h -1.935547 z m 12.347656,1.376953 c -0.786141,0 -1.472073,0.159902 -2.05664,0.482422 -0.574487,0.31244 -1.023184,0.761136 -1.345703,1.345703 -0.312442,0.574487 -0.46875,1.26042 -0.46875,2.056641 0,0.786141 0.156308,1.472073 0.46875,2.05664 0.322519,0.584567 0.771216,1.036856 1.345703,1.359375 0.584567,0.312441 1.2705,0.46875 2.05664,0.46875 0.796221,0 1.482153,-0.156309 2.056641,-0.46875 0.574487,-0.322519 1.017637,-0.774808 1.330078,-1.359375 0.32252,-0.584567 0.484375,-1.270499 0.484375,-2.05664 0,-0.786142 -0.161855,-1.472074 -0.484375,-2.056641 -0.312441,-0.584567 -0.755591,-1.033263 -1.330078,-1.345703 -0.574488,-0.32252 -1.260421,-0.482422 -2.056641,-0.482422 z m 9.353516,0 c -0.594645,0 -1.127862,0.145217 -1.601562,0.4375 -0.425847,0.253696 -0.754015,0.611031 -0.984375,1.068359 v -1.355469 h -1.859375 v 7.46875 h 1.966796 v -4.126953 c 10e-7,-0.372913 0.07538,-0.705762 0.226563,-0.998047 0.16126,-0.292282 0.381857,-0.518428 0.664063,-0.679687 0.282203,-0.16126 0.605914,-0.242188 0.96875,-0.242187 0.322518,-1e-6 0.583581,0.06069 0.785156,0.18164 0.201574,0.120945 0.348744,0.301079 0.439453,0.542969 0.100787,0.241889 0.150391,0.548962 0.150391,0.921875 v 4.40039 h 1.964843 v -4.490234 c 0,-0.705511 -0.101159,-1.290285 -0.302734,-1.753906 -0.201575,-0.463622 -0.503101,-0.805612 -0.90625,-1.027344 -0.403149,-0.231811 -0.906995,-0.347656 -1.511719,-0.347656 z m 7.509766,0 c -0.382992,0 -0.782085,0.04046 -1.195313,0.121094 -0.403149,0.07055 -0.791149,0.169758 -1.164062,0.300781 -0.372914,0.131024 -0.705764,0.292879 -0.998047,0.484375 l 0.544922,1.345703 c 0.463622,-0.272126 0.912318,-0.468899 1.345703,-0.589844 0.443464,-0.120945 0.871928,-0.18164 1.285156,-0.18164 0.564409,0 0.972641,0.106705 1.224609,0.318359 0.262047,0.211653 0.392579,0.568329 0.392579,1.072266 v 0.273437 H 82.46875 c -1.058267,0 -1.915195,0.07538 -2.570312,0.226563 -0.655119,0.15118 -1.133185,0.39201 -1.435547,0.724609 -0.302362,0.322519 -0.453125,0.762076 -0.453125,1.316406 0,0.443464 0.121391,0.84615 0.363281,1.208985 0.251968,0.352755 0.588412,0.634049 1.011719,0.845703 0.433386,0.201574 0.922545,0.302734 1.466796,0.302734 0.423307,0 0.796621,-0.06984 1.119141,-0.210937 0.332598,-0.151182 0.608346,-0.353501 0.830078,-0.605469 0.200454,-0.226601 0.352598,-0.478457 0.455078,-0.757813 v 1.423828 h 1.738282 v -4.505859 c 0,-0.725669 -0.126938,-1.314035 -0.378907,-1.767578 -0.251968,-0.453543 -0.623329,-0.79194 -1.117187,-1.013672 -0.493858,-0.221732 -1.098863,-0.332031 -1.814453,-0.332031 z m 13.642578,0 c -0.765984,0 -1.437232,0.170995 -2.011719,0.513672 -0.574488,0.332598 -1.023184,0.790433 -1.345703,1.375 C 91.656309,15.570582 91.5,16.236282 91.5,16.992188 c 0,0.796219 0.167402,1.485745 0.5,2.070312 0.332598,0.584567 0.810666,1.033262 1.435547,1.345703 0.634961,0.312441 1.396274,0.46875 2.283203,0.46875 0.524094,0 1.053718,-0.07538 1.587891,-0.226562 0.544252,-0.16126 1.002087,-0.387405 1.375,-0.679688 l -0.544922,-1.330078 c -0.342678,0.262047 -0.725131,0.447728 -1.148438,0.558594 -0.413228,0.110866 -0.82146,0.166015 -1.224609,0.166015 -0.524094,0 -0.967244,-0.08452 -1.330078,-0.255859 -0.362835,-0.171338 -0.63499,-0.434353 -0.816406,-0.787109 -0.116241,-0.232479 -0.194567,-0.505311 -0.236329,-0.816407 h 5.451172 v -0.589843 c 0,-0.786142 -0.145216,-1.460982 -0.4375,-2.025391 -0.282204,-0.574487 -0.684889,-1.012091 -1.208984,-1.314453 -0.524094,-0.312441 -1.143785,-0.46875 -1.859375,-0.46875 z m 17.039058,0 c -0.78614,0 -1.47207,0.159902 -2.05664,0.482422 -0.57448,0.31244 -1.02318,0.761136 -1.3457,1.345703 -0.31244,0.574487 -0.46875,1.26042 -0.46875,2.056641 0,0.786141 0.15631,1.472073 0.46875,2.05664 0.32252,0.584567 0.77122,1.036856 1.3457,1.359375 0.58457,0.312441 1.2705,0.46875 2.05664,0.46875 0.79622,0 1.48215,-0.156309 2.05665,-0.46875 0.57447,-0.322519 1.01763,-0.774808 1.33007,-1.359375 0.32252,-0.584567 0.48242,-1.270499 0.48243,-2.05664 0,-0.786142 -0.15991,-1.472074 -0.48243,-2.056641 -0.31244,-0.584567 -0.7556,-1.033263 -1.33007,-1.345703 -0.57449,-0.32252 -1.26043,-0.482422 -2.05665,-0.482422 z M 23.869141,14 a 12,12 0 0 0 -7.78125,2.978516 12,12 0 0 0 -2.208985,15.46875 12,12 0 0 0 14.953125,4.537109 12,12 0 0 0 6.953125,-13.240234 H 27.167969 L 22.322266,28 h 7.310546 A 6,6 0 0 1 24,32 a 6,6 0 0 1 -6,-6 6,6 0 0 1 6,-6 6,6 0 0 1 3.451172,1.121094 l 4.261719,-4.314453 A 12,12 0 0 0 23.869141,14 Z m 71.501953,0.466797 c 0.584566,0 1.033262,0.182088 1.345703,0.544922 0.283766,0.310369 0.442466,0.754434 0.476562,1.330078 h -3.822265 c 0.03525,-0.301444 0.105623,-0.568688 0.214844,-0.800781 0.171338,-0.342678 0.408575,-0.605693 0.710937,-0.78711 0.302362,-0.191496 0.660991,-0.287109 1.074219,-0.287109 z m -30.550782,0.181641 c 0.594646,0 1.063575,0.202319 1.40625,0.605468 0.342679,0.393071 0.513672,0.966753 0.513672,1.722656 0,0.755906 -0.170993,1.340679 -0.513672,1.753907 -0.342675,0.403149 -0.811604,0.605469 -1.40625,0.605469 -0.584565,0 -1.053494,-0.20232 -1.40625,-0.605469 -0.342677,-0.413228 -0.513671,-0.998 -0.513671,-1.753907 0,-0.755904 0.170994,-1.329585 0.513671,-1.722656 0.352756,-0.403149 0.821685,-0.605469 1.40625,-0.605468 z m 47.544918,0 c 0.59464,0 1.06357,0.202319 1.40625,0.605468 0.34268,0.393071 0.51368,0.966753 0.51368,1.722656 0,0.755906 -0.171,1.340679 -0.51368,1.753907 -0.34268,0.403149 -0.81161,0.605469 -1.40625,0.605469 -0.58456,0 -1.05349,-0.20232 -1.40625,-0.605469 -0.34267,-0.413228 -0.51367,-0.998 -0.51367,-1.753907 0,-0.755904 0.171,-1.329585 0.51367,-1.722656 0.35276,-0.403149 0.82169,-0.605469 1.40625,-0.605468 z m -29.835933,2.751953 h 0.589844 v 0.271484 c 0,0.342677 -0.08647,0.655295 -0.257813,0.9375 -0.161259,0.272126 -0.376311,0.489131 -0.648437,0.650391 -0.272126,0.16126 -0.581152,0.242187 -0.923829,0.242187 -0.423305,0 -0.754203,-0.09561 -0.996093,-0.287109 -0.24189,-0.191496 -0.363282,-0.458104 -0.363281,-0.800782 0,-0.191494 0.04406,-0.353352 0.134765,-0.484374 0.100787,-0.131026 0.253504,-0.232184 0.455078,-0.302735 0.211654,-0.08063 0.478263,-0.135782 0.800781,-0.166015 0.3326,-0.04031 0.735285,-0.06055 1.208985,-0.06055 z M 53.939453,29.884766 c -0.665197,0 -1.305119,0.121392 -1.919922,0.363281 -0.604724,0.24189 -1.117709,0.569194 -1.541015,0.982422 l 0.498046,1.011719 c 0.423308,-0.423308 0.877549,-0.730379 1.361329,-0.921876 0.483779,-0.201574 0.982078,-0.302734 1.496093,-0.302734 0.695433,0 1.225056,0.161855 1.587891,0.484375 0.372913,0.322519 0.558594,0.780355 0.558594,1.375 0,0.312441 -0.04406,0.621466 -0.134766,0.923828 -0.09071,0.302362 -0.243424,0.614981 -0.455078,0.9375 -0.211653,0.312441 -0.492948,0.659977 -0.845703,1.042969 l -3.689453,3.929688 v 0.96875 h 6.863281 v -1.119141 h -5.195312 l 2.882812,-3.023438 c 0.322519,-0.332598 0.600221,-0.656308 0.832031,-0.96875 0.24189,-0.322519 0.438663,-0.635138 0.589844,-0.9375 0.151181,-0.302362 0.26148,-0.603888 0.332031,-0.90625 0.08063,-0.302362 0.121094,-0.61498 0.121094,-0.9375 0,-0.604724 -0.130531,-1.123255 -0.392578,-1.55664 -0.262047,-0.433386 -0.646454,-0.766236 -1.150391,-0.998047 -0.493858,-0.231811 -1.093317,-0.347656 -1.798828,-0.347656 z m 8.832031,0 c -0.665196,0 -1.310665,0.115845 -1.935546,0.347656 -0.614804,0.231811 -1.127788,0.564661 -1.541016,0.998047 l 0.482422,1.011719 c 0.423306,-0.433386 0.883095,-0.746004 1.376953,-0.9375 0.493858,-0.191497 1.012388,-0.28711 1.556641,-0.28711 0.645037,0 1.15443,0.14717 1.527343,0.439453 0.372914,0.282205 0.558594,0.705123 0.558594,1.269531 0,0.423308 -0.09561,0.785529 -0.287109,1.087891 -0.191496,0.292283 -0.458104,0.520381 -0.800782,0.681641 -0.342676,0.151181 -0.745362,0.226562 -1.208984,0.226562 h -1.4375 v 1.103516 h 1.587891 c 0.79622,0 1.401225,0.161856 1.814453,0.484375 0.413228,0.32252 0.61914,0.79504 0.61914,1.419922 0,0.433385 -0.101159,0.79756 -0.302734,1.089843 -0.191495,0.282205 -0.46365,0.497257 -0.816406,0.648438 -0.352756,0.141103 -0.770128,0.212891 -1.253906,0.212891 -0.564411,0 -1.103173,-0.09202 -1.617188,-0.273438 -0.514015,-0.181417 -1.014268,-0.473804 -1.498047,-0.876953 l -0.482422,1.013672 c 0.302362,0.282205 0.644352,0.519441 1.027344,0.710937 0.393071,0.181417 0.806849,0.323041 1.240234,0.423829 0.443464,0.09071 0.89216,0.134765 1.345703,0.134765 0.735749,0 1.37567,-0.121392 1.919922,-0.363281 0.544252,-0.24189 0.961623,-0.589426 1.253907,-1.042969 0.302362,-0.453543 0.453125,-0.992306 0.453125,-1.617187 0,-0.48378 -0.09561,-0.906698 -0.28711,-1.269532 -0.181417,-0.362834 -0.436933,-0.660767 -0.769531,-0.892578 -0.291023,-0.211653 -0.634052,-0.36103 -1.025391,-0.449218 0.52468,-0.1885 0.946789,-0.491114 1.265625,-0.910157 0.352756,-0.463622 0.529297,-1.013477 0.529297,-1.648437 0,-0.574488 -0.136077,-1.063648 -0.408203,-1.466797 -0.262047,-0.413228 -0.638954,-0.725847 -1.132812,-0.9375 -0.48378,-0.221732 -1.068553,-0.332031 -1.753907,-0.332031 z m 111.681636,0 c -0.77606,0 -1.46559,0.130531 -2.07031,0.392578 -0.60472,0.251968 -1.0792,0.61419 -1.42187,1.08789 -0.3326,0.463622 -0.49805,1.007932 -0.49805,1.632813 0,0.755905 0.2206,1.372002 0.66406,1.845703 0.45354,0.463621 1.16526,0.796472 2.13282,0.998047 l 1.64648,0.332031 c 0.49386,0.09071 0.89295,0.206554 1.19531,0.347656 0.31244,0.141102 0.53858,0.317644 0.67969,0.529297 0.1411,0.201575 0.21289,0.453498 0.21289,0.75586 0,0.564409 -0.22255,1.018651 -0.66602,1.361328 -0.44345,0.332598 -1.10361,0.498047 -1.98046,0.498047 -0.49386,0 -0.95169,-0.04046 -1.375,-0.121094 -0.42331,-0.08063 -0.8224,-0.205615 -1.19532,-0.376953 -0.3729,-0.171338 -0.73513,-0.388344 -1.08789,-0.650391 l -0.46875,1.058594 c 0.3326,0.272126 0.70951,0.49827 1.13282,0.679687 0.4233,0.181417 0.88864,0.323041 1.39257,0.423829 0.50394,0.09071 1.03716,0.134765 1.60157,0.134765 0.8063,0 1.50691,-0.130531 2.10156,-0.392578 0.59465,-0.262047 1.04889,-0.624269 1.36133,-1.087891 0.32252,-0.463621 0.48242,-0.993245 0.48242,-1.58789 0,-0.735748 -0.24638,-1.320521 -0.74024,-1.753906 -0.48378,-0.443464 -1.23954,-0.765223 -2.26757,-0.966797 l -1.63282,-0.333985 c -0.68535,-0.141102 -1.17451,-0.341469 -1.46679,-0.603515 -0.2822,-0.272126 -0.42383,-0.639894 -0.42383,-1.103516 0,-0.403149 0.11225,-0.750685 0.33398,-1.042969 0.23181,-0.292282 0.54802,-0.514834 0.95118,-0.666015 0.40314,-0.16126 0.86653,-0.242188 1.39062,-0.242188 0.62488,0 1.18942,0.09561 1.69336,0.287109 0.51401,0.181419 0.99403,0.479351 1.4375,0.892579 l 0.46875,-1.042969 c -0.28221,-0.272125 -0.60951,-0.503817 -0.98242,-0.695313 -0.37292,-0.201574 -0.77755,-0.348744 -1.21094,-0.439453 -0.43338,-0.100787 -0.89675,-0.15039 -1.39063,-0.15039 z m 43.63086,0 c -1.05826,0 -1.97034,0.220598 -2.73632,0.664062 -0.7559,0.433386 -1.34068,1.058623 -1.75391,1.875 -0.40315,0.816377 -0.60547,1.794697 -0.60547,2.933594 0,1.138897 0.20232,2.117216 0.60547,2.933594 0.41323,0.816377 1.01269,1.439661 1.79883,1.873046 0.78614,0.433386 1.74423,0.650391 2.87304,0.650391 0.4334,0 0.87654,-0.03492 1.33008,-0.105469 0.46362,-0.06047 0.90122,-0.146946 1.31446,-0.257812 0.41322,-0.120945 0.76076,-0.251476 1.04296,-0.392578 v -4.988282 h -3.83984 v 1.072266 h 2.69141 v 3.111328 c -0.31535,0.108484 -0.65368,0.200392 -1.01367,0.275391 -0.47371,0.09071 -0.972,0.136719 -1.4961,0.136719 -1.30015,0 -2.28206,-0.362222 -2.94726,-1.087891 -0.6652,-0.725669 -0.99805,-1.799602 -0.99805,-3.220703 0,-1.390865 0.32176,-2.453706 0.9668,-3.189453 0.64504,-0.735748 1.56821,-1.103516 2.76757,-1.103516 0.65512,0 1.24349,0.09007 1.76758,0.271485 0.53418,0.181416 1.03802,0.482943 1.51172,0.90625 l 0.5,-1.027344 c -0.29229,-0.292284 -0.63622,-0.533114 -1.0293,-0.72461 -0.39306,-0.201574 -0.82153,-0.35429 -1.28515,-0.455078 -0.46363,-0.100787 -0.95083,-0.15039 -1.46485,-0.15039 z M 79.269531,30.021484 v 4.650391 c -0.191402,-0.435072 -0.488583,-0.78627 -0.892578,-1.052734 -0.463621,-0.32252 -1.022616,-0.484375 -1.677734,-0.484375 -0.675276,0 -1.263642,0.161855 -1.767578,0.484375 -0.493858,0.31244 -0.878266,0.75559 -1.150391,1.330078 -0.272126,0.564409 -0.408203,1.239249 -0.408203,2.02539 0,0.765984 0.136077,1.440824 0.408203,2.025391 0.272125,0.574488 0.660127,1.023184 1.164062,1.345703 0.503937,0.312441 1.094256,0.46875 1.769532,0.46875 0.655118,0 1.219659,-0.159902 1.693359,-0.482422 0.435945,-0.299712 0.74708,-0.695645 0.9375,-1.183593 v 1.53125 h 1.208985 V 30.021484 Z m 7.458985,0 v 10.658204 h 1.224609 v -8.4375 l 3.537109,6.773437 h 0.90625 l 3.523438,-6.802734 v 8.466797 h 1.208984 V 30.021484 H 95.875 l -3.925781,7.583985 -3.9375,-7.583985 z m 36.791014,0 v 10.658204 h 1.28516 v -4.189454 c 0,-0.443464 0.0956,-0.835057 0.28711,-1.177734 0.1915,-0.342677 0.4581,-0.611238 0.80078,-0.802734 0.34268,-0.201575 0.74177,-0.300782 1.19531,-0.300782 0.40315,0 0.73046,0.07538 0.98242,0.226563 0.25197,0.141102 0.4321,0.358106 0.54297,0.650391 0.12095,0.292282 0.18164,0.648958 0.18164,1.072265 v 4.521485 h 1.28516 v -4.597657 c 0,-0.655118 -0.10116,-1.197474 -0.30274,-1.630859 -0.20157,-0.443464 -0.5031,-0.772722 -0.90625,-0.984375 -0.39307,-0.221733 -0.89137,-0.332031 -1.49609,-0.332031 -0.61481,0 -1.16466,0.150763 -1.64844,0.453125 -0.40537,0.258751 -0.71665,0.61141 -0.9375,1.054687 v -4.621094 z m 24.63477,1.011719 v 2.238281 h -1.51172 v 1.027344 h 1.48047 v 3.810547 c 0,0.866771 0.22255,1.536065 0.66601,2.009766 0.44346,0.463621 1.10916,0.695312 1.9961,0.695312 0.26204,0 0.52311,-0.02937 0.78515,-0.08984 0.27213,-0.06047 0.49468,-0.135853 0.66602,-0.226562 L 152.00977,39.5 c -0.15118,0.06047 -0.31859,0.110077 -0.5,0.150391 -0.18142,0.04031 -0.36351,0.06055 -0.54493,0.06055 -0.54424,-10e-7 -0.94138,-0.141624 -1.19336,-0.423829 -0.24188,-0.292283 -0.36328,-0.72434 -0.36328,-1.298828 v -3.689453 h 2.50977 v -1.027344 h -2.50977 v -2.238281 z m 56.21289,0 v 2.238281 h -1.51172 v 1.027344 h 1.48047 v 3.810547 c 0,0.866771 0.22255,1.536065 0.66601,2.009766 0.44347,0.463621 1.10722,0.695312 1.99414,0.695312 0.26205,0 0.52507,-0.02937 0.78711,-0.08984 0.27213,-0.06047 0.49468,-0.135853 0.66602,-0.226562 L 208.2207,39.5 c -0.15118,0.06047 -0.31662,0.110077 -0.49804,0.150391 -0.18142,0.04031 -0.36351,0.06055 -0.54493,0.06055 -0.54425,-10e-7 -0.9414,-0.141624 -1.19335,-0.423829 -0.2419,-0.292283 -0.36329,-0.72434 -0.36329,-1.298828 v -3.689453 h 2.50977 v -1.027344 h -2.50977 v -2.238281 z m -131.736331,2.056641 -0.560547,0.04492 c -0.675274,0.05039 -1.234269,0.232481 -1.677734,0.544922 -0.386799,0.26986 -0.667642,0.648138 -0.845703,1.134765 v -1.542969 h -1.208984 v 7.408204 h 1.298828 v -4.158204 c 0,-0.624881 0.187633,-1.128726 0.560547,-1.511718 0.382992,-0.39307 0.921754,-0.619215 1.617187,-0.679688 l 0.9375,-0.0918 z m 92.988281,0 -0.55859,0.04492 c -0.67528,0.05039 -1.23428,0.232481 -1.67774,0.544922 -0.3868,0.26986 -0.66959,0.648138 -0.84765,1.134765 v -1.542969 h -1.20899 v 7.408204 h 1.30078 v -4.158204 c 0,-0.624881 0.18568,-1.128726 0.5586,-1.511718 0.38299,-0.39307 0.92175,-0.619215 1.61718,-0.679688 l 0.9375,-0.0918 z m 62.89844,0 -0.56055,0.04492 c -0.67527,0.05039 -1.23427,0.232481 -1.67773,0.544922 -0.3868,0.26986 -0.66765,0.648138 -0.84571,1.134765 v -1.542969 h -1.21093 v 7.408204 h 1.30078 v -4.158204 c 0,-0.624881 0.18763,-1.128726 0.56054,-1.511718 0.383,-0.39307 0.92177,-0.619215 1.61719,-0.679688 l 0.9375,-0.0918 z m -125.86914,0.04492 c -0.35276,0 -0.71498,0.03492 -1.08789,0.105468 -0.37292,0.07055 -0.73514,0.171711 -1.08789,0.302735 -0.34268,0.131023 -0.655299,0.292879 -0.937504,0.484375 l 0.423828,0.9375 c 0.453536,-0.282204 0.891146,-0.484524 1.314456,-0.605469 0.43338,-0.131023 0.86739,-0.197266 1.30078,-0.197266 0.61481,0 1.06709,0.141624 1.35937,0.423829 0.29229,0.272126 0.43946,0.711682 0.43946,1.316406 v 0.453125 h -0.66602 c -1.07843,0 -1.94449,0.06983 -2.59961,0.210937 -0.65512,0.131024 -1.133182,0.357168 -1.435545,0.679688 -0.292283,0.322519 -0.439453,0.762076 -0.439453,1.316406 0,0.423307 0.115845,0.80576 0.347656,1.148438 0.241889,0.342675 0.565602,0.614831 0.968752,0.816406 0.41322,0.191496 0.87661,0.287109 1.39062,0.287109 0.44347,0 0.83506,-0.07538 1.17774,-0.226562 0.35276,-0.16126 0.64514,-0.378265 0.87695,-0.650391 0.20235,-0.227643 0.35809,-0.48351 0.46875,-0.767578 v 1.509766 h 1.16406 V 36.00781 c 0,-0.665196 -0.11584,-1.209505 -0.34765,-1.632812 -0.23181,-0.423307 -0.56826,-0.735925 -1.01172,-0.9375 -0.43339,-0.201575 -0.9741,-0.302734 -1.61914,-0.302734 z m 8.98437,0 c -0.6148,0 -1.16466,0.150763 -1.64843,0.453125 -0.43238,0.270234 -0.75937,0.65107 -0.98243,1.138671 v -1.455078 h -1.22461 v 7.408204 h 1.28516 v -4.189454 c 0,-0.443464 0.0956,-0.835057 0.28711,-1.177734 0.1915,-0.342677 0.45811,-0.611238 0.80078,-0.802734 0.34268,-0.201575 0.73982,-0.300782 1.19336,-0.300782 0.40315,0 0.73241,0.07538 0.98437,0.226563 0.25198,0.141102 0.43211,0.358107 0.54297,0.650391 0.12095,0.292282 0.18164,0.648958 0.18164,1.072265 v 4.521485 h 1.28516 v -4.597657 c 0,-0.665196 -0.10115,-1.213099 -0.30273,-1.646484 -0.20158,-0.443464 -0.50311,-0.770768 -0.90625,-0.982422 -0.39308,-0.211653 -0.89138,-0.318359 -1.4961,-0.318359 z m 8.08985,0 c -0.74583,0 -1.39684,0.156309 -1.95118,0.46875 -0.55432,0.302362 -0.98279,0.739965 -1.28515,1.314453 -0.29229,0.564409 -0.4375,1.241202 -0.4375,2.027343 0,0.776063 0.14521,1.456449 0.4375,2.041016 0.30236,0.574488 0.72723,1.023184 1.27148,1.345703 0.55433,0.32252 1.20894,0.482422 1.96485,0.482422 0.4737,0 0.93708,-0.08093 1.39062,-0.242187 0.45355,-0.171339 0.82686,-0.40303 1.11914,-0.695313 l -0.43945,-0.9375 c -0.29229,0.262047 -0.61404,0.464366 -0.9668,0.605469 -0.35275,0.131023 -0.69115,0.197266 -1.01367,0.197266 -0.77607,0 -1.38107,-0.24833 -1.81445,-0.742188 -0.43339,-0.493858 -0.64844,-1.174245 -0.64844,-2.041016 0,-0.886928 0.21505,-1.567315 0.64844,-2.041015 0.43338,-0.473701 1.03838,-0.708985 1.81445,-0.708985 0.33259,0 0.67654,0.06983 1.0293,0.210938 0.35275,0.131023 0.67451,0.333343 0.96679,0.605469 l 0.43946,-0.953125 c -0.29228,-0.292284 -0.6656,-0.518428 -1.11914,-0.679688 -0.45354,-0.171339 -0.92247,-0.257812 -1.40625,-0.257812 z m 15.68164,0 c -0.72568,0 -1.36005,0.167401 -1.9043,0.5 -0.54425,0.322519 -0.96717,0.769262 -1.26953,1.34375 -0.29229,0.574487 -0.43945,1.240188 -0.43945,1.996093 0,0.79622 0.15631,1.482154 0.46875,2.056641 0.31244,0.574488 0.76113,1.017637 1.3457,1.330078 0.58457,0.302362 1.27964,0.453125 2.08594,0.453125 0.52409,0 1.04262,-0.08093 1.55664,-0.242187 0.5241,-0.171339 0.96919,-0.412169 1.33203,-0.72461 l -0.43946,-0.908203 c -0.3729,0.302362 -0.76646,0.519367 -1.17968,0.650391 -0.41323,0.120944 -0.8306,0.18164 -1.25391,0.18164 -0.56441,0 -1.04802,-0.104753 -1.45117,-0.316406 -0.40315,-0.221732 -0.71022,-0.539897 -0.92188,-0.953125 -0.16389,-0.335979 -0.26037,-0.739751 -0.29101,-1.208984 h 5.67187 v -0.453125 c 0,-0.765984 -0.13053,-1.422546 -0.39257,-1.966797 -0.26205,-0.554331 -0.64091,-0.982794 -1.13477,-1.285156 -0.48378,-0.302362 -1.0777,-0.453125 -1.7832,-0.453125 z m 7.77343,0 c -0.60472,0 -1.13435,0.09007 -1.58789,0.271484 -0.45354,0.181417 -0.80109,0.438886 -1.04296,0.771484 -0.2419,0.332599 -0.36329,0.720599 -0.36329,1.164063 0,0.534173 0.1674,0.973729 0.5,1.316406 0.3326,0.332598 0.82536,0.564289 1.48047,0.695313 l 1.4668,0.271484 c 0.43339,0.09071 0.74601,0.217646 0.9375,0.378906 0.20157,0.16126 0.30273,0.387404 0.30273,0.679688 0,0.352756 -0.16185,0.630456 -0.48437,0.832031 -0.31244,0.191496 -0.76473,0.287109 -1.35938,0.287109 -0.30236,0 -0.61138,-0.02578 -0.92382,-0.07617 -0.31244,-0.06047 -0.61397,-0.150539 -0.90625,-0.271484 -0.29228,-0.131023 -0.56444,-0.292879 -0.81641,-0.484375 l -0.4082,0.921875 c 0.23181,0.191496 0.50951,0.358898 0.83203,0.5 0.32252,0.131024 0.67005,0.230231 1.04297,0.300781 0.38299,0.08063 0.77099,0.121094 1.16406,0.121094 0.62488,0 1.16365,-0.08452 1.61719,-0.255859 0.45354,-0.181418 0.80662,-0.43334 1.05859,-0.75586 0.26205,-0.332598 0.39258,-0.726144 0.39258,-1.179687 0,-0.544252 -0.17655,-0.972716 -0.5293,-1.285156 -0.34268,-0.32252 -0.86676,-0.554211 -1.57226,-0.695313 l -1.43555,-0.287109 c -0.40315,-0.08063 -0.70109,-0.202022 -0.89258,-0.363281 -0.18142,-0.171338 -0.27148,-0.40303 -0.27148,-0.695313 0,-0.352756 0.15631,-0.63405 0.46875,-0.845703 0.31244,-0.211653 0.75004,-0.31836 1.31445,-0.31836 0.27213,0 0.54983,0.02937 0.83203,0.08984 0.28221,0.06047 0.54882,0.156086 0.80078,0.28711 0.26205,0.120945 0.49373,0.273661 0.69531,0.455078 l 0.42383,-0.908203 c -0.20157,-0.201575 -0.4535,-0.367024 -0.75586,-0.498047 -0.29228,-0.141102 -0.61045,-0.247808 -0.95312,-0.31836 -0.34268,-0.07055 -0.68467,-0.105468 -1.02735,-0.105468 z m 13.15821,0 c -0.72567,0 -1.362,0.167401 -1.90625,0.5 -0.54425,0.322519 -0.96717,0.769262 -1.26953,1.34375 -0.29228,0.574487 -0.4375,1.240188 -0.4375,1.996093 0,0.79622 0.15631,1.482154 0.46875,2.056641 0.31244,0.574488 0.75918,1.017637 1.34375,1.330078 0.58456,0.302362 1.28159,0.453125 2.08789,0.453125 0.52409,0 1.04262,-0.08093 1.55664,-0.242187 0.52409,-0.171339 0.96724,-0.412169 1.33008,-0.72461 l -0.4375,-0.908203 c -0.37292,0.302362 -0.76647,0.519367 -1.17969,0.650391 -0.41323,0.120944 -0.83255,0.18164 -1.25586,0.18164 -0.56441,0 -1.04803,-0.104753 -1.45117,-0.316406 -0.40316,-0.221732 -0.71022,-0.539897 -0.92188,-0.953125 -0.1639,-0.335994 -0.26038,-0.739724 -0.29101,-1.208984 h 5.67382 v -0.453125 c 0,-0.765984 -0.13248,-1.422546 -0.39453,-1.966797 -0.26204,-0.554331 -0.63895,-0.982794 -1.13281,-1.285156 -0.48378,-0.302362 -1.07769,-0.453125 -1.7832,-0.453125 z m 26.84375,0 c -0.74583,0 -1.39685,0.156309 -1.95117,0.46875 -0.55434,0.302362 -0.9828,0.739965 -1.28516,1.314453 -0.29228,0.564409 -0.4375,1.241202 -0.4375,2.027343 0,0.776063 0.14522,1.456449 0.4375,2.041016 0.30236,0.574488 0.72528,1.023184 1.26953,1.345703 0.55433,0.32252 1.2109,0.482422 1.9668,0.482422 0.4737,0 0.93708,-0.08093 1.39062,-0.242187 0.45354,-0.171339 0.82686,-0.40303 1.11914,-0.695313 l -0.43945,-0.9375 c -0.29228,0.262047 -0.61404,0.464366 -0.9668,0.605469 -0.35275,0.131023 -0.69115,0.197266 -1.01367,0.197266 -0.77606,0 -1.38107,-0.24833 -1.81445,-0.742188 -0.43339,-0.493858 -0.65039,-1.174245 -0.65039,-2.041016 0,-0.886928 0.217,-1.567315 0.65039,-2.041015 0.43338,-0.473701 1.03839,-0.708985 1.81445,-0.708985 0.3326,0 0.67458,0.06983 1.02735,0.210938 0.35275,0.131023 0.67647,0.333343 0.96874,0.605469 l 0.4375,-0.953125 c -0.29228,-0.292284 -0.66364,-0.518428 -1.11718,-0.679688 -0.45355,-0.171339 -0.92247,-0.257812 -1.40625,-0.257812 z m 6.80469,0 c -0.73576,0 -1.37568,0.161855 -1.91993,0.484375 -0.53417,0.31244 -0.94794,0.75559 -1.24023,1.330078 -0.29228,0.564409 -0.4375,1.233703 -0.4375,2.009765 0,0.786142 0.14522,1.466529 0.4375,2.041016 0.29229,0.574488 0.70606,1.023184 1.24023,1.345703 0.54425,0.312441 1.18417,0.46875 1.91993,0.46875 0.73573,0 1.37012,-0.156309 1.90429,-0.46875 0.54425,-0.322519 0.96357,-0.771215 1.25586,-1.345703 0.29228,-0.574487 0.4375,-1.254874 0.4375,-2.041016 0,-0.776062 -0.14522,-1.445356 -0.4375,-2.009765 -0.29229,-0.574488 -0.71161,-1.017638 -1.25586,-1.330078 -0.53417,-0.32252 -1.16855,-0.484375 -1.90429,-0.484375 z m 42.87304,0 c -0.73574,0 -1.37567,0.161855 -1.91992,0.484375 -0.53417,0.31244 -0.94599,0.75559 -1.23828,1.330078 -0.29228,0.564409 -0.43945,1.233703 -0.43945,2.009765 0,0.786142 0.14717,1.466529 0.43945,2.041016 0.29229,0.574488 0.70411,1.023184 1.23828,1.345703 0.54425,0.312441 1.18418,0.46875 1.91992,0.46875 0.73575,0 1.37208,-0.156309 1.90625,-0.46875 0.54425,-0.322519 0.96162,-0.771215 1.25391,-1.345703 0.29228,-0.574487 0.43945,-1.254874 0.43945,-2.041016 0,-0.776062 -0.14717,-1.445356 -0.43945,-2.009765 -0.29229,-0.574488 -0.70966,-1.017638 -1.25391,-1.330078 -0.53417,-0.32252 -1.1705,-0.484375 -1.90625,-0.484375 z m 17.81446,0 c -0.65513,0 -1.22521,0.161855 -1.70899,0.484375 -0.4173,0.28412 -0.72358,0.660972 -0.92187,1.132812 v -1.480469 h -1.22461 v 10.128907 h 1.28515 v -4.134766 c 0.19745,0.433296 0.49428,0.789326 0.89258,1.066406 0.4737,0.32252 1.03268,0.482422 1.67774,0.482422 0.68534,0 1.27567,-0.156309 1.76953,-0.46875 0.50393,-0.322519 0.89193,-0.771215 1.16406,-1.345703 0.27213,-0.584567 0.4082,-1.259407 0.4082,-2.025391 0,-0.786141 -0.14163,-1.460981 -0.42383,-2.02539 -0.27212,-0.574488 -0.66012,-1.017638 -1.16406,-1.330078 -0.49386,-0.32252 -1.07863,-0.484375 -1.7539,-0.484375 z m -55.37891,0.136718 v 4.595704 c 0,0.645037 0.10116,1.189347 0.30273,1.632812 0.20158,0.433385 0.50311,0.76069 0.90625,0.982422 0.41324,0.221732 0.92263,0.332031 1.52735,0.332031 0.6148,0 1.14443,-0.156309 1.58789,-0.46875 0.39573,-0.272614 0.70263,-0.645075 0.92187,-1.117187 v 1.451172 h 1.20899 v -7.408204 h -1.28516 v 4.1875 c 0,0.433386 -0.0956,0.821386 -0.28711,1.164063 -0.18141,0.342677 -0.43693,0.614831 -0.76953,0.816406 -0.32252,0.201575 -0.69583,0.302735 -1.11914,0.302735 -0.40315,0 -0.73046,-0.07179 -0.98242,-0.212891 -0.25197,-0.151181 -0.4396,-0.368186 -0.56055,-0.650391 -0.11087,-0.292282 -0.16602,-0.643412 -0.16602,-1.05664 v -4.550782 z m 42.875,0 v 4.595704 c 0,0.645037 0.0992,1.189347 0.30078,1.632812 0.20157,0.433385 0.50506,0.76069 0.9082,0.982422 0.41324,0.221732 0.92263,0.332031 1.52735,0.332031 0.6148,0 1.14247,-0.156309 1.58593,-0.46875 0.39574,-0.272614 0.70458,-0.645075 0.92383,-1.117187 v 1.451172 h 1.20899 v -7.408204 h -1.28516 v 4.1875 c 0,0.433386 -0.0956,0.821386 -0.28711,1.164063 -0.18141,0.342677 -0.43888,0.614831 -0.77148,0.816406 -0.32252,0.201575 -0.69584,0.302735 -1.11914,0.302735 -0.40315,0 -0.73045,-0.07179 -0.98243,-0.212891 -0.25196,-0.151181 -0.43764,-0.368186 -0.55859,-0.650391 -0.11087,-0.292282 -0.166,-0.643412 -0.16602,-1.05664 V 33.271482 Z M 135.41992,34.10156 c 0.7156,0 1.2599,0.228098 1.63281,0.681641 0.33464,0.397946 0.51839,0.942694 0.55274,1.632813 h -4.55469 c 0.0372,-0.378538 0.12666,-0.717002 0.26758,-1.013672 0.19149,-0.413228 0.46365,-0.72944 0.81641,-0.951172 0.36283,-0.231811 0.7913,-0.349608 1.28515,-0.34961 z m 20.92969,0 c 0.71559,0 1.2599,0.228098 1.63281,0.681641 0.33464,0.397945 0.51839,0.942698 0.55274,1.632813 h -4.55469 c 0.0372,-0.378538 0.12666,-0.717002 0.26758,-1.013672 0.19149,-0.413228 0.46365,-0.72944 0.8164,-0.951172 0.36284,-0.231811 0.79131,-0.349608 1.28516,-0.34961 z m -79.363282,0.07617 c 0.705511,0 1.264507,0.246377 1.677734,0.740235 0.423307,0.483779 0.636719,1.169712 0.636719,2.05664 0,0.87685 -0.213411,1.562784 -0.636719,2.056641 -0.413228,0.493858 -0.975816,0.740234 -1.691406,0.740234 -0.705511,0 -1.270052,-0.246376 -1.693359,-0.740234 -0.413229,-0.493857 -0.621094,-1.179791 -0.621094,-2.056641 0,-0.886928 0.207865,-1.572861 0.621094,-2.05664 0.423307,-0.493858 0.991441,-0.740235 1.707031,-0.740235 z m 173.414062,0 c 0.71559,0 1.28013,0.242784 1.69336,0.726563 0.41323,0.483779 0.61914,1.167759 0.61914,2.054687 0,0.886929 -0.20591,1.578409 -0.61914,2.072266 -0.41323,0.493858 -0.97777,0.740234 -1.69336,0.740234 -0.70551,0 -1.27005,-0.246376 -1.69336,-0.740234 -0.41323,-0.493857 -0.61914,-1.185337 -0.61914,-2.072266 0,-0.886928 0.20591,-1.570908 0.61914,-2.054687 0.42331,-0.483779 0.98785,-0.726563 1.69336,-0.726563 z m -60.41601,0.01563 c 0.71557,0 1.28013,0.24083 1.69335,0.72461 0.41324,0.483779 0.61914,1.164165 0.61915,2.041015 -2e-5,0.87685 -0.20591,1.562783 -0.61915,2.056641 -0.41322,0.493858 -0.97777,0.740234 -1.69335,0.740234 -0.70553,0 -1.27006,-0.246376 -1.69336,-0.740234 -0.41323,-0.493858 -0.61916,-1.179791 -0.61914,-2.056641 -2e-5,-0.87685 0.20591,-1.557236 0.61914,-2.041015 0.41322,-0.48378 0.97775,-0.72461 1.69336,-0.72461 z m 42.87304,0 c 0.71559,0 1.28013,0.24083 1.69336,0.72461 0.41323,0.483779 0.62109,1.164165 0.6211,2.041015 0,0.87685 -0.20787,1.562783 -0.6211,2.056641 -0.41323,0.493858 -0.97777,0.740234 -1.69336,0.740234 -0.70551,0 -1.2681,-0.246376 -1.6914,-0.740234 -0.41323,-0.493858 -0.6211,-1.179791 -0.6211,-2.056641 0,-0.87685 0.20787,-1.557236 0.6211,-2.041015 0.41322,-0.48378 0.97581,-0.72461 1.6914,-0.72461 z m -129.10351,3.023438 h 0.61914 V 37.625 c 0,0.413228 -0.10116,0.786542 -0.30274,1.119141 -0.19149,0.332598 -0.45255,0.599206 -0.78515,0.800781 -0.32252,0.191496 -0.69584,0.287109 -1.11914,0.287109 -0.49386,0 -0.89295,-0.121391 -1.19532,-0.363281 -0.30236,-0.241889 -0.45312,-0.569194 -0.45312,-0.982422 0,-0.251969 0.0552,-0.457881 0.16601,-0.61914 0.11087,-0.161262 0.29296,-0.288198 0.54493,-0.378907 0.25196,-0.100788 0.58481,-0.170624 0.99804,-0.210937 0.41323,-0.04031 0.92263,-0.06055 1.52735,-0.06055 z" />
</svg>
