<?xml version="1.0" encoding="UTF-8" standalone="no"?>
<!-- Created with Inkscape (http://www.inkscape.org/) -->

<svg
   xmlns:dc="http://purl.org/dc/elements/1.1/"
   xmlns:cc="http://creativecommons.org/ns#"
   xmlns:rdf="http://www.w3.org/1999/02/22-rdf-syntax-ns#"
   xmlns:svg="http://www.w3.org/2000/svg"
   xmlns="http://www.w3.org/2000/svg"
   xmlns:sodipodi="http://sodipodi.sourceforge.net/DTD/sodipodi-0.dtd"
   xmlns:inkscape="http://www.inkscape.org/namespaces/inkscape"
   version="1.1"
   id="svg834"
   xml:space="preserve"
   width="815.69336"
   height="743.29333"
   viewBox="0 0 815.69336 743.29333"
   sodipodi:docname="fleur-de-lis-marque-purple-eps.svg"
   inkscape:version="0.92.3 (2405546, 2018-03-11)"><metadata
     id="metadata840"><rdf:RDF><cc:Work
         rdf:about=""><dc:format>image/svg+xml</dc:format><dc:type
           rdf:resource="http://purl.org/dc/dcmitype/StillImage" /><dc:title></dc:title></cc:Work></rdf:RDF></metadata><defs
     id="defs838" /><sodipodi:namedview
     pagecolor="#ffffff"
     bordercolor="#666666"
     borderopacity="1"
     objecttolerance="10"
     gridtolerance="10"
     guidetolerance="10"
     inkscape:pageopacity="0"
     inkscape:pageshadow="2"
     inkscape:window-width="2560"
     inkscape:window-height="1369"
     id="namedview836"
     showgrid="false"
     inkscape:zoom="1.5216065"
     inkscape:cx="407.84668"
     inkscape:cy="371.64667"
     inkscape:window-x="0"
     inkscape:window-y="0"
     inkscape:window-maximized="1"
     inkscape:current-layer="g842" /><g
     id="g842"
     inkscape:groupmode="layer"
     inkscape:label="ink_ext_XXXXXX"
     transform="matrix(1.3333333,0,0,-1.3333333,0,743.29333)"><g
       id="g844"
       transform="scale(0.1)"><path
         d="m 1611.57,3067.27 c 170.72,-261.62 256.77,-561.07 283.58,-764.19 h 311.74 c -26.12,248.19 -126.25,611.83 -335.96,933.37 -249.4,382.53 -574.25,584.84 -939.188,585.02 h -2.211 c -278.324,0 -538.769,-125.05 -714.765,-343.25 C 29.6758,3248.85 -40.3438,2952.21 22.6055,2664.29 l 302.4145,66.23 c -42.188,192.77 6.683,399.63 130.605,553.3 118.777,147.05 286.898,228.03 474.016,228.03 h 1.558 c 322.901,-0.2 548.231,-241.86 680.371,-444.58 z"
         style="fill:none;stroke:#100f0d;stroke-width:7.5;stroke-linecap:round;stroke-linejoin:round;stroke-miterlimit:10;stroke-dasharray:none;stroke-opacity:1"
         id="path846"
         inkscape:connector-curvature="0" /><path
         d="m 1611.56,3067.27 c 170.72,-261.63 256.78,-561.08 283.58,-764.21 h 311.74 c -26.11,248.19 -126.24,611.85 -335.94,933.39 -249.41,382.52 -574.27,584.85 -939.198,585.02 h -2.215 c -278.328,0 -538.761,-125.05 -714.769,-343.25 -185.1017,-229.37 -255.1135,-526 -192.1642,-813.91 l 302.4262,66.2 c -42.2,192.77 6.691,399.64 130.609,553.3 118.766,147.06 286.891,228.03 474,228.03 h 1.566 c 322.915,-0.2 548.255,-241.86 680.365,-444.57"
         style="fill:#5e43a4;fill-opacity:1;fill-rule:nonzero;stroke:none"
         id="path848"
         inkscape:connector-curvature="0" /><path
         d="m 3861.73,898.242 c -121.2,167.728 -209.53,368.518 -248.51,561.698 h -314.58 c 24.16,-150.82 88.25,-399.87 257.09,-662.542 C 3449.93,620.23 3260.02,445.41 3059.19,340.82 c -0.1,0.051 -0.21,0.121 -0.32,0.18 -0.11,-0.059 -0.21,-0.129 -0.33,-0.18 -200.82,104.59 -390.73,279.41 -496.52,456.578 168.84,262.672 232.93,511.722 257.09,662.542 h -314.59 c -38.98,-193.18 -127.3,-393.97 -248.5,-561.698 l -52.66,-73.152 37.58,-82.039 C 2372.36,456.281 2675.88,168.719 2996.19,27.5391 L 3058.43,0 3058.87,0.199219 3059.32,0 l 62.24,27.5391 c 320.3,141.1799 623.83,428.7419 755.25,715.5119 l 37.57,82.039 z"
         style="fill:none;stroke:#100f0d;stroke-width:7.5;stroke-linecap:round;stroke-linejoin:round;stroke-miterlimit:10;stroke-dasharray:none;stroke-opacity:1"
         id="path850"
         inkscape:connector-curvature="0" /><path
         d="M 3861.73,898.242 C 3740.51,1065.99 3652.2,1266.76 3613.22,1459.94 h -314.58 c 24.17,-150.82 88.24,-399.89 257.09,-662.542 C 3449.94,620.219 3260.02,445.41 3059.19,340.84 c -0.09,0.039 -0.2,0.101 -0.33,0.172 -0.11,-0.071 -0.21,-0.133 -0.31,-0.172 -200.83,104.57 -390.74,279.379 -496.53,456.558 168.84,262.652 232.92,511.722 257.09,662.542 h -314.58 c -38.98,-193.18 -127.3,-393.95 -248.52,-561.698 l -52.64,-73.152 37.55,-82.051 c 131.43,-286.738 434.94,-574.32 755.26,-715.5077 l 62.23,-27.5195812 0.45,0.1992192 0.44,-0.1992192 62.27,27.5195812 C 3441.84,168.719 3745.4,456.301 3876.79,743.039 l 37.59,82.051 -52.65,73.152"
         style="fill:#5e43a4;fill-opacity:1;fill-rule:nonzero;stroke:none"
         id="path852"
         inkscape:connector-curvature="0" /><path
         d="M 4506.18,3067.27 C 4335.45,2805.65 4249.41,2506.2 4222.59,2303.08 h -311.74 c 26.13,248.19 126.26,611.83 335.96,933.37 249.41,382.53 574.25,584.84 939.19,585.02 h 2.22 c 278.32,0 538.76,-125.05 714.77,-343.25 185.08,-229.37 255.09,-526.01 192.14,-813.93 l -302.39,66.23 c 42.17,192.77 -6.7,399.63 -130.63,553.3 -118.78,147.05 -286.89,228.03 -474,228.03 h -1.57 c -322.89,-0.2 -548.23,-241.86 -680.36,-444.58 z"
         style="fill:none;stroke:#100f0d;stroke-width:7.5;stroke-linecap:round;stroke-linejoin:round;stroke-miterlimit:10;stroke-dasharray:none;stroke-opacity:1"
         id="path854"
         inkscape:connector-curvature="0" /><path
         d="M 4506.19,3067.27 C 4335.46,2805.64 4249.4,2506.19 4222.6,2303.06 h -311.74 c 26.12,248.19 126.24,611.85 335.95,933.39 249.41,382.52 574.26,584.85 939.19,585.02 h 2.22 c 278.33,0 538.76,-125.05 714.77,-343.25 185.06,-229.37 255.08,-526 192.16,-813.91 l -302.42,66.2 c 42.19,192.77 -6.69,399.64 -130.62,553.3 -118.76,147.06 -286.88,228.03 -473.99,228.03 h -1.57 c -322.91,-0.2 -548.25,-241.86 -680.36,-444.57"
         style="fill:#5e43a4;fill-opacity:1;fill-rule:nonzero;stroke:none"
         id="path856"
         inkscape:connector-curvature="0" /><path
         d="m 2517.8,2303.08 h 311.73 c -38.89,359.16 -179.77,672.11 -304.67,949.33 -124.68,276.56 -242.38,537.9 -240.7,798.31 2.6,299.46 173.36,604.74 456.88,816.99 49.68,37.41 190.9,145.79 317.83,262.34 126.94,-116.55 268.15,-224.93 317.82,-262.34 283.54,-212.25 454.29,-517.53 456.9,-816.99 1.68,-260.41 -116.03,-521.75 -240.7,-798.31 -124.91,-277.22 -265.79,-590.17 -304.67,-949.33 h 311.72 c 38.54,296.59 158.83,563.46 275.34,822.16 138.83,308.23 269.99,599.41 267.99,927.82 -3.6,395.84 -220.67,792.76 -580.77,1062.3 -42.48,32.12 -263.42,200.47 -390.42,337.25 l -113.21,122.08 -113.2,-122.08 c -127.01,-136.78 -347.95,-305.13 -390.42,-337.25 -360.11,-269.54 -577.17,-666.46 -580.78,-1062.3 -1.99,-328.41 129.16,-619.59 268,-927.82 116.5,-258.7 236.8,-525.57 275.33,-822.16 z"
         style="fill:none;stroke:#100f0d;stroke-width:7.5;stroke-linecap:round;stroke-linejoin:round;stroke-miterlimit:10;stroke-dasharray:none;stroke-opacity:1"
         id="path858"
         inkscape:connector-curvature="0" /><path
         d="m 2517.81,2303.06 h 311.71 c -38.89,359.16 -179.77,672.14 -304.64,949.34 -124.71,276.58 -242.41,537.9 -240.71,798.34 2.6,299.45 173.35,604.71 456.87,816.98 49.66,37.41 190.89,145.76 317.82,262.31 126.96,-116.55 268.15,-224.9 317.85,-262.31 283.51,-212.27 454.27,-517.53 456.86,-816.98 1.71,-260.44 -116,-521.76 -240.7,-798.34 -124.88,-277.2 -265.77,-590.18 -304.64,-949.34 h 311.71 c 38.54,296.6 158.83,563.48 275.35,822.18 138.81,308.22 269.99,599.42 267.98,927.82 -3.59,395.86 -220.67,792.74 -580.78,1062.3 -42.47,32.12 -263.41,200.48 -390.4,337.23 l -113.23,122.09 -113.21,-122.09 c -126.99,-136.75 -347.93,-305.11 -390.39,-337.23 -360.12,-269.56 -577.2,-666.44 -580.78,-1062.3 -2.02,-328.4 129.14,-619.6 267.98,-927.82 116.51,-258.7 236.81,-525.58 275.35,-822.18"
         style="fill:#5e43a4;fill-opacity:1;fill-rule:nonzero;stroke:none"
         id="path860"
         inkscape:connector-curvature="0" /><path
         d="m 1290.32,2029.92 v -296.77 h 3537.1 v 296.77 h -3537.1"
         style="fill:none;stroke:#100f0d;stroke-width:7.5;stroke-linecap:round;stroke-linejoin:round;stroke-miterlimit:10;stroke-dasharray:none;stroke-opacity:1"
         id="path862"
         inkscape:connector-curvature="0" /><path
         d="m 1290.33,2029.93 v -296.79 h 3537.09 v 296.79 H 1290.33 v 0"
         style="fill:#5e43a4;fill-opacity:1;fill-rule:nonzero;stroke:none"
         id="path864"
         inkscape:connector-curvature="0" /></g></g></svg>