<svg class="mode-button" onclick="setMode('SP')" viewBox="0 0 24 24" xmlns="http://www.w3.org/2000/svg" fill="currentColor"><path d="m 9.853282,20.614116 v -2 c 0,0 -3.121843,-1.732831 -3.9999995,-3.196311 l -2.4,-3.999689 c -0.3430167,-0.57165 -0.4714045,-1.5285954 0,-2.0000004 0.4714046,-0.471404 1.6569832,-0.57165 2,0 l 2.4,3.9996894 1.794e-4,-4.1500404 -0.6998206,-5.9082425 c -0.079362,-0.6700179 0.8252983,-1.3590441 1.5,-1.3590441 0.6747017,0 1.4192037,0.6891976 1.4999997,1.3590441 l 0.71264,5.9082425 -0.300097,-6.5082426 c -0.03093,-0.6707627 0.81544,-1.3575797 1.486914,-1.3590441 0.6747,-0.00147 1.468922,0.6850588 1.5,1.3590441 l 0.300097,6.5082426 0.300446,-5.9086499 c 0.03426,-0.6738311 0.825298,-1.3590441 1.5,-1.3590441 0.674702,0 1.534263,0.685213 1.5,1.3590441 l -0.300446,5.9086499 0.600446,-4.5082427 c 0.08908,-0.6687959 0.825298,-1.3590439 1.5,-1.3590439 0.674702,0 1.589076,0.6902483 1.5,1.359044 l -0.600446,4.5082426 v 4.8733514 c 0,1.693109 -2,2.975891 -2,4.669 v 1.804 z" /></svg>
